<svg width="1351" height="480" viewBox="0 0 1351 480" fill="none" xmlns="http://www.w3.org/2000/svg">
<path d="M205.5 357.375C244.5 357.375 279.375 345.75 306.375 318.75L270 278.25C253.875 294.375 226.5 303.375 205.5 303.375C144.375 303.375 123 259.875 123 221.625C123 183.75 145.5 137.25 205.5 137.25C226.5 137.25 249 143.625 265.125 159L301.875 122.625C274.875 95.625 241.5 82.125 205.5 82.125C108.75 82.125 65.25 153.375 65.25 221.25C65.25 292.875 105.375 357.375 205.5 357.375ZM334.983 351H388.983V256.5C388.983 226.5 407.733 211.125 430.233 211.125C451.608 211.125 465.483 225.375 465.483 251.25V351H519.483V250.875C519.483 184.875 489.108 162 445.608 162C426.483 162 404.733 168 389.358 187.875V88.5H334.983V351ZM589.767 147C605.142 147 620.517 137.25 620.517 116.625C620.517 96 605.142 86.25 589.767 86.25C574.392 86.25 559.017 96 559.017 116.625C559.017 137.25 574.392 147 589.767 147ZM562.767 351H616.767V165.75H562.767V351ZM663.126 351H716.751V88.5H663.126V351ZM844.084 356.25C866.959 356.25 887.959 351.75 905.584 327.375L908.959 351H957.334V88.5H902.959V188.25C886.834 168.75 866.959 162 844.834 162C790.459 162 752.584 198.375 752.584 258.375C752.584 315.75 789.709 356.25 844.084 356.25ZM852.334 306C823.459 306 806.959 285 806.959 258.375C806.959 230.25 824.209 210.75 852.334 210.75C877.084 210.75 902.209 226.875 902.209 258.375C902.209 293.625 876.709 306 852.334 306ZM1003.7 351H1057.33V88.5H1003.7V351ZM1122.04 432.75H1180.91L1293.79 165.75H1234.16L1188.79 282.375L1142.66 165.75H1081.91L1159.54 345.375L1122.04 432.75Z" fill="#8ECA19"/>
</svg>
