<svg width="348" height="80" viewBox="0 0 348 80" fill="none" xmlns="http://www.w3.org/2000/svg">
<path fill-rule="evenodd" clip-rule="evenodd" d="M41.4406 74.2652C48.8488 79.4948 58.7264 80.5114 67.5872 77.8968C74.124 76.0086 80.0798 72.2318 84.4374 66.712C93.7342 54.8006 91.8456 38.3862 85.89 27.4918C77.1744 11.5132 57.8548 6.57442 47.5416 3.95974C45.201 3.29099 42.7749 2.87882 39.5413 2.32949C38.5606 2.16289 37.5057 1.98367 36.3564 1.78085L36.1373 1.74434C24.0937 -0.263092 19.0523 -1.1034 16.0202 2.3619C9.33828 9.77014 21.2496 25.4582 22.7022 27.2014C26.1884 31.7042 31.4178 35.6262 35.3398 38.0958C35.267 38.1685 35.2307 38.2411 35.1943 38.3139C35.158 38.3864 35.1217 38.459 35.0492 38.5316C31.1272 44.1966 29.6746 51.0238 30.8366 57.7058C31.9988 64.533 35.7756 70.3432 41.4406 74.2652ZM41.8764 43.4704C43.6196 40.8558 46.0888 39.2578 48.8488 38.3862C52.4804 37.3696 56.5476 37.8054 59.8886 40.2746C64.2464 43.325 65.4084 49.1356 62.358 53.4932C60.179 56.5438 55.9666 57.1248 52.7708 55.091C50.7374 53.7838 47.9774 54.51 46.8152 56.689C45.6532 58.5772 46.5246 61.0468 48.4132 62.3542C55.2402 66.857 64.5368 65.114 69.1852 58.2868C74.8504 50.1522 72.8166 38.9674 64.6822 33.3022C57.7098 28.5086 48.7036 28.3634 41.7312 32.4306C38.3902 30.5422 32.725 26.6202 29.2388 22.2624C27.4957 19.9382 26.0431 17.6141 24.881 15.4353C23.2832 12.3848 25.8979 8.75332 29.2388 9.33436L34.904 10.2059C36.0755 10.4189 37.1342 10.6059 38.1055 10.7774C41.1088 11.3078 43.2771 11.6907 45.3626 12.2395C45.4468 12.2609 45.5314 12.2824 45.6166 12.304C55.3782 14.7799 71.5695 18.8868 78.4818 31.5592C81.6774 37.5146 85.7448 51.3144 77.7554 61.4826C70.202 71.0696 55.5308 73.8294 46.2342 67.4382C42.4574 64.8234 39.988 60.9014 39.1164 56.3984C38.245 51.8954 39.2618 47.247 41.8764 43.4704Z" fill="url(#paint0_linear)"/>
<path fill-rule="evenodd" clip-rule="evenodd" d="M130.189 29.612L123.529 29.576C121.993 29.576 121.057 29.9 120.721 30.548C120.529 30.908 120.409 31.22 120.361 31.484C120.337 31.748 120.325 32.168 120.325 32.744V52.76C120.325 53.792 120.469 54.56 120.757 55.064C121.117 55.664 122.029 55.964 123.493 55.964H130.081C133.753 55.964 136.873 54.656 139.441 52.04C142.033 49.424 143.329 46.292 143.329 42.644C143.329 38.972 142.009 35.888 139.369 33.392C136.729 30.872 133.669 29.612 130.189 29.612ZM134.869 47.684C133.477 48.956 131.917 49.592 130.189 49.592H126.697V35.984H130.153C131.977 35.984 133.561 36.644 134.905 37.964C136.273 39.26 136.957 40.88 136.957 42.824C136.957 44.768 136.261 46.388 134.869 47.684Z" fill="url(#paint1_linear)"/>
<path fill-rule="evenodd" clip-rule="evenodd" d="M148.552 39.404C146.536 41.276 145.528 43.652 145.528 46.532C145.528 48.452 146.032 50.18 147.04 51.716C148.072 53.228 149.332 54.38 150.82 55.172C152.308 55.94 153.844 56.324 155.428 56.324C157.012 56.324 158.536 55.964 160 55.244C161.488 54.5 162.748 53.36 163.78 51.824C164.812 50.264 165.328 48.488 165.328 46.496C165.328 43.616 164.332 41.252 162.34 39.404C160.348 37.532 158.056 36.596 155.464 36.596C152.872 36.596 150.568 37.532 148.552 39.404ZM155.392 49.988C154.6 49.988 153.82 49.7 153.052 49.124C152.284 48.524 151.9 47.648 151.9 46.496C151.9 45.32 152.272 44.432 153.016 43.832C153.76 43.232 154.564 42.932 155.428 42.932C156.292 42.932 157.096 43.22 157.84 43.796C158.584 44.372 158.956 45.248 158.956 46.424C158.956 47.6 158.56 48.488 157.768 49.088C156.976 49.688 156.184 49.988 155.392 49.988Z" fill="url(#paint2_linear)"/>
<path d="M187.228 41.816C187.708 40.976 187.948 40.316 187.948 39.836C187.948 38.996 187.324 38.204 186.076 37.46C185.236 36.956 184.576 36.704 184.096 36.704C183.616 36.704 183.232 36.812 182.944 37.028C182.656 37.22 182.44 37.424 182.296 37.64C182.176 37.832 181.984 38.156 181.72 38.612L177.004 47.684L172.288 38.612C171.952 37.964 171.628 37.484 171.316 37.172C171.028 36.836 170.62 36.668 170.092 36.668C169.564 36.668 168.844 36.932 167.932 37.46C166.684 38.204 166.06 39.008 166.06 39.872C166.06 40.376 166.3 41.024 166.78 41.816L174.268 54.632L174.592 55.028C174.784 55.292 175.108 55.556 175.564 55.82C176.044 56.06 176.536 56.18 177.04 56.18C177.568 56.18 178.096 56.024 178.624 55.712C179.152 55.376 179.536 55.004 179.776 54.596L187.228 41.816Z" fill="url(#paint3_linear)"/>
<path fill-rule="evenodd" clip-rule="evenodd" d="M206.395 47.54C207.139 46.82 207.511 45.728 207.511 44.264C207.511 42.776 207.103 41.408 206.287 40.16C204.727 37.808 202.279 36.632 198.943 36.632C196.015 36.632 193.567 37.544 191.599 39.368C189.655 41.168 188.683 43.58 188.683 46.604C188.683 49.004 189.439 51.176 190.951 53.12C191.719 54.128 192.787 54.944 194.155 55.568C195.547 56.168 197.131 56.468 198.907 56.468C204.019 56.468 206.575 55.4 206.575 53.264C206.575 52.808 206.419 52.256 206.107 51.608C205.555 50.528 204.895 49.988 204.127 49.988C203.743 49.988 203.263 50.12 202.687 50.384L202.291 50.528C201.499 50.816 200.407 50.96 199.015 50.96C198.223 50.96 197.431 50.732 196.639 50.276C195.847 49.82 195.451 49.256 195.451 48.584H203.983C204.871 48.584 205.675 48.236 206.395 47.54ZM201.283 44.156C201.283 44.924 200.827 45.308 199.915 45.308H195.379C195.379 44.588 195.763 43.916 196.531 43.292C197.299 42.644 198.067 42.32 198.835 42.32C199.627 42.32 200.227 42.488 200.635 42.824C201.067 43.16 201.283 43.604 201.283 44.156Z" fill="url(#paint4_linear)"/>
<path d="M253.742 32.06C253.742 31.1 252.938 30.332 251.33 29.756C250.682 29.516 250.118 29.396 249.638 29.396C249.158 29.396 248.75 29.528 248.414 29.792C248.102 30.032 247.886 30.284 247.766 30.548C247.646 30.812 247.49 31.22 247.298 31.772L243.338 43.868L239.198 31.376C239.054 30.992 238.718 30.608 238.19 30.224C237.662 29.816 237.086 29.612 236.462 29.612C235.862 29.612 235.37 29.696 234.986 29.864C234.098 30.248 233.486 30.944 233.15 31.952L229.226 43.796L225.266 31.772C225.026 30.98 224.75 30.392 224.438 30.008C224.15 29.624 223.718 29.432 223.142 29.432C222.59 29.432 221.966 29.552 221.27 29.792C219.662 30.344 218.858 31.1 218.858 32.06C218.858 32.444 218.99 33.032 219.254 33.824L226.202 53.804L226.454 54.344C226.622 54.704 226.946 55.064 227.426 55.424C227.93 55.784 228.566 55.964 229.334 55.964C230.102 55.964 230.762 55.688 231.314 55.136C231.53 54.92 231.722 54.68 231.89 54.416C232.058 54.152 232.166 53.948 232.214 53.804C232.262 53.66 233.618 49.652 236.282 41.78L240.494 54.2C240.662 54.584 240.998 54.98 241.502 55.388C242.03 55.772 242.642 55.964 243.338 55.964C244.058 55.964 244.67 55.772 245.174 55.388C245.702 54.98 246.026 54.656 246.146 54.416C246.266 54.176 246.35 53.972 246.398 53.804L253.31 33.824C253.598 32.96 253.742 32.372 253.742 32.06Z" fill="url(#paint5_linear)"/>
<path fill-rule="evenodd" clip-rule="evenodd" d="M268.743 37.028C266.991 37.028 266.043 37.7 265.899 39.044C265.731 38.804 265.515 38.564 265.251 38.324C264.987 38.06 264.519 37.784 263.847 37.496C263.175 37.208 262.431 37.064 261.615 37.064C259.479 37.064 257.511 38.012 255.711 39.908C253.935 41.78 253.047 43.976 253.047 46.496C253.047 48.992 253.935 51.188 255.711 53.084C257.487 54.98 259.407 55.928 261.471 55.928C263.559 55.928 265.047 55.292 265.935 54.02C266.007 54.644 266.259 55.124 266.691 55.46C267.147 55.772 268.023 55.928 269.319 55.928C270.639 55.928 271.467 55.616 271.803 54.992C271.971 54.632 272.067 54.32 272.091 54.056C272.139 53.768 272.163 53.348 272.163 52.796V40.196C272.163 39.644 272.139 39.236 272.091 38.972C272.067 38.684 271.959 38.36 271.767 38C271.599 37.64 271.287 37.388 270.831 37.244C270.375 37.1 269.679 37.028 268.743 37.028ZM260.283 48.692C259.659 48.044 259.347 47.324 259.347 46.532C259.347 45.74 259.635 45.008 260.211 44.336C260.811 43.664 261.579 43.328 262.515 43.328C263.475 43.328 264.231 43.664 264.783 44.336C265.359 45.008 265.647 45.74 265.647 46.532C265.647 47.3 265.347 48.008 264.747 48.656C264.171 49.304 263.439 49.628 262.551 49.628C261.663 49.628 260.907 49.316 260.283 48.692Z" fill="url(#paint6_linear)"/>
<path d="M283.817 50.24C283.433 49.832 282.845 49.628 282.053 49.628C281.837 49.628 281.729 49.256 281.729 48.512V31.232C281.729 30.68 281.705 30.272 281.657 30.008C281.633 29.72 281.525 29.408 281.333 29.072C280.973 28.4 280.061 28.064 278.597 28.064C277.061 28.064 276.125 28.376 275.789 29C275.621 29.36 275.513 29.684 275.465 29.972C275.441 30.236 275.429 30.644 275.429 31.196V48.368C275.429 51.08 275.921 53.024 276.905 54.2C277.889 55.352 279.593 55.928 282.017 55.928C282.785 55.928 283.373 55.724 283.781 55.316C284.189 54.884 284.393 54.032 284.393 52.76C284.393 51.488 284.201 50.648 283.817 50.24Z" fill="url(#paint7_linear)"/>
<path d="M291.737 49.412C291.545 49.268 291.449 48.968 291.449 48.512V31.232C291.449 30.32 291.317 29.6 291.053 29.072C290.693 28.4 289.781 28.064 288.317 28.064C286.805 28.064 285.869 28.376 285.509 29C285.317 29.36 285.197 29.684 285.149 29.972C285.125 30.236 285.113 30.644 285.113 31.196L285.149 48.368C285.149 53.408 287.693 55.928 292.781 55.928C293.789 55.928 294.569 55.724 295.121 55.316C295.697 54.884 295.985 54.032 295.985 52.76C295.985 51.488 295.721 50.648 295.193 50.24C294.665 49.832 294.005 49.628 293.213 49.628C292.421 49.628 291.929 49.556 291.737 49.412Z" fill="url(#paint8_linear)"/>
<path fill-rule="evenodd" clip-rule="evenodd" d="M315.532 47.54C316.276 46.82 316.648 45.728 316.648 44.264C316.648 42.776 316.24 41.408 315.424 40.16C313.864 37.808 311.416 36.632 308.08 36.632C305.152 36.632 302.704 37.544 300.736 39.368C298.792 41.168 297.82 43.58 297.82 46.604C297.82 49.004 298.576 51.176 300.088 53.12C300.856 54.128 301.924 54.944 303.292 55.568C304.684 56.168 306.268 56.468 308.044 56.468C313.156 56.468 315.712 55.4 315.712 53.264C315.712 52.808 315.556 52.256 315.244 51.608C314.692 50.528 314.032 49.988 313.264 49.988C312.88 49.988 312.4 50.12 311.824 50.384L311.428 50.528C310.636 50.816 309.544 50.96 308.152 50.96C307.36 50.96 306.568 50.732 305.776 50.276C304.984 49.82 304.588 49.256 304.588 48.584H313.12C314.008 48.584 314.812 48.236 315.532 47.54ZM310.42 44.156C310.42 44.924 309.964 45.308 309.052 45.308H304.516C304.516 44.588 304.9 43.916 305.668 43.292C306.436 42.644 307.204 42.32 307.972 42.32C308.764 42.32 309.364 42.488 309.772 42.824C310.204 43.16 310.42 43.604 310.42 44.156Z" fill="url(#paint9_linear)"/>
<path d="M327.717 43.256L330.057 43.4C330.609 43.4 331.017 43.388 331.281 43.364C331.569 43.316 331.893 43.208 332.253 43.04C332.901 42.704 333.225 41.78 333.225 40.268C333.225 38.732 332.913 37.808 332.289 37.496C331.929 37.304 331.605 37.196 331.317 37.172C331.053 37.124 330.645 37.1 330.093 37.1C329.565 37.1 328.773 37.148 327.717 37.244V33.716C327.717 32.876 327.657 32.264 327.537 31.88C327.225 30.992 326.253 30.548 324.621 30.548C323.085 30.548 322.161 30.848 321.849 31.448C321.657 31.76 321.537 32.048 321.489 32.312C321.465 32.576 321.453 32.984 321.453 33.536V37.244L320.265 37.1C319.689 37.1 319.209 37.256 318.825 37.568C318.609 37.76 318.441 38.084 318.321 38.54C318.201 38.972 318.141 39.68 318.141 40.664C318.141 41.648 318.309 42.344 318.645 42.752C319.005 43.16 319.449 43.364 319.977 43.364C320.505 43.364 320.997 43.328 321.453 43.256V48.584C321.453 51.272 322.101 53.18 323.397 54.308C324.693 55.436 326.589 56 329.085 56C329.613 56 330.009 55.988 330.273 55.964C330.561 55.916 330.885 55.808 331.245 55.64C331.917 55.304 332.253 54.38 332.253 52.868C332.253 51.572 331.977 50.768 331.425 50.456C331.089 50.264 330.765 50.156 330.453 50.132C330.165 50.084 329.733 50.06 329.157 50.06C328.605 50.06 328.221 49.916 328.005 49.628C327.813 49.34 327.717 48.872 327.717 48.224V43.256Z" fill="url(#paint10_linear)"/>
<g style="mix-blend-mode:multiply">
<path style="mix-blend-mode:multiply" d="M28.4799 20.0164C25.9905 21.472 23.7924 23.3668 22.0318 25.7012C22.6148 26.4337 23.052 27.0195 23.1974 27.3123C26.695 31.8531 31.8028 35.667 35.7443 38.1623C37.5047 35.8278 39.7033 33.7868 42.3392 32.1853C38.9815 30.1301 33.2886 26.461 29.9368 22.0668C29.5 21.3346 28.9166 20.7484 28.4799 20.0164Z" fill="url(#paint11_linear)" fill-opacity="0.6"/>
</g>
<defs>
<linearGradient id="paint0_linear" x1="14" y1="0" x2="334" y2="80" gradientUnits="userSpaceOnUse">
<stop offset="0.348958" stop-color="#BB76DB"/>
<stop offset="1" stop-color="#727CF5"/>
</linearGradient>
<linearGradient id="paint1_linear" x1="14" y1="0" x2="334" y2="80" gradientUnits="userSpaceOnUse">
<stop offset="0.348958" stop-color="#BB76DB"/>
<stop offset="1" stop-color="#727CF5"/>
</linearGradient>
<linearGradient id="paint2_linear" x1="14" y1="0" x2="334" y2="80" gradientUnits="userSpaceOnUse">
<stop offset="0.348958" stop-color="#BB76DB"/>
<stop offset="1" stop-color="#727CF5"/>
</linearGradient>
<linearGradient id="paint3_linear" x1="14" y1="0" x2="334" y2="80" gradientUnits="userSpaceOnUse">
<stop offset="0.348958" stop-color="#BB76DB"/>
<stop offset="1" stop-color="#727CF5"/>
</linearGradient>
<linearGradient id="paint4_linear" x1="14" y1="0" x2="334" y2="80" gradientUnits="userSpaceOnUse">
<stop offset="0.348958" stop-color="#BB76DB"/>
<stop offset="1" stop-color="#727CF5"/>
</linearGradient>
<linearGradient id="paint5_linear" x1="14" y1="0" x2="334" y2="80" gradientUnits="userSpaceOnUse">
<stop offset="0.348958" stop-color="#BB76DB"/>
<stop offset="1" stop-color="#727CF5"/>
</linearGradient>
<linearGradient id="paint6_linear" x1="14" y1="0" x2="334" y2="80" gradientUnits="userSpaceOnUse">
<stop offset="0.348958" stop-color="#BB76DB"/>
<stop offset="1" stop-color="#727CF5"/>
</linearGradient>
<linearGradient id="paint7_linear" x1="14" y1="0" x2="334" y2="80" gradientUnits="userSpaceOnUse">
<stop offset="0.348958" stop-color="#BB76DB"/>
<stop offset="1" stop-color="#727CF5"/>
</linearGradient>
<linearGradient id="paint8_linear" x1="14" y1="0" x2="334" y2="80" gradientUnits="userSpaceOnUse">
<stop offset="0.348958" stop-color="#BB76DB"/>
<stop offset="1" stop-color="#727CF5"/>
</linearGradient>
<linearGradient id="paint9_linear" x1="14" y1="0" x2="334" y2="80" gradientUnits="userSpaceOnUse">
<stop offset="0.348958" stop-color="#BB76DB"/>
<stop offset="1" stop-color="#727CF5"/>
</linearGradient>
<linearGradient id="paint10_linear" x1="14" y1="0" x2="334" y2="80" gradientUnits="userSpaceOnUse">
<stop offset="0.348958" stop-color="#BB76DB"/>
<stop offset="1" stop-color="#727CF5"/>
</linearGradient>
<linearGradient id="paint11_linear" x1="38.4621" y1="16.7509" x2="44.5532" y2="35.2515" gradientUnits="userSpaceOnUse">
<stop stop-opacity="0"/>
<stop offset="1" stop-opacity="0.3"/>
</linearGradient>
</defs>
</svg>
