<svg width="320" height="80" viewBox="0 0 320 80" fill="none" xmlns="http://www.w3.org/2000/svg">
<path fill-rule="evenodd" clip-rule="evenodd" d="M27.4406 74.2652C34.8488 79.4948 44.7264 80.5114 53.5872 77.8968C60.124 76.0086 66.0798 72.2318 70.4374 66.712C79.7342 54.8006 77.8456 38.3862 71.89 27.4918C63.1744 11.5132 43.8548 6.57442 33.5416 3.95974C31.201 3.29099 28.7749 2.87882 25.5413 2.32949C24.5606 2.16289 23.5057 1.98367 22.3564 1.78085L22.1373 1.74434C10.0937 -0.263092 5.05234 -1.1034 2.02022 2.3619C-4.66172 9.77014 7.24956 25.4582 8.70216 27.2014C12.1884 31.7042 17.4178 35.6262 21.3398 38.0958C21.267 38.1685 21.2307 38.2411 21.1943 38.3139C21.158 38.3864 21.1217 38.459 21.0492 38.5316C17.1272 44.1966 15.6746 51.0238 16.8366 57.7058C17.9988 64.533 21.7756 70.3432 27.4406 74.2652ZM27.8764 43.4704C29.6196 40.8558 32.0888 39.2578 34.8488 38.3862C38.4804 37.3696 42.5476 37.8054 45.8886 40.2746C50.2464 43.325 51.4084 49.1356 48.358 53.4932C46.179 56.5438 41.9666 57.1248 38.7708 55.091C36.7374 53.7838 33.9774 54.51 32.8152 56.689C31.6532 58.5772 32.5246 61.0468 34.4132 62.3542C41.2402 66.857 50.5368 65.114 55.1852 58.2868C60.8504 50.1522 58.8166 38.9674 50.6822 33.3022C43.7098 28.5086 34.7036 28.3634 27.7312 32.4306C24.3902 30.5422 18.725 26.6202 15.2388 22.2624C13.4957 19.9382 12.0431 17.6141 10.881 15.4353C9.28318 12.3848 11.8979 8.75332 15.2388 9.33436L20.904 10.2059C22.0755 10.4189 23.1342 10.6059 24.1055 10.7774C27.1088 11.3078 29.2771 11.6907 31.3626 12.2395C31.4468 12.2609 31.5314 12.2824 31.6166 12.304C41.3782 14.7799 57.5695 18.8868 64.4818 31.5592C67.6774 37.5146 71.7448 51.3144 63.7554 61.4826C56.202 71.0696 41.5308 73.8294 32.2342 67.4382C28.4574 64.8234 25.988 60.9014 25.1164 56.3984C24.245 51.8954 25.2618 47.247 27.8764 43.4704Z" fill="url(#paint0_linear)"/>
<path fill-rule="evenodd" clip-rule="evenodd" d="M116.189 29.612L109.529 29.576C107.993 29.576 107.057 29.9 106.721 30.548C106.529 30.908 106.409 31.22 106.361 31.484C106.337 31.748 106.325 32.168 106.325 32.744V52.76C106.325 53.792 106.469 54.56 106.757 55.064C107.117 55.664 108.029 55.964 109.493 55.964H116.081C119.753 55.964 122.873 54.656 125.441 52.04C128.033 49.424 129.329 46.292 129.329 42.644C129.329 38.972 128.009 35.888 125.369 33.392C122.729 30.872 119.669 29.612 116.189 29.612ZM120.869 47.684C119.477 48.956 117.917 49.592 116.189 49.592H112.697V35.984H116.153C117.977 35.984 119.561 36.644 120.905 37.964C122.273 39.26 122.957 40.88 122.957 42.824C122.957 44.768 122.261 46.388 120.869 47.684Z" fill="url(#paint1_linear)"/>
<path fill-rule="evenodd" clip-rule="evenodd" d="M134.552 39.404C132.536 41.276 131.528 43.652 131.528 46.532C131.528 48.452 132.032 50.18 133.04 51.716C134.072 53.228 135.332 54.38 136.82 55.172C138.308 55.94 139.844 56.324 141.428 56.324C143.012 56.324 144.536 55.964 146 55.244C147.488 54.5 148.748 53.36 149.78 51.824C150.812 50.264 151.328 48.488 151.328 46.496C151.328 43.616 150.332 41.252 148.34 39.404C146.348 37.532 144.056 36.596 141.464 36.596C138.872 36.596 136.568 37.532 134.552 39.404ZM141.392 49.988C140.6 49.988 139.82 49.7 139.052 49.124C138.284 48.524 137.9 47.648 137.9 46.496C137.9 45.32 138.272 44.432 139.016 43.832C139.76 43.232 140.564 42.932 141.428 42.932C142.292 42.932 143.096 43.22 143.84 43.796C144.584 44.372 144.956 45.248 144.956 46.424C144.956 47.6 144.56 48.488 143.768 49.088C142.976 49.688 142.184 49.988 141.392 49.988Z" fill="url(#paint2_linear)"/>
<path d="M173.228 41.816C173.708 40.976 173.948 40.316 173.948 39.836C173.948 38.996 173.324 38.204 172.076 37.46C171.236 36.956 170.576 36.704 170.096 36.704C169.616 36.704 169.232 36.812 168.944 37.028C168.656 37.22 168.44 37.424 168.296 37.64C168.176 37.832 167.984 38.156 167.72 38.612L163.004 47.684L158.288 38.612C157.952 37.964 157.628 37.484 157.316 37.172C157.028 36.836 156.62 36.668 156.092 36.668C155.564 36.668 154.844 36.932 153.932 37.46C152.684 38.204 152.06 39.008 152.06 39.872C152.06 40.376 152.3 41.024 152.78 41.816L160.268 54.632L160.592 55.028C160.784 55.292 161.108 55.556 161.564 55.82C162.044 56.06 162.536 56.18 163.04 56.18C163.568 56.18 164.096 56.024 164.624 55.712C165.152 55.376 165.536 55.004 165.776 54.596L173.228 41.816Z" fill="url(#paint3_linear)"/>
<path fill-rule="evenodd" clip-rule="evenodd" d="M192.395 47.54C193.139 46.82 193.511 45.728 193.511 44.264C193.511 42.776 193.103 41.408 192.287 40.16C190.727 37.808 188.279 36.632 184.943 36.632C182.015 36.632 179.567 37.544 177.599 39.368C175.655 41.168 174.683 43.58 174.683 46.604C174.683 49.004 175.439 51.176 176.951 53.12C177.719 54.128 178.787 54.944 180.155 55.568C181.547 56.168 183.131 56.468 184.907 56.468C190.019 56.468 192.575 55.4 192.575 53.264C192.575 52.808 192.419 52.256 192.107 51.608C191.555 50.528 190.895 49.988 190.127 49.988C189.743 49.988 189.263 50.12 188.687 50.384L188.291 50.528C187.499 50.816 186.407 50.96 185.015 50.96C184.223 50.96 183.431 50.732 182.639 50.276C181.847 49.82 181.451 49.256 181.451 48.584H189.983C190.871 48.584 191.675 48.236 192.395 47.54ZM187.283 44.156C187.283 44.924 186.827 45.308 185.915 45.308H181.379C181.379 44.588 181.763 43.916 182.531 43.292C183.299 42.644 184.067 42.32 184.835 42.32C185.627 42.32 186.227 42.488 186.635 42.824C187.067 43.16 187.283 43.604 187.283 44.156Z" fill="url(#paint4_linear)"/>
<path d="M239.742 32.06C239.742 31.1 238.938 30.332 237.33 29.756C236.682 29.516 236.118 29.396 235.638 29.396C235.158 29.396 234.75 29.528 234.414 29.792C234.102 30.032 233.886 30.284 233.766 30.548C233.646 30.812 233.49 31.22 233.298 31.772L229.338 43.868L225.198 31.376C225.054 30.992 224.718 30.608 224.19 30.224C223.662 29.816 223.086 29.612 222.462 29.612C221.862 29.612 221.37 29.696 220.986 29.864C220.098 30.248 219.486 30.944 219.15 31.952L215.226 43.796L211.266 31.772C211.026 30.98 210.75 30.392 210.438 30.008C210.15 29.624 209.718 29.432 209.142 29.432C208.59 29.432 207.966 29.552 207.27 29.792C205.662 30.344 204.858 31.1 204.858 32.06C204.858 32.444 204.99 33.032 205.254 33.824L212.202 53.804L212.454 54.344C212.622 54.704 212.946 55.064 213.426 55.424C213.93 55.784 214.566 55.964 215.334 55.964C216.102 55.964 216.762 55.688 217.314 55.136C217.53 54.92 217.722 54.68 217.89 54.416C218.058 54.152 218.166 53.948 218.214 53.804C218.262 53.66 219.618 49.652 222.282 41.78L226.494 54.2C226.662 54.584 226.998 54.98 227.502 55.388C228.03 55.772 228.642 55.964 229.338 55.964C230.058 55.964 230.67 55.772 231.174 55.388C231.702 54.98 232.026 54.656 232.146 54.416C232.266 54.176 232.35 53.972 232.398 53.804L239.31 33.824C239.598 32.96 239.742 32.372 239.742 32.06Z" fill="url(#paint5_linear)"/>
<path fill-rule="evenodd" clip-rule="evenodd" d="M254.743 37.028C252.991 37.028 252.043 37.7 251.899 39.044C251.731 38.804 251.515 38.564 251.251 38.324C250.987 38.06 250.519 37.784 249.847 37.496C249.175 37.208 248.431 37.064 247.615 37.064C245.479 37.064 243.511 38.012 241.711 39.908C239.935 41.78 239.047 43.976 239.047 46.496C239.047 48.992 239.935 51.188 241.711 53.084C243.487 54.98 245.407 55.928 247.471 55.928C249.559 55.928 251.047 55.292 251.935 54.02C252.007 54.644 252.259 55.124 252.691 55.46C253.147 55.772 254.023 55.928 255.319 55.928C256.639 55.928 257.467 55.616 257.803 54.992C257.971 54.632 258.067 54.32 258.091 54.056C258.139 53.768 258.163 53.348 258.163 52.796V40.196C258.163 39.644 258.139 39.236 258.091 38.972C258.067 38.684 257.959 38.36 257.767 38C257.599 37.64 257.287 37.388 256.831 37.244C256.375 37.1 255.679 37.028 254.743 37.028ZM246.283 48.692C245.659 48.044 245.347 47.324 245.347 46.532C245.347 45.74 245.635 45.008 246.211 44.336C246.811 43.664 247.579 43.328 248.515 43.328C249.475 43.328 250.231 43.664 250.783 44.336C251.359 45.008 251.647 45.74 251.647 46.532C251.647 47.3 251.347 48.008 250.747 48.656C250.171 49.304 249.439 49.628 248.551 49.628C247.663 49.628 246.907 49.316 246.283 48.692Z" fill="url(#paint6_linear)"/>
<path d="M269.817 50.24C269.433 49.832 268.845 49.628 268.053 49.628C267.837 49.628 267.729 49.256 267.729 48.512V31.232C267.729 30.68 267.705 30.272 267.657 30.008C267.633 29.72 267.525 29.408 267.333 29.072C266.973 28.4 266.061 28.064 264.597 28.064C263.061 28.064 262.125 28.376 261.789 29C261.621 29.36 261.513 29.684 261.465 29.972C261.441 30.236 261.429 30.644 261.429 31.196V48.368C261.429 51.08 261.921 53.024 262.905 54.2C263.889 55.352 265.593 55.928 268.017 55.928C268.785 55.928 269.373 55.724 269.781 55.316C270.189 54.884 270.393 54.032 270.393 52.76C270.393 51.488 270.201 50.648 269.817 50.24Z" fill="url(#paint7_linear)"/>
<path d="M277.737 49.412C277.545 49.268 277.449 48.968 277.449 48.512V31.232C277.449 30.32 277.317 29.6 277.053 29.072C276.693 28.4 275.781 28.064 274.317 28.064C272.805 28.064 271.869 28.376 271.509 29C271.317 29.36 271.197 29.684 271.149 29.972C271.125 30.236 271.113 30.644 271.113 31.196L271.149 48.368C271.149 53.408 273.693 55.928 278.781 55.928C279.789 55.928 280.569 55.724 281.121 55.316C281.697 54.884 281.985 54.032 281.985 52.76C281.985 51.488 281.721 50.648 281.193 50.24C280.665 49.832 280.005 49.628 279.213 49.628C278.421 49.628 277.929 49.556 277.737 49.412Z" fill="url(#paint8_linear)"/>
<path fill-rule="evenodd" clip-rule="evenodd" d="M301.532 47.54C302.276 46.82 302.648 45.728 302.648 44.264C302.648 42.776 302.24 41.408 301.424 40.16C299.864 37.808 297.416 36.632 294.08 36.632C291.152 36.632 288.704 37.544 286.736 39.368C284.792 41.168 283.82 43.58 283.82 46.604C283.82 49.004 284.576 51.176 286.088 53.12C286.856 54.128 287.924 54.944 289.292 55.568C290.684 56.168 292.268 56.468 294.044 56.468C299.156 56.468 301.712 55.4 301.712 53.264C301.712 52.808 301.556 52.256 301.244 51.608C300.692 50.528 300.032 49.988 299.264 49.988C298.88 49.988 298.4 50.12 297.824 50.384L297.428 50.528C296.636 50.816 295.544 50.96 294.152 50.96C293.36 50.96 292.568 50.732 291.776 50.276C290.984 49.82 290.588 49.256 290.588 48.584H299.12C300.008 48.584 300.812 48.236 301.532 47.54ZM296.42 44.156C296.42 44.924 295.964 45.308 295.052 45.308H290.516C290.516 44.588 290.9 43.916 291.668 43.292C292.436 42.644 293.204 42.32 293.972 42.32C294.764 42.32 295.364 42.488 295.772 42.824C296.204 43.16 296.42 43.604 296.42 44.156Z" fill="url(#paint9_linear)"/>
<path d="M313.717 43.256L316.057 43.4C316.609 43.4 317.017 43.388 317.281 43.364C317.569 43.316 317.893 43.208 318.253 43.04C318.901 42.704 319.225 41.78 319.225 40.268C319.225 38.732 318.913 37.808 318.289 37.496C317.929 37.304 317.605 37.196 317.317 37.172C317.053 37.124 316.645 37.1 316.093 37.1C315.565 37.1 314.773 37.148 313.717 37.244V33.716C313.717 32.876 313.657 32.264 313.537 31.88C313.225 30.992 312.253 30.548 310.621 30.548C309.085 30.548 308.161 30.848 307.849 31.448C307.657 31.76 307.537 32.048 307.489 32.312C307.465 32.576 307.453 32.984 307.453 33.536V37.244L306.265 37.1C305.689 37.1 305.209 37.256 304.825 37.568C304.609 37.76 304.441 38.084 304.321 38.54C304.201 38.972 304.141 39.68 304.141 40.664C304.141 41.648 304.309 42.344 304.645 42.752C305.005 43.16 305.449 43.364 305.977 43.364C306.505 43.364 306.997 43.328 307.453 43.256V48.584C307.453 51.272 308.101 53.18 309.397 54.308C310.693 55.436 312.589 56 315.085 56C315.613 56 316.009 55.988 316.273 55.964C316.561 55.916 316.885 55.808 317.245 55.64C317.917 55.304 318.253 54.38 318.253 52.868C318.253 51.572 317.977 50.768 317.425 50.456C317.089 50.264 316.765 50.156 316.453 50.132C316.165 50.084 315.733 50.06 315.157 50.06C314.605 50.06 314.221 49.916 314.005 49.628C313.813 49.34 313.717 48.872 313.717 48.224V43.256Z" fill="url(#paint10_linear)"/>
<defs>
<linearGradient id="paint0_linear" x1="0" y1="0" x2="320" y2="80" gradientUnits="userSpaceOnUse">
<stop offset="0.348958" stop-color="#BB76DB"/>
<stop offset="1" stop-color="#727CF5"/>
</linearGradient>
<linearGradient id="paint1_linear" x1="0" y1="0" x2="320" y2="80" gradientUnits="userSpaceOnUse">
<stop offset="0.348958" stop-color="#BB76DB"/>
<stop offset="1" stop-color="#727CF5"/>
</linearGradient>
<linearGradient id="paint2_linear" x1="0" y1="0" x2="320" y2="80" gradientUnits="userSpaceOnUse">
<stop offset="0.348958" stop-color="#BB76DB"/>
<stop offset="1" stop-color="#727CF5"/>
</linearGradient>
<linearGradient id="paint3_linear" x1="0" y1="0" x2="320" y2="80" gradientUnits="userSpaceOnUse">
<stop offset="0.348958" stop-color="#BB76DB"/>
<stop offset="1" stop-color="#727CF5"/>
</linearGradient>
<linearGradient id="paint4_linear" x1="0" y1="0" x2="320" y2="80" gradientUnits="userSpaceOnUse">
<stop offset="0.348958" stop-color="#BB76DB"/>
<stop offset="1" stop-color="#727CF5"/>
</linearGradient>
<linearGradient id="paint5_linear" x1="0" y1="0" x2="320" y2="80" gradientUnits="userSpaceOnUse">
<stop offset="0.348958" stop-color="#BB76DB"/>
<stop offset="1" stop-color="#727CF5"/>
</linearGradient>
<linearGradient id="paint6_linear" x1="0" y1="0" x2="320" y2="80" gradientUnits="userSpaceOnUse">
<stop offset="0.348958" stop-color="#BB76DB"/>
<stop offset="1" stop-color="#727CF5"/>
</linearGradient>
<linearGradient id="paint7_linear" x1="0" y1="0" x2="320" y2="80" gradientUnits="userSpaceOnUse">
<stop offset="0.348958" stop-color="#BB76DB"/>
<stop offset="1" stop-color="#727CF5"/>
</linearGradient>
<linearGradient id="paint8_linear" x1="0" y1="0" x2="320" y2="80" gradientUnits="userSpaceOnUse">
<stop offset="0.348958" stop-color="#BB76DB"/>
<stop offset="1" stop-color="#727CF5"/>
</linearGradient>
<linearGradient id="paint9_linear" x1="0" y1="0" x2="320" y2="80" gradientUnits="userSpaceOnUse">
<stop offset="0.348958" stop-color="#BB76DB"/>
<stop offset="1" stop-color="#727CF5"/>
</linearGradient>
<linearGradient id="paint10_linear" x1="0" y1="0" x2="320" y2="80" gradientUnits="userSpaceOnUse">
<stop offset="0.348958" stop-color="#BB76DB"/>
<stop offset="1" stop-color="#727CF5"/>
</linearGradient>
</defs>
</svg>
