<svg width="3181" height="1627" viewBox="0 0 3181 1627" fill="none" xmlns="http://www.w3.org/2000/svg">
<path d="M1379.04 333.277C1380.41 331.921 1384.79 327.915 1386.14 327.926C1387.49 327.94 1389.07 326.901 1390.05 327.384C1391.04 327.867 1393.43 328.098 1394.93 324.853C1396.43 321.607 1398.12 320.045 1398.85 320.474C1399.57 320.903 1398.6 315.216 1402.57 318.246C1406.54 321.276 1405.82 317.013 1406.56 316.073C1407.3 315.133 1406.61 311.974 1406.57 310.87C1406.53 309.765 1406.15 307.764 1405.44 305.972C1404.73 304.18 1404.34 302.177 1402.41 302.315C1400.48 302.452 1394.88 300.722 1394.88 300.722C1394.88 300.722 1392.97 299.495 1391.67 299.221C1390.37 298.946 1390 299.415 1389.22 299.251C1388.44 299.086 1386.33 301.381 1386.53 301.697C1386.74 302.017 1387.35 302.967 1385.46 304.212C1383.57 305.457 1381.64 305.596 1380.99 307.377C1380.34 309.159 1381.12 309.323 1380.12 310.209C1379.12 311.096 1377.36 310.445 1377.65 311.606C1377.95 312.766 1376.97 312.283 1377.56 314.603C1378.16 316.923 1379.29 317.983 1377.7 320.387C1376.1 322.791 1374.95 323.095 1374.88 324.723C1374.81 326.352 1373.14 326.548 1374.57 328.77C1375.99 330.988 1376.66 331.679 1377.85 332.481L1379.04 333.277Z" fill="#DBDBDB"/>
<path d="M2019.49 1134.94C2016.74 1145 2006.69 1159.62 2006.69 1159.62L1988.4 1168.76C1988.4 1168.76 1982.02 1174.24 1978.35 1175.16C1974.7 1176.07 1965.56 1180.64 1965.56 1180.64C1965.56 1180.64 1957.33 1178.81 1960.07 1187.04C1962.81 1195.26 1963.73 1205.32 1962.81 1208.06C1961.9 1210.8 1961.9 1216.29 1961.9 1223.6C1961.9 1230.92 1959.16 1240.05 1954.59 1241.88C1950.02 1243.7 1945.45 1245.54 1946.36 1251.94C1947.28 1258.34 1947.28 1277.53 1947.28 1277.53L1959.17 1295.81C1959.17 1295.81 1962.82 1293.07 1970.13 1293.07C1977.45 1293.07 1984.76 1286.68 1984.76 1286.68C1984.76 1286.68 1992.99 1288.5 1992.07 1278.45C1991.15 1268.39 1995.73 1256.51 1994.81 1253.77C1993.9 1251.03 2003.04 1239.14 2003.04 1236.4C2003.04 1233.66 2012.18 1220.87 2012.18 1216.29C2012.18 1211.72 2018.58 1204.41 2019.49 1198.93C2020.4 1193.46 2021.32 1180.65 2023.14 1177C2024.97 1173.34 2025.89 1169.68 2025.89 1166.03C2025.89 1162.37 2025.89 1155.06 2025.89 1155.06L2019.49 1134.94Z" fill="#DBDBDB"/>
<path d="M2735.17 1258.34C2732.43 1261.99 2730.6 1301.3 2728.77 1305.87C2726.94 1310.43 2723.28 1334.2 2725.12 1339.68C2726.96 1345.16 2729.68 1365.28 2727.86 1371.68C2726.04 1378.08 2728.77 1398.18 2724.2 1397.27C2719.63 1396.35 2717.81 1398.19 2717.81 1400.92C2717.81 1403.67 2724.2 1409.15 2724.2 1409.15C2724.2 1409.15 2735.17 1409.15 2739.74 1408.23C2744.31 1407.32 2753.45 1402.75 2760.77 1402.75C2768.08 1402.75 2772.65 1397.26 2779.04 1397.26C2785.44 1397.26 2799.16 1392.7 2802.81 1394.52C2806.47 1396.34 2811.95 1383.55 2818.35 1386.3C2824.75 1389.04 2838.46 1379.9 2844.86 1379.9C2851.25 1379.9 2854 1369.84 2861.31 1371.67C2868.63 1373.51 2882.34 1368.02 2888.74 1370.75C2895.12 1373.5 2905.19 1361.61 2909.76 1370.75C2914.32 1379.89 2928.04 1383.55 2928.04 1388.12C2928.04 1392.69 2927.12 1402.75 2927.12 1402.75L2938.09 1401.83C2938.09 1401.83 2955.45 1390.86 2958.2 1390.86C2960.95 1390.86 2967.34 1381.72 2967.34 1386.3C2967.34 1390.86 2961.85 1400.92 2960.02 1405.49C2958.2 1410.06 2961.85 1415.55 2961.85 1415.55C2961.85 1415.55 2971 1420.12 2967.34 1428.34C2963.68 1436.57 2968.25 1434.74 2967.34 1441.13C2966.42 1447.53 2967.34 1444.79 2970.98 1448.44C2974.63 1452.1 2981.05 1458.51 2986.53 1457.59C2992.01 1456.67 2993.84 1451.19 2998.41 1453.93C3002.98 1456.68 3012.12 1454.85 3014.86 1458.51C3017.61 1462.16 2997.5 1471.3 3032.23 1455.77C3066.96 1440.23 3070.61 1436.57 3075.18 1431.08C3079.75 1425.59 3085.25 1420.12 3088.9 1416.46C3092.54 1412.8 3089.82 1413.72 3100.78 1405.49C3111.75 1397.26 3111.75 1400.92 3121.81 1385.38C3131.87 1369.84 3139.17 1364.36 3141 1361.61C3142.84 1358.87 3146.49 1357.96 3147.4 1346.98C3148.31 1336.02 3155.62 1325.96 3155.62 1322.31C3155.62 1318.65 3158.36 1313.18 3157.45 1306.77C3156.54 1300.37 3161.11 1291.24 3155.62 1282.1C3150.14 1272.96 3158.36 1269.31 3150.14 1265.64C3141.91 1261.97 3136.43 1263.81 3134.6 1257.41C3132.77 1251.01 3125.46 1251.93 3122.71 1234.56C3119.97 1217.2 3109.01 1215.36 3109.01 1215.36C3109.01 1215.36 3098.04 1210.8 3100.78 1208.97C3103.52 1207.15 3104.44 1194.34 3103.53 1190.69C3102.61 1187.03 3102.61 1178.8 3099.87 1173.33C3097.13 1167.84 3095.3 1160.53 3092.56 1154.13C3089.82 1147.72 3085.25 1145.9 3083.42 1138.59C3081.59 1131.28 3078.85 1128.53 3077.94 1126.71C3077.01 1124.88 3075.18 1115.74 3073.36 1125.79C3071.54 1135.84 3067.87 1155.04 3067.87 1155.04C3067.87 1155.04 3060.56 1170.58 3057.82 1175.15C3055.08 1179.71 3052.34 1191.6 3047.77 1190.68C3043.2 1189.76 3040.45 1195.26 3036.8 1194.34C3033.15 1193.41 3027.66 1195.25 3024.92 1192.51C3022.18 1189.77 3014.86 1182.46 3011.2 1181.54C3007.55 1180.63 3004.81 1173.32 3002.06 1173.32C2999.32 1173.32 2994.75 1166.92 2995.67 1163.26C2996.58 1159.61 2997.49 1151.38 2998.41 1147.73C2999.32 1144.07 3004.81 1135.84 3004.81 1135.84C3004.81 1135.84 3004.81 1130.36 3000.24 1130.36C2995.66 1130.36 2994.75 1130.36 2984.69 1129.44C2974.64 1128.52 2971.91 1127.61 2968.24 1127.61C2964.57 1127.61 2971.9 1125.78 2961.84 1128.53C2951.78 1131.27 2947.22 1138.58 2940.82 1144.98C2934.43 1151.38 2939.91 1149.55 2934.43 1151.38C2928.95 1153.21 2929.86 1146.81 2926.2 1156.87C2922.54 1166.93 2928.03 1169.66 2925.28 1171.49C2922.53 1173.32 2903.35 1165.09 2903.35 1165.09C2903.35 1165.09 2907.92 1164.18 2904.26 1159.61C2900.6 1155.04 2896.95 1148.64 2891.47 1151.38C2885.99 1154.13 2881.41 1155.96 2877.76 1160.53C2874.11 1165.09 2874.1 1168.75 2871.36 1172.4C2868.62 1176.06 2861.31 1176.06 2860.39 1179.72C2859.47 1183.38 2859.48 1192.51 2856.74 1193.43C2854 1194.34 2853.09 1189.78 2850.34 1188.86C2847.6 1187.95 2848.51 1180.64 2846.69 1185.21C2844.87 1189.78 2843.04 1188.86 2840.29 1196.17C2837.54 1203.49 2836.64 1209.89 2833.89 1210.8C2831.15 1211.71 2833.89 1212.63 2825.66 1217.2C2817.44 1221.77 2815.61 1221.77 2803.73 1227.25C2791.86 1232.74 2794.6 1232.74 2786.37 1233.65C2778.15 1234.57 2776.31 1237.31 2770.83 1238.22C2765.34 1239.14 2761.69 1240.05 2756.2 1245.53C2750.71 1251.02 2746.15 1252.84 2742.5 1253.76C2738.84 1254.68 2735.17 1258.34 2735.17 1258.34V1258.34Z" fill="#DBDBDB"/>
<path d="M2789.09 897.289C2785.44 902.779 2773.56 919.226 2768.99 920.144C2764.42 921.054 2759.84 925.63 2756.19 924.712C2752.53 923.795 2744.31 924.712 2741.57 936.595C2738.82 948.477 2734.25 954.877 2731.5 953.959C2728.75 953.041 2736.07 971.324 2720.54 964.018C2705.01 956.712 2710.49 970.418 2708.66 974.077C2706.82 977.736 2711.4 987.787 2712.31 991.441C2713.23 995.096 2715.97 1001.5 2719.62 1006.97C2723.28 1012.45 2726.02 1018.86 2732.42 1017.04C2738.82 1015.22 2758.92 1017.04 2758.92 1017.04C2758.92 1017.04 2766.24 1019.78 2770.81 1019.78C2775.38 1019.78 2776.29 1017.95 2779.03 1017.95C2781.77 1017.95 2787.25 1008.81 2786.34 1007.9C2785.43 1006.97 2782.69 1004.24 2788.17 998.751C2793.65 993.265 2800.05 991.441 2800.97 985.041C2801.89 978.641 2799.14 978.645 2801.89 974.982C2804.63 971.319 2811.02 972.249 2809.2 968.587C2807.38 964.924 2811.02 965.845 2807.37 958.528C2803.71 951.21 2799.14 948.473 2802.8 939.332C2806.45 930.191 2810.12 928.363 2809.2 922.881C2808.28 917.399 2813.77 915.567 2807.37 909.167C2800.98 902.775 2798.23 900.944 2793.66 899.108L2789.09 897.289V897.289Z" fill="#DBDBDB"/>
<path d="M2968.24 988.696C2971.9 987.782 2984.69 978.641 2985.61 995.096C2986.53 1011.55 2987.43 1006.97 2992.92 1016.11C2998.42 1025.26 3002.05 1028.01 3008.45 1023.43C3014.85 1018.86 3022.16 1018.86 3023.99 1010.64C3025.82 1002.41 3025.82 1002.41 3031.3 1002.41C3036.79 1002.41 3038.62 1001.5 3041.37 1005.16C3044.11 1008.81 3045.93 1005.15 3057.82 1011.55C3069.71 1017.95 3079.75 1016.11 3087.07 1022.52C3094.39 1028.92 3098.04 1028.01 3108.09 1031.66C3118.14 1035.31 3113.57 1029.83 3122.71 1039.89C3131.85 1049.94 3128.21 1052.68 3132.77 1057.25C3137.34 1061.82 3141 1053.59 3139.17 1064.56C3137.34 1075.53 3124.55 1064.56 3143.74 1080.09C3162.94 1095.63 3165.68 1098.38 3172.07 1102.95C3178.47 1107.52 3183.04 1113.01 3177.56 1113.01C3172.09 1113.01 3154.71 1113.01 3152.89 1110.26C3151.06 1107.52 3142.83 1105.69 3137.34 1099.29C3131.86 1092.9 3119.98 1088.33 3117.24 1082.84C3114.49 1077.35 3110.84 1075.53 3106.27 1075.53C3101.7 1075.53 3097.13 1081.01 3090.73 1087.41C3084.33 1093.81 3087.08 1083.76 3078.85 1086.5C3070.62 1089.24 3061.49 1085.58 3056.91 1081.93C3052.34 1078.27 3053.26 1072.79 3045.95 1075.53C3038.64 1078.27 3034.07 1076.44 3036.81 1070.96C3039.55 1065.48 3037.72 1058.16 3037.72 1058.16C3037.72 1058.16 3040.47 1049.02 3034.07 1047.2C3027.68 1045.37 3027.67 1038.97 3021.27 1037.14C3014.87 1035.3 3004.82 1030.74 3004.82 1030.74C3004.82 1030.74 3003.91 1030.74 3001.16 1029.83C2998.42 1028.91 2998.42 1028.91 2991.11 1027.09C2983.8 1025.26 2978.31 1027.08 2974.66 1022.51C2971 1017.95 2972.83 1011.55 2972.83 1011.55C2972.83 1011.55 2987.45 1013.37 2972.83 1002.41L2958.2 991.441C2958.2 991.441 2960.02 990.523 2959.11 988.696C2958.19 986.86 2968.24 988.696 2968.24 988.696Z" fill="#DBDBDB"/>
<path d="M2556.92 912.81C2556.92 912.81 2561.49 917.386 2568.8 916.468C2576.12 915.551 2581.59 931.092 2586.17 936.574C2590.73 942.06 2593.48 944.801 2603.53 951.201C2613.59 957.597 2612.67 945.715 2626.38 964.911C2640.1 984.107 2633.69 972.225 2640.09 984.103C2646.49 995.997 2650.15 1002.39 2653.8 1005.14C2657.46 1007.89 2660.2 1015.19 2661.12 1017.93C2662.03 1020.67 2668.43 1028.89 2668.43 1031.64C2668.43 1034.39 2670.26 1041.69 2664.78 1048.09C2659.29 1054.49 2654.72 1055.4 2654.72 1055.4C2654.72 1055.4 2643.75 1049.92 2640.09 1044.44C2636.44 1038.95 2631.87 1034.38 2625.47 1023.42C2619.06 1012.45 2611.76 1000.56 2608.1 995.08C2604.45 989.597 2598.96 984.103 2596.22 978.625C2593.48 973.147 2586.17 956.688 2582.51 954.856C2578.86 953.025 2577.94 947.547 2571.54 941.147C2565.15 934.747 2566.06 929.264 2563.32 925.61C2560.57 921.955 2554.18 913.719 2554.18 913.719L2556.92 912.81Z" fill="#DBDBDB"/>
<path d="M2960.82 462.271C2961.91 461.197 2965.11 457.604 2966.44 458.033C2967.52 458.044 2968.77 457.222 2969.54 457.604C2970.32 457.987 2969.86 457.169 2973.41 455.6C2974.59 453.03 2976.51 453.299 2976.51 452.132C2977.08 452.472 2976.89 452.526 2979.46 450.368C2982.89 447.483 2982.03 449.392 2982.61 448.648C2983.2 447.903 2982.66 445.401 2982.63 444.527C2982.59 443.653 2983.19 443.642 2982.63 442.222C2982.07 440.803 2980.88 439.038 2979.36 439.146C2977.83 439.255 2973.37 436.492 2973.37 436.492C2973.37 436.492 2971.85 435.52 2970.82 435.303C2969.8 435.085 2970.16 434.731 2969.54 434.601C2968.93 434.47 2966.6 437.014 2966.76 437.264C2966.92 437.517 2967.4 438.269 2965.91 439.255C2964.41 440.241 2962.88 440.351 2962.37 441.762C2961.85 443.173 2961.62 442.609 2960.82 443.311C2960.03 444.013 2959.49 444.191 2959.72 445.11C2959.96 446.029 2959.18 445.646 2959.65 447.483C2960.12 449.32 2961.02 450.16 2959.76 452.063C2958.5 453.967 2957.58 454.208 2957.53 455.497C2957.47 456.787 2956.15 456.942 2957.28 458.701C2958.41 460.458 2958.94 461.005 2959.88 461.64L2960.82 462.271Z" fill="#DBDBDB"/>
<path d="M1408 533.505L1394.29 551.783L1385.15 560.924L1366.87 570.975L1364.13 579.202C1364.13 579.202 1356.81 586.516 1357.73 591.088C1358.65 595.661 1358.65 603.884 1358.65 603.884C1358.65 603.884 1345.85 615.767 1340.37 619.421C1334.88 623.076 1327.57 631.304 1327.57 631.304C1327.57 631.304 1323 636.79 1320.26 638.617C1317.52 640.445 1312.95 645.927 1309.29 651.413C1305.63 656.9 1301.98 660.55 1300.15 663.291C1298.32 666.033 1292.84 672.433 1290.09 682.487C1287.35 692.542 1280.04 704.424 1280.04 704.424L1278.21 708.993C1279.13 724.534 1279.12 727.275 1280.95 732.761C1282.79 738.248 1284.61 736.412 1282.78 748.299C1280.95 760.177 1280.95 764.749 1279.13 770.236C1277.3 775.722 1271.81 785.769 1269.99 790.345C1268.17 794.922 1273.64 803.137 1273.64 803.137C1273.64 803.137 1276.39 815.023 1274.56 817.764C1272.73 820.51 1275.47 825.992 1275.47 825.992C1275.47 825.992 1286.44 832.388 1290.1 836.047C1293.76 839.706 1300.15 845.188 1301.07 847.929C1301.98 850.67 1309.29 863.47 1310.21 866.211C1311.12 868.952 1318.44 879.003 1320.26 881.748C1322.09 884.493 1331.23 894.548 1331.23 894.548C1331.23 894.548 1343.11 903.681 1345.86 907.34C1348.6 910.999 1356.83 912.822 1359.56 915.563C1362.31 918.305 1368.7 917.387 1372.36 920.136C1376.01 922.885 1383.33 918.305 1386.99 920.136C1390.65 921.967 1400.7 918.309 1403.44 916.481C1406.18 914.654 1412.58 908.258 1417.15 910.995C1421.72 913.732 1424.46 910.995 1428.12 911.909C1431.78 912.822 1437.26 908.258 1440.91 908.258C1444.57 908.258 1453.71 904.599 1456.45 904.599C1459.19 904.599 1468.33 899.109 1471.99 899.109C1475.65 899.109 1480.22 895.462 1484.78 897.285C1489.35 899.109 1487.53 893.634 1495.75 896.372C1503.98 899.109 1506.72 896.372 1509.46 899.109C1512.21 901.854 1515.87 899.117 1518.61 902.772C1521.35 906.422 1525.92 909.163 1526.83 912.822C1527.74 916.481 1533.23 920.14 1533.23 920.14L1538.71 921.05C1538.71 921.05 1546.03 915.567 1547.85 919.226C1549.68 922.885 1557.91 921.972 1557.91 921.972L1566.13 931.109L1568.88 934.763C1568.88 934.763 1574.36 949.391 1573.44 954.873C1572.53 960.355 1572.53 972.238 1569.79 974.979C1567.05 977.724 1565.22 989.606 1565.22 989.606C1565.22 989.606 1561.56 993.261 1569.79 1000.57C1578.02 1007.89 1583.5 1014.28 1586.24 1017.93C1588.99 1021.59 1596.3 1031.65 1597.21 1038.05C1598.13 1044.44 1599.95 1048.1 1603.61 1056.33C1607.27 1064.55 1611.84 1065.47 1612.75 1074.61C1613.66 1083.76 1615.49 1083.75 1614.58 1090.15C1613.66 1096.55 1610.92 1097.46 1613.66 1102.03C1616.4 1106.6 1620.06 1114.83 1619.15 1117.57C1618.24 1120.31 1616.4 1132.19 1616.4 1132.19L1614.58 1137.68L1606.35 1153.22L1600.87 1161.44C1599.04 1167.84 1595.39 1174.24 1596.3 1183.38C1597.21 1192.52 1591.73 1192.52 1599.04 1201.65C1606.35 1210.79 1610 1220.85 1614.58 1229.08C1619.15 1237.31 1621.89 1245.53 1622.8 1251.01C1623.72 1256.5 1627.37 1258.33 1629.2 1265.64C1631.03 1272.95 1631.94 1276.61 1631.94 1281.18C1631.94 1285.75 1631.02 1297.63 1632.86 1300.38C1634.69 1303.12 1635.6 1311.35 1636.51 1315C1637.43 1318.66 1633.77 1319.58 1639.26 1325.98C1644.74 1332.38 1648.4 1336.03 1652.05 1340.6C1655.71 1345.17 1654.79 1343.34 1657.54 1349.74C1660.28 1356.14 1663.93 1359.8 1664.85 1365.28C1665.77 1370.76 1666.67 1384.47 1669.42 1390.87C1672.16 1397.27 1675.82 1403.67 1675.82 1403.67C1675.82 1403.67 1685.87 1410.06 1689.53 1409.15C1693.18 1408.24 1700.5 1400.02 1705.98 1402.75C1711.47 1405.5 1716.04 1402.75 1720.61 1402.75C1725.17 1402.75 1729.75 1397.27 1734.32 1397.27C1738.89 1397.27 1745.28 1389.95 1748.95 1391.79C1752.61 1393.62 1757.17 1389.95 1761.74 1385.38C1766.31 1380.82 1769.05 1377.16 1777.28 1369.85C1785.5 1362.54 1784.59 1362.53 1790.07 1357.96C1795.55 1353.39 1801.04 1343.34 1807.44 1341.51C1813.84 1339.68 1815.66 1333.29 1817.49 1328.72C1819.32 1324.14 1820.23 1321.4 1822.98 1317.74C1825.72 1314.08 1823.89 1318.67 1828.46 1306.78C1833.04 1294.89 1838.53 1290.33 1843.09 1287.58C1847.66 1284.84 1850.4 1279.36 1853.14 1278.44C1855.89 1277.52 1860.46 1281.18 1858.63 1272.96C1856.81 1264.73 1858.63 1252.85 1856.81 1250.11C1854.98 1247.37 1852.23 1256.5 1853.15 1242.79C1854.07 1229.07 1864.12 1215.37 1864.12 1215.37C1864.12 1215.37 1877.83 1198 1882.4 1195.26C1886.97 1192.52 1887.88 1189.78 1894.29 1186.12C1900.68 1182.47 1914.39 1173.33 1914.39 1168.76C1914.39 1164.18 1919.88 1152.3 1919.88 1149.56C1919.88 1146.81 1919.88 1144.07 1918.05 1128.53C1916.23 1112.99 1919.88 1116.65 1914.39 1102.03C1908.91 1087.4 1907.99 1069.12 1904.34 1064.55C1900.69 1059.99 1902.51 1048.1 1902.51 1044.44C1902.51 1040.79 1908.91 1031.65 1911.65 1027.99C1914.39 1024.33 1926.28 1009.71 1926.28 1009.71C1926.28 1009.71 1944.55 988.688 1950.95 978.638C1957.35 968.579 1963.75 959.442 1968.32 955.787C1972.89 952.132 1983.86 943.896 1990.26 934.759C1996.65 925.622 2009.45 908.258 2010.37 905.509C2011.28 902.772 2018.59 893.63 2018.59 893.63C2018.59 893.63 2028.64 881.744 2030.47 875.348C2032.3 868.948 2041.43 833.302 2039.61 835.129C2037.78 836.956 2026.82 838.784 2023.16 839.697C2019.51 840.615 2028.65 844.266 2002.13 842.443C1975.62 840.619 1961.92 845.184 1961.92 845.184C1953.69 843.352 1947.3 852.493 1944.55 839.697C1941.81 826.902 1939.98 819.592 1934.5 810.451C1929.02 801.31 1925.35 797.655 1917.14 785.769C1908.91 773.89 1909.82 779.369 1902.5 770.236C1895.19 761.103 1893.36 763.832 1888.79 751.953C1884.23 740.071 1880.57 744.644 1875.09 728.189C1869.6 711.734 1865.94 709.903 1863.2 700.766C1860.46 691.629 1856.81 688.879 1854.98 680.656C1853.15 672.429 1832.13 630.386 1829.38 627.641C1826.64 624.904 1822.07 610.272 1822.98 613.017C1823.9 615.759 1836.7 624.9 1836.7 624.9C1836.7 624.9 1844.01 622.154 1846.75 622.154C1849.5 622.154 1860.46 632.213 1860.46 635.864C1860.46 639.515 1879.67 656.891 1884.23 669.687C1888.8 682.483 1894.29 691.624 1895.2 695.279C1896.1 698.934 1905.25 713.561 1908.91 719.048C1912.57 724.534 1924.45 735.499 1926.27 740.985C1928.1 746.471 1945.47 764.749 1945.47 776.632C1945.47 788.514 1953.69 804.051 1954.61 807.706C1955.53 811.36 1971.97 815.937 1971.97 815.937L1993.91 810.451C1993.91 810.451 2026.82 789.423 2030.47 789.423C2034.13 789.423 2063.38 775.714 2063.38 775.714C2063.38 775.714 2075.26 764.749 2083.48 758.353C2091.71 751.957 2100.85 740.075 2102.68 734.585C2104.52 729.094 2108.17 728.189 2115.48 719.957C2122.79 711.726 2132.84 703.507 2126.45 698.02C2120.05 692.534 2116.39 694.366 2107.25 685.224C2098.12 676.083 2099.03 677.915 2092.63 666.029C2086.23 654.15 2093.54 640.437 2079.83 654.15C2066.11 667.864 2071.6 671.515 2057.89 674.264C2044.18 677.001 2038.69 686.142 2032.3 677.001C2025.9 667.86 2019.51 673.346 2015.84 659.633C2012.18 645.919 2009.44 645.005 2008.53 639.527C2007.62 634.049 2008.53 634.041 2001.22 620.327C1993.91 606.613 1999.39 585.594 2003.96 597.476C2008.53 609.359 2015.84 611.186 2027.73 619.413C2039.61 627.637 2045.1 634.041 2056.06 634.954C2067.03 635.864 2076.17 634.954 2078 636.778C2079.83 638.601 2081.65 635.868 2086.23 637.692C2090.8 639.515 2092.62 634.954 2094.45 642.26C2096.28 649.566 2106.33 650.487 2110.9 655.056C2115.47 659.624 2115.47 657.801 2127.36 659.624C2139.24 661.448 2155.7 661.456 2155.7 661.456L2173.06 660.538L2193.17 662.362C2193.17 662.362 2207.8 670.589 2211.45 670.589C2215.1 670.589 2216.02 680.648 2225.16 686.13C2234.3 691.612 2236.13 692.526 2241.61 698.926C2247.09 705.326 2246.18 708.067 2253.49 714.463C2260.8 720.859 2272.7 713.553 2274.52 710.816C2276.34 708.071 2285.48 703.503 2283.66 710.816C2281.85 718.13 2292.8 715.381 2290.06 732.753C2287.32 750.126 2285.48 745.545 2290.06 757.432C2294.63 769.318 2314.73 805.874 2315.65 816.843C2316.57 827.811 2322.05 824.156 2322.96 834.215C2323.87 844.274 2329.36 847.921 2329.36 855.235C2329.36 862.548 2335.76 864.372 2336.67 869.862C2337.59 875.348 2347.64 870.772 2350.38 869.862C2353.13 868.944 2365.92 857.062 2365.92 857.062C2365.92 857.062 2371.42 855.239 2370.49 846.093C2369.57 836.948 2370.49 838.784 2370.49 825.074C2370.49 811.365 2365.01 811.364 2367.75 797.659C2370.49 783.953 2377.8 775.718 2379.63 769.322C2381.47 762.926 2388.78 751.957 2392.43 751.04C2396.08 750.122 2416.19 740.075 2420.77 733.671C2425.34 727.267 2432.65 719.961 2439.96 712.652C2447.28 705.342 2460.07 696.201 2462.81 698.942C2465.56 701.683 2464.64 700.77 2469.21 700.77C2473.79 700.77 2482.01 704.429 2488.4 705.342C2494.8 706.256 2507.6 721.793 2510.35 730.02C2513.09 738.248 2511.26 736.416 2521.31 748.303C2531.37 760.181 2540.51 752.867 2540.51 767.494C2540.51 782.122 2540.51 781.204 2545.08 786.69C2549.65 792.177 2555.13 776.636 2560.61 778.467C2566.1 780.299 2567.01 776.64 2571.58 791.263C2576.15 805.886 2578.89 805.89 2579.81 820.514C2580.72 835.137 2578.89 821.427 2578.89 833.306C2578.89 845.192 2577.97 846.106 2579.81 857.07C2581.65 868.035 2588.03 871.701 2587.12 873.529C2587.12 873.529 2592.6 857.992 2590.77 847.019C2588.94 836.047 2590.77 820.518 2595.34 815.949C2599.92 811.381 2604.49 806.808 2608.14 818.69C2611.8 830.569 2613.63 821.432 2621.85 835.141C2630.08 848.855 2637.39 846.106 2638.3 852.506C2639.22 858.906 2643.8 859.823 2650.19 865.301C2656.59 870.788 2662.07 864.392 2669.38 858.906C2676.69 853.419 2696.8 833.31 2697.72 825.082C2698.63 816.859 2706.86 818.682 2692.23 797.667C2677.6 776.652 2677.6 769.33 2662.07 756.534C2646.54 743.738 2637.39 742.824 2649.28 726.37C2661.17 709.915 2666.65 698.95 2673.96 703.523C2681.27 708.096 2694.06 707.174 2694.06 725.46C2694.06 743.746 2690.4 763.848 2703.2 741.911C2716 719.974 2722.4 707.178 2718.74 710.841C2715.07 714.504 2726.96 703.527 2726.96 703.527C2726.96 703.527 2727.88 695.3 2743.42 691.645C2758.96 687.99 2763.52 686.159 2769.01 683.417C2774.5 680.672 2790.04 662.39 2792.78 654.167C2795.52 645.943 2802.83 631.316 2801.01 624.92C2799.18 618.524 2790.03 587.446 2788.21 588.355C2786.38 589.273 2787.3 589.273 2775.42 576.477C2763.53 563.681 2755.3 554.54 2753.48 549.054C2751.65 543.568 2747.08 542.654 2752.56 535.344C2758.04 528.035 2760.79 528.948 2761.7 522.548C2762.62 516.148 2769.92 510.666 2756.21 515.239C2742.5 519.811 2752.56 517.07 2740.68 516.157C2728.8 515.243 2697.72 522.553 2713.26 503.361C2728.8 484.169 2733.36 472.287 2736.1 472.287C2738.85 472.287 2752.56 456.745 2753.47 471.369C2754.39 485.992 2759.87 482.333 2760.79 491.474C2761.7 500.615 2779.98 481.424 2779.98 481.424C2779.98 481.424 2786.38 483.251 2790.95 487.82C2795.52 492.388 2795.52 507.015 2795.52 507.015C2795.52 507.015 2791.86 502.443 2801.92 509.757C2811.97 517.07 2822.94 513.411 2822.94 528.953C2822.94 544.494 2822.94 545.407 2829.34 549.062C2835.74 552.717 2842.13 550.894 2847.62 546.321C2853.12 541.748 2862.24 525.298 2862.24 525.298C2862.24 525.298 2863.16 518.898 2848.53 509.757C2833.91 500.615 2824.77 494.224 2819.29 489.651C2813.81 485.078 2815.63 471.373 2821.11 465.882C2826.59 460.392 2829.34 457.655 2827.51 450.345C2825.68 443.036 2830.26 437.545 2843.97 438.459C2857.67 439.373 2860.42 437.55 2860.42 437.55C2860.42 437.55 2863.17 439.373 2863.17 433.891C2863.17 428.408 2880.53 402.812 2875.95 402.812C2871.38 402.812 2876.88 396.417 2874.13 386.362C2871.37 376.307 2883.27 360.77 2873.22 353.456C2863.16 346.142 2860.42 342.484 2854.02 331.519C2847.62 320.555 2848.53 318.723 2824.77 315.978C2801.01 313.233 2790.04 321.464 2784.55 314.155C2779.06 306.845 2776.33 325.119 2772.67 303.182C2769.02 281.245 2778.16 266.618 2778.16 266.618C2778.16 266.618 2792.78 257.481 2796.43 251.081C2800.08 244.681 2814.71 241.939 2826.6 246.512C2838.5 251.085 2855.85 250.167 2870.48 252.916C2885.1 255.653 2884.19 264.794 2891.5 252.916C2898.81 241.026 2891.5 235.548 2896.98 229.148C2902.47 222.748 2908.87 212.693 2913.43 219.089C2918 225.493 2927.16 231.885 2934.47 223.657C2941.78 215.434 2944.52 214.52 2944.52 214.52L2948.17 218.179C2948.17 218.179 2956.39 213.602 2956.39 221.826C2956.39 230.057 2964.63 239.198 2960.05 245.594C2955.48 251.99 2949.09 251.081 2949.09 266.618C2949.09 282.155 2949.09 279.418 2959.14 292.218C2969.19 305.009 2975.59 294.041 2977.42 307.755C2979.24 321.468 2981.07 318.727 2991.13 327.864C3001.19 337.001 2999.35 337.001 3006.67 342.488C3013.99 347.974 3017.64 353.46 3017.64 344.319C3017.64 335.178 3018.55 330.609 3017.64 322.382C3016.72 314.159 3024.95 307.755 3019.46 294.045C3013.96 280.335 3018.55 281.249 3007.58 271.194C2996.61 261.139 2989.3 273.026 2985.65 258.398C2982 243.771 3003.01 237.375 3008.5 235.548C3013.99 233.72 3022.2 222.752 3024.03 230.065C3025.86 237.379 3010.32 263.885 3036.83 235.548C3063.34 207.211 3051.45 219.097 3051.45 219.097C3051.45 219.097 3065.16 217.269 3067.91 219.097C3070.64 220.928 3077.97 210.869 3075.21 211.787C3072.46 212.705 3045.98 197.16 3045.98 197.16L3026.77 186.195C3026.77 186.195 3033.18 181.623 3037.75 182.541C3042.31 183.458 3043.24 173.399 3047.81 172.482C3052.38 171.564 3083.45 178.886 3089.85 182.541C3096.26 186.195 3119.1 187.109 3116.35 185.282C3113.61 183.454 3098.99 172.486 3098.07 168.827C3097.16 165.172 3065.17 157.858 3055.12 158.772C3045.06 159.682 3035.93 162.423 3027.7 159.682C3019.47 156.941 3007.59 149.627 3001.19 149.627C2994.79 149.627 2914.36 134.09 2910.71 135.003C2907.05 135.917 2901.56 153.282 2898.82 150.541C2896.08 147.799 2891.51 147.795 2878.71 144.141C2865.9 140.486 2848.55 137.741 2825.69 135.917C2802.84 134.094 2787.31 137.745 2780.91 130.431C2774.51 123.117 2760.81 125.862 2745.27 124.945C2729.73 124.035 2711.45 124.945 2703.22 124.945C2694.99 124.945 2675.81 124.035 2671.23 123.117C2666.66 122.199 2661.18 115.804 2655.7 114.894C2650.21 113.976 2651.12 112.153 2640.15 110.325C2629.19 108.498 2630.1 96.6157 2626.45 106.666C2622.79 116.725 2624.61 113.98 2619.13 117.635C2613.65 121.29 2608.16 128.604 2604.5 128.604C2600.85 128.604 2586.23 129.517 2583.48 127.69C2580.73 125.862 2576.17 124.035 2567.03 124.035C2557.89 124.035 2557.89 124.945 2546 123.117C2534.12 121.29 2524.98 122.199 2514.01 116.721C2503.04 111.243 2503.04 107.58 2493.9 108.494C2484.76 109.408 2484.77 106.666 2471.97 106.666C2459.16 106.666 2443.64 113.98 2435.41 114.894C2427.19 115.808 2408.91 113.976 2402.51 111.235C2396.11 108.494 2394.28 102.098 2370.51 104.835C2346.75 107.58 2333.04 107.58 2337.6 100.266C2342.17 92.9528 2347.66 85.6431 2350.4 84.7294C2353.15 83.8157 2359.54 79.2472 2354.97 77.4198C2350.4 75.5883 2345.83 72.8513 2334.86 71.9335C2323.9 71.0157 2324.8 75.5883 2308.35 73.7609C2291.91 71.9335 2317.5 67.365 2283.68 68.2787C2249.86 69.1964 2241.63 71.9335 2237.98 71.9335C2234.32 71.9335 2229.75 64.6238 2220.61 75.5883C2211.47 86.5528 2198.67 92.9528 2180.39 93.8665C2162.12 94.7802 2161.2 92.0391 2143.84 98.435C2126.48 104.831 2115.5 96.6076 2119.16 111.231C2122.81 125.854 2127.38 131.341 2127.38 134.082C2127.38 136.823 2119.16 155.105 2109.1 144.136C2099.05 133.168 2080.76 90.2076 2088.99 119.458C2097.21 148.705 2115.49 158.764 2098.13 163.332C2080.77 167.901 2082.59 161.505 2079.85 159.674C2077.11 157.846 2079.85 145.05 2078.93 137.736C2078.02 130.423 2076.19 125.854 2072.54 122.199C2068.88 118.545 2069.79 113.058 2062.48 111.231C2055.17 109.404 2061.57 105.745 2049.69 105.745C2037.8 105.745 2027.75 98.4309 2030.49 114.886C2033.24 131.341 2035.97 120.372 2043.28 135.909C2050.59 151.446 2064.31 140.478 2054.25 151.446C2044.2 162.415 2017.69 158.76 2011.29 154.191C2004.89 149.623 2006.73 156.019 1994.84 147.791C1982.95 139.564 1986.62 133.164 1972.91 139.564C1959.2 145.964 1954.63 157.846 1949.14 153.274C1943.65 148.701 1930.86 159.669 1926.29 154.191C1921.72 148.713 1903.43 148.705 1899.78 154.191C1896.13 159.678 1885.16 158.76 1869.62 166.074C1854.08 173.387 1858.65 166.983 1839.46 182.524C1820.26 198.065 1809.29 210.857 1802.9 200.802C1796.5 190.752 1761.76 173.383 1775.47 170.638C1789.19 167.893 1795.58 162.415 1802.9 168.811C1810.21 175.207 1822.1 173.383 1823.91 168.811C1825.73 164.238 1833.97 159.669 1823 154.187C1812.03 148.705 1811.12 152.356 1793.75 145.96C1776.39 139.56 1793.75 141.391 1769.99 137.732C1746.22 134.074 1736.16 132.25 1729.77 130.423C1723.37 128.595 1714.23 130.423 1705.09 129.509C1695.96 128.595 1689.56 126.768 1681.33 127.682C1673.1 128.595 1668.53 126.768 1657.56 134.995C1646.59 143.223 1638.36 146.878 1631.05 153.274C1623.74 159.669 1604.55 172.469 1599.06 177.042C1593.58 181.615 1574.38 196.234 1572.56 201.72C1570.73 207.206 1574.38 211.775 1567.07 215.43C1559.76 219.085 1552.45 219.085 1546.96 219.998C1541.47 220.912 1546.96 211.771 1541.47 220.912C1535.99 230.053 1537.82 262.959 1542.39 258.386C1546.96 253.814 1544.21 239.194 1564.32 252.908C1584.43 266.622 1597.23 264.786 1596.32 277.582C1595.4 290.378 1610.03 289.464 1611.85 292.209C1613.68 294.947 1622.82 288.551 1622.82 288.551C1622.82 288.551 1642.93 275.755 1642.93 269.359C1642.93 262.963 1655.73 248.335 1655.73 248.335C1655.73 248.335 1646.58 243.767 1646.58 234.626C1646.58 225.485 1649.33 222.739 1651.15 213.598C1652.98 204.457 1641.1 213.602 1668.52 196.23C1695.94 178.857 1697.77 190.752 1697.77 190.752C1697.77 190.752 1701.42 194.407 1696.85 199.889C1692.28 205.371 1684.05 220.002 1682.23 221.826C1680.4 223.649 1690.45 238.281 1695.02 238.281C1699.59 238.281 1708.73 234.622 1714.22 235.535C1719.7 236.453 1728.84 232.798 1731.58 234.626C1734.33 236.453 1740.72 241.935 1736.15 246.508C1731.58 251.081 1721.52 256.559 1714.22 254.735C1706.91 252.912 1695.93 240.108 1702.33 258.39C1708.73 276.672 1701.42 281.241 1695.93 280.327C1690.45 279.414 1678.57 270.277 1680.4 283.986C1682.22 297.696 1668.52 306.833 1665.77 306.833C1663.03 306.833 1657.55 305.919 1657.55 305.919C1657.55 305.919 1649.32 305.001 1644.75 305.001C1640.18 305.001 1631.04 309.57 1628.3 313.229C1625.55 316.884 1621.9 314.147 1617.33 314.147C1612.76 314.147 1617.33 308.66 1608.19 306.833C1599.05 305.005 1593.57 303.178 1588.08 306.833C1582.6 310.488 1574.37 312.315 1570.72 309.574C1567.06 306.833 1572.55 300.429 1565.23 304.092C1557.91 307.755 1552.43 317.801 1549.69 318.719C1546.95 319.629 1557.92 318.719 1546.95 319.629C1535.98 320.547 1531.42 323.292 1525.93 325.115C1520.44 326.938 1527.76 337.911 1517.7 341.566C1507.65 345.221 1514.96 336.997 1504.91 345.221C1494.85 353.452 1493.02 360.762 1489.37 361.675C1485.71 362.593 1486.63 364.417 1478.4 365.33C1470.17 366.244 1471.09 367.158 1466.51 368.071C1461.94 368.985 1467.43 370.817 1457.38 368.985C1447.32 367.154 1440.01 370.817 1441.84 374.471C1443.66 378.126 1477.48 388.181 1451.89 387.267C1426.3 386.354 1434.53 390.922 1440.01 394.577C1445.49 398.232 1448.23 401.887 1450.98 402.804C1453.72 403.722 1458.29 414.691 1458.29 414.691C1458.29 414.691 1465.6 413.773 1461.03 420.173C1456.46 426.573 1462.86 428.4 1458.29 436.628C1453.71 444.855 1453.72 439.369 1450.06 441.196C1446.41 443.024 1440.92 449.424 1430.86 443.937C1420.81 438.451 1413.5 435.71 1401.62 434.8C1389.74 433.882 1397.96 432.059 1389.74 438.451C1381.51 444.855 1379.68 452.165 1380.6 460.388C1381.51 468.611 1382.43 479.584 1379.68 485.07C1376.94 490.557 1376.94 496.039 1378.76 504.266C1380.59 512.49 1386.08 516.152 1386.08 516.152C1386.08 516.152 1398.88 517.976 1401.62 518.894C1404.36 519.811 1409.85 517.066 1417.15 521.631C1424.47 526.203 1431.78 528.035 1436.35 522.548C1440.92 517.062 1459.2 510.666 1464.69 505.184C1470.18 499.702 1473.83 497.874 1471.09 492.388C1468.35 486.902 1476.57 473.192 1481.14 470.451C1485.71 467.71 1495.76 464.965 1495.76 464.965L1506.73 448.514C1506.73 448.514 1515.87 438.455 1520.44 439.373C1525.01 440.291 1550.6 449.432 1548.78 437.55C1546.96 425.667 1550.61 422.008 1553.35 426.577C1556.09 431.145 1563.4 429.318 1563.4 429.318C1563.4 429.318 1567.06 427.495 1569.8 430.236C1572.54 432.973 1576.19 444.863 1581.68 447.6C1587.17 450.345 1591.74 453.087 1595.39 454.91C1599.05 456.733 1602.71 454.91 1610.02 461.31C1617.33 467.71 1624.64 471.369 1625.55 474.106C1626.48 476.847 1632.87 483.247 1632.87 483.247C1632.87 483.247 1639.27 485.074 1637.44 488.733C1635.61 492.392 1626.48 503.361 1621.9 505.184C1617.33 507.007 1605.45 503.352 1610.02 507.011C1614.59 510.666 1620.99 515.239 1623.73 512.494C1626.48 509.753 1643.84 491.47 1643.84 491.47C1643.84 491.47 1642.92 492.384 1643.84 486.898C1644.75 481.411 1643.84 475.02 1648.41 477.761C1652.98 480.506 1655.72 484.161 1657.55 480.506C1659.38 476.851 1661.2 478.678 1656.63 475.937C1652.06 473.196 1641.09 457.655 1635.61 456.741C1630.12 455.828 1616.41 446.683 1616.41 446.683C1616.41 446.683 1613.67 443.941 1607.27 436.632C1600.87 429.322 1599.05 431.145 1597.21 424.745C1595.38 418.345 1589.9 410.122 1599.96 411.95C1610.02 413.777 1616.41 420.173 1625.55 425.659C1634.69 431.145 1632.87 432.969 1641.09 438.455C1649.31 443.941 1650.24 449.428 1656.63 448.514C1663.02 447.6 1670.34 452.169 1670.34 460.396C1670.34 468.624 1672.16 477.761 1673.99 479.592C1675.82 481.424 1681.3 485.078 1683.13 488.733C1684.96 492.388 1688.62 501.529 1691.36 505.184C1694.1 508.839 1696.84 511.584 1699.58 516.157C1702.32 520.725 1703.24 515.239 1705.98 517.07C1708.72 518.898 1712.38 517.98 1712.38 514.325C1712.38 510.67 1713.29 504.27 1713.29 504.27C1713.29 504.27 1726.09 500.615 1722.44 498.784C1718.78 496.952 1707.81 485.988 1708.72 482.333C1709.64 478.678 1708.72 471.369 1713.29 472.282C1717.86 473.192 1722.43 481.42 1732.49 474.106C1742.54 466.792 1754.43 463.137 1750.77 474.106C1747.11 485.074 1751.69 486.898 1750.77 498.784C1749.86 510.67 1754.43 507.011 1760.83 513.411C1767.23 519.811 1771.79 520.729 1776.36 522.552C1780.93 524.376 1788.24 523.47 1795.56 524.384C1802.88 525.298 1807.44 521.639 1813.84 523.47C1820.24 525.298 1834.86 522.553 1837.61 524.384C1840.35 526.215 1851.32 520.729 1852.23 527.125C1853.14 533.525 1856.8 526.211 1854.06 540.835C1851.32 555.458 1847.66 565.513 1847.66 565.513C1837.61 584.709 1833.95 589.281 1829.38 590.195C1824.82 591.109 1822.07 593.85 1813.85 592.936C1805.62 592.018 1795.57 592.936 1783.68 590.195C1771.8 587.454 1749.86 592.936 1740.72 587.45C1731.59 581.964 1718.79 586.536 1713.3 580.14C1707.81 573.744 1698.68 574.654 1695.02 570.999C1691.36 567.344 1689.54 557.294 1689.54 571.917C1689.54 586.54 1681.31 587.454 1679.48 594.768C1677.65 602.081 1682.22 598.422 1672.16 597.509C1662.11 596.591 1659.37 602.077 1644.75 591.113C1630.12 580.148 1622.81 580.144 1615.5 575.572C1608.19 570.999 1600.87 583.795 1593.56 569.176C1586.25 554.557 1576.19 566.431 1575.28 554.548C1574.37 542.662 1575.28 543.584 1576.19 536.27C1577.11 528.957 1587.16 522.561 1582.59 519.819C1578.03 517.078 1581.68 512.506 1575.28 515.251C1568.88 517.996 1559.74 518.906 1552.43 521.647C1545.12 524.392 1568.88 521.647 1533.23 524.392C1497.59 527.137 1487.53 530.788 1487.53 530.788C1487.53 530.788 1484.79 528.961 1480.22 532.615C1475.64 536.27 1469.25 541.757 1462.85 539.015C1456.46 536.27 1452.8 537.184 1447.31 538.102C1441.83 539.019 1438.18 533.533 1431.78 538.102C1425.38 542.666 1418.07 544.498 1415.32 542.666C1412.57 540.814 1408 533.505 1408 533.505Z" fill="#DBDBDB"/>
<path d="M2874.56 605.951C2874.56 605.951 2877.55 601.356 2875.67 595.205C2873.8 589.054 2885.51 582.078 2889.24 577.34C2892.97 572.615 2894.76 569.852 2898.37 560.279C2901.98 550.707 2892.52 553.229 2905.91 538.638C2919.31 524.047 2910.69 531.287 2919.31 524.051C2927.93 516.816 2936.23 517.432 2937.88 513.889C2939.54 510.346 2941.32 502.227 2943.4 501.037C2945.48 499.854 2951.13 493.156 2953.35 492.755C2955.57 492.353 2961.2 489.711 2967.23 493.488C2973.25 497.264 2974.7 501.063 2974.7 501.063C2974.7 501.063 2971.97 511.291 2968.1 515.233C2964.24 519.175 2966.76 528.491 2958.88 535.597C2947.3 537.697 2937.02 545.998 2933.15 549.94C2929.28 553.882 2925.69 559.4 2921.69 562.556C2917.68 565.713 2905.51 574.404 2904.59 577.812C2903.68 581.221 2899.39 582.81 2895.21 589.246C2891.02 595.674 2886.45 595.694 2883.92 598.584C2881.39 601.473 2875.72 608.174 2875.72 608.174L2874.56 605.951Z" fill="#DBDBDB"/>
<path d="M779.15 1625.78C772.75 1622.13 759.04 1615.73 754.472 1612.07C749.904 1608.42 736.194 1588.3 736.194 1588.3L726.135 1569.11C726.135 1569.11 714.257 1554.48 716.998 1549C719.739 1543.51 725.226 1539.86 725.226 1537.12C725.226 1534.38 730.708 1527.06 726.135 1524.32C721.567 1521.58 721.567 1520.67 718.822 1512.44C716.081 1504.22 716.081 1496.9 712.426 1495.07C708.771 1493.25 706.026 1481.36 702.371 1480.45C698.716 1479.53 695.058 1473.13 695.058 1473.13L689.571 1399.1C689.571 1399.1 687.74 1365.28 685.917 1357.96C684.093 1350.65 688.658 1335.12 684.085 1321.4C679.513 1307.69 685.003 1291.24 682.258 1285.76C679.513 1280.27 684.085 1264.74 681.344 1250.11C678.603 1235.49 692.312 1217.21 681.344 1211.73C670.376 1206.24 678.603 1198.01 669.462 1198.01C660.321 1198.01 653.925 1193.44 645.698 1187.05C637.471 1180.65 621.93 1168.76 617.361 1164.19C612.793 1159.62 598.166 1147.74 593.597 1144.08C589.029 1140.43 584.456 1124.89 580.801 1120.31C577.147 1115.75 575.319 1102.04 569.833 1093.81C564.347 1085.59 557.037 1071.88 555.206 1069.13C553.374 1066.39 533.269 1042.63 533.269 1042.63L535.096 1028.01C535.096 1028.01 548.806 1019.78 546.979 1017.04C545.151 1014.3 547.896 1011.55 541.492 1006.07C535.088 1000.59 536.006 990.524 541.492 985.959C546.978 981.383 555.202 966.759 555.202 966.759L568.911 943.913C568.911 943.913 579.884 932.022 579.884 923.799C579.884 915.576 595.42 910.093 586.279 902.78C577.138 895.466 581.711 889.066 578.966 883.58C576.221 878.094 578.052 874.443 586.279 868.956C594.507 863.47 609.13 843.365 609.13 843.365C609.13 843.365 620.098 840.619 622.839 840.619C625.58 840.619 630.153 811.365 638.38 830.561C646.608 849.756 649.349 839.702 646.608 853.411C643.866 867.121 650.262 864.384 653.917 860.729C657.572 857.074 652.086 863.47 659.399 847.011C666.713 830.552 663.972 825.078 668.54 829.651C673.109 834.223 674.936 835.137 683.163 837.878C691.387 840.619 694.132 839.702 696.869 845.188C699.61 850.674 698.7 843.361 714.237 846.106C729.774 848.851 751.711 840.619 748.97 849.756C746.228 858.898 740.742 848.843 753.538 858.898C766.334 868.952 768.165 870.78 775.475 872.611C782.784 874.443 789.184 873.525 800.157 884.494C811.129 895.462 813.866 896.376 816.607 901.854C819.348 907.332 823.917 903.685 828.489 909.168C833.062 914.65 839.458 914.658 845.853 914.658C852.249 914.658 845.853 909.168 855.908 916.485C865.963 923.803 873.276 924.705 877.845 939.332C882.413 953.959 891.554 953.046 884.241 967.673C876.927 982.301 862.308 988.696 868.704 987.783C875.1 986.865 886.986 981.379 890.641 982.297C894.295 983.206 896.123 979.555 901.609 982.297C907.095 985.038 908.009 978.642 907.095 985.038C906.181 991.434 906.177 985.038 906.177 991.438C906.177 997.838 904.35 985.038 915.318 987.783C926.287 990.528 919.887 982.292 932.683 994.179C945.478 1006.06 945.482 1002.41 950.047 1008.81C954.619 1015.2 959.188 1005.16 961.933 1007.89C964.678 1010.63 972.901 1008.8 981.129 1010.63C989.356 1012.46 983.87 1005.15 996.67 1013.37C1009.46 1021.6 1022.26 1018.86 1025 1026.17C1027.74 1033.48 1035.06 1030.74 1038.71 1035.31C1042.36 1039.88 1044.19 1033.48 1047.85 1039.88C1051.51 1046.28 1062.48 1044.45 1060.65 1050.84C1058.82 1057.25 1063.39 1053.59 1061.56 1062.73C1059.73 1071.86 1053.33 1086.5 1047.85 1090.15C1042.37 1093.8 1042.37 1098.38 1038.71 1102.95C1035.05 1107.51 1035.97 1098.38 1031.4 1111.17C1026.83 1123.97 1027.74 1125.8 1024.09 1137.68C1020.43 1149.56 1023.17 1137.68 1020.43 1149.56C1017.69 1161.44 1019.52 1168.76 1016.78 1182.47C1014.04 1196.18 1014.95 1196.18 1013.12 1206.24C1011.3 1216.29 1017.69 1201.67 1009.47 1222.69C1001.24 1243.71 1000.33 1242.79 997.587 1251.94C994.842 1261.08 998.501 1253.76 988.446 1259.25C978.392 1264.74 983.878 1262.91 971.992 1266.56C960.114 1270.22 945.486 1273.88 940.918 1274.79C936.35 1275.7 918.068 1281.19 923.554 1292.15C929.04 1303.12 929.04 1304.95 923.554 1318.67C918.068 1332.38 909.844 1336.95 909.844 1343.34C909.844 1349.74 906.186 1356.13 905.276 1360.7C904.358 1365.28 913.499 1356.13 902.535 1369.85C891.571 1383.56 890.653 1379.9 886.994 1388.13C883.339 1396.35 886.994 1389.95 883.339 1396.35C879.684 1402.75 870.543 1405.49 870.543 1405.49C870.543 1405.49 871.453 1410.06 867.798 1408.23C864.144 1406.41 865.057 1409.15 851.344 1405.49C837.63 1401.83 835.807 1392.7 833.979 1399.09C832.152 1405.49 834.893 1409.15 843.12 1415.55C851.344 1421.95 865.057 1423.77 861.398 1430.17C857.74 1436.58 857.744 1436.57 855.003 1440.23C852.257 1443.89 858.657 1441.14 852.257 1443.89C845.857 1446.63 842.203 1458.52 839.462 1458.52C836.721 1458.52 834.889 1463.08 831.234 1461.26C827.58 1459.43 818.443 1453.03 816.611 1456.68C814.78 1460.34 811.125 1452.11 812.039 1464.91C812.952 1477.7 814.784 1485.02 810.211 1487.76C805.639 1490.51 794.67 1487.76 794.67 1487.76L792.843 1483.19L786.447 1485.02C786.447 1485.02 783.706 1495.99 788.275 1497.81C792.843 1499.64 791.929 1501.46 796.498 1506.95C801.066 1512.44 798.329 1522.49 798.329 1522.49C798.329 1522.49 798.329 1525.24 793.761 1529.8C789.192 1534.37 787.361 1538.03 786.447 1540.77C785.529 1543.51 780.047 1555.4 788.275 1554.48C796.498 1553.57 802.902 1549 802.902 1563.62C802.902 1578.25 806.557 1574.6 801.988 1584.65C797.416 1594.7 793.761 1595.62 792.847 1604.75C791.937 1613.89 793.765 1614.81 795.592 1620.29C797.42 1625.78 801.992 1623.04 797.42 1625.78C792.859 1628.52 779.15 1625.78 779.15 1625.78V1625.78Z" fill="#DBDBDB"/>
<path d="M543.327 881.752L536.931 872.615C536.931 872.615 534.19 867.125 529.618 866.215C525.045 865.305 514.99 853.419 514.99 853.419C514.99 853.419 510.422 849.764 510.422 843.368C510.422 836.972 506.763 826.917 509.504 815.949C512.245 804.98 513.163 791.271 512.249 787.612C511.332 783.957 516.818 783.043 510.422 779.384C504.026 775.726 491.226 774.816 482.999 774.816C474.776 774.816 464.717 777.561 462.89 778.471C461.062 779.384 472.944 751.052 474.772 746.483C476.599 741.914 484.826 721.801 484.826 719.064C484.826 716.319 487.567 715.405 482.085 711.754C476.603 708.103 467.462 706.268 461.976 709.009C456.494 711.754 457.407 705.354 452.839 716.318C448.271 727.283 443.698 739.173 438.212 741.001C432.726 742.828 421.761 748.314 421.761 748.314C421.761 748.314 408.052 747.401 403.479 746.487C398.907 745.573 379.715 735.518 376.06 729.123C372.406 722.723 370.578 709.009 370.578 702.617C370.578 696.217 380.629 677.025 379.715 672.453C378.801 667.88 389.774 649.602 388.856 646.857C387.938 644.111 390.684 634.974 393.425 631.32C396.166 627.665 409.879 623.092 413.534 619.437C417.189 615.783 423.589 611.214 429.985 609.383C436.38 607.551 441.871 605.728 446.439 605.728C451.008 605.728 462.89 595.673 464.717 605.728C466.544 615.782 474.776 612.124 479.344 613.037C483.913 613.951 484.83 618.524 492.14 606.641C499.45 594.759 506.763 591.1 506.763 593.841C506.763 596.587 518.645 592.932 520.473 595.673C522.3 598.414 525.959 593.841 532.355 599.328C538.75 604.814 547.892 605.728 546.978 608.465C546.064 611.206 550.633 611.206 550.633 613.951C550.633 616.696 554.291 607.551 554.291 624.002C554.291 640.453 558.86 650.511 558.86 650.511C558.86 650.511 565.256 664.225 567.997 661.48C570.738 658.735 576.22 651.429 576.22 651.429C576.22 651.429 585.361 645.943 578.965 626.747C572.565 607.555 577.138 602.069 575.31 595.669C573.483 589.269 573.479 585.61 584.447 577.387C595.416 569.163 621.921 550.881 628.321 547.226C634.721 543.571 649.34 533.517 649.34 533.517C649.34 533.517 654.822 530.775 655.74 523.462C656.657 516.148 674.018 503.352 674.935 499.697C675.853 496.042 687.735 486.905 687.735 486.905C687.735 486.905 700.527 479.588 699.613 475.023C698.699 470.455 716.068 462.231 718.809 462.231C721.55 462.231 736.177 466.796 736.177 458.568C736.177 450.345 736.177 448.514 745.318 441.204C754.459 433.894 766.337 422.922 770.91 422.922C775.482 422.922 791.019 414.702 797.415 412.871C803.811 411.039 823.924 401.898 805.642 412.871C787.36 423.844 799.242 417.439 795.587 426.581C791.933 435.722 789.188 447.604 806.556 433.89C823.924 420.177 823.006 417.435 829.406 416.526C835.806 415.612 831.234 419.267 844.943 414.694C858.653 410.122 859.57 408.298 859.57 408.298C859.57 408.298 865.97 402.812 862.311 400.075C858.657 397.33 865.97 393.675 852.257 399.157C838.543 404.639 839.461 405.557 830.32 402.812C821.179 400.067 807.47 400.981 817.524 391.839C827.579 382.698 840.375 379.957 832.147 376.302C823.924 372.648 802.901 377.22 800.16 378.13C797.415 379.044 791.019 377.216 785.533 378.13C780.047 379.044 781.878 370.824 785.533 368.993C789.188 367.161 801.074 361.675 815.697 358.02C830.32 354.365 865.97 353.452 874.193 353.452C882.417 353.452 893.385 355.283 899.785 350.711C906.185 346.138 918.981 338.832 920.808 335.17C922.635 331.507 929.949 326.032 929.949 326.032C929.949 326.032 938.172 317.805 933.604 314.15C929.035 310.495 924.463 302.268 920.808 304.095C917.153 305.923 919.898 316.895 912.585 305.009C905.271 293.131 906.185 291.299 902.53 288.558C898.875 285.817 895.217 287.641 897.962 274.849C900.707 262.057 899.789 256.566 899.789 256.566C899.789 256.566 902.53 245.602 899.789 244.688C897.044 243.771 895.221 241.033 890.652 243.771C886.08 246.512 860.488 259.312 855.006 262.053C849.52 264.794 842.206 251.084 844.947 244.688C847.692 238.284 845.861 241.943 842.206 232.806C838.551 223.669 823.928 221.834 818.442 221.834C812.956 221.834 800.164 213.606 796.505 219.092C792.846 224.579 773.659 241.939 769.996 243.771C766.333 245.602 760.859 228.234 758.118 256.566C755.373 284.908 768.173 293.131 753.549 294.958C738.926 296.786 726.127 305.009 726.127 305.009C726.127 305.009 714.249 305.927 714.249 313.237C714.249 320.546 709.68 337.915 704.19 339.742C698.699 341.569 684.994 338.832 680.426 333.346C675.857 327.86 681.339 307.754 681.339 307.754L689.567 299.527C689.567 299.527 631.07 290.39 631.98 286.731C632.897 283.076 614.615 276.68 612.788 271.194C610.961 265.708 610.043 253.825 611.874 249.257C613.706 244.688 638.38 222.751 651.175 218.183C663.971 213.614 685.908 203.559 692.308 201.728C698.708 199.896 709.672 200.814 713.331 196.246C716.99 191.677 717.899 183.45 717.899 183.45C717.899 183.45 716.072 170.65 719.727 172.477C723.381 174.305 729.781 177.05 730.695 179.791C731.609 182.532 731.613 188.932 738.009 181.614C744.404 174.296 752.636 171.559 759.945 167.909C767.255 164.258 778.223 165.168 784.627 161.513C791.031 157.858 801.991 154.199 802.905 145.058C803.819 135.917 800.164 138.662 795.592 137.744C791.023 136.835 797.419 138.662 781.882 145.972C766.345 153.281 770.914 147.799 759.945 153.281C748.977 158.763 748.059 159.681 747.15 155.113C746.232 150.54 748.977 143.231 748.977 143.231C748.977 143.231 749.895 142.313 743.495 140.489C737.095 138.666 737.095 141.403 736.181 133.18C735.268 124.952 740.75 113.07 731.613 116.725C722.476 120.38 714.249 113.984 707.849 132.262C701.449 150.54 679.512 169.74 674.026 165.168C668.54 160.595 667.63 159.681 663.057 159.681C658.485 159.681 652.089 154.199 643.862 153.285C635.634 152.372 610.953 152.372 604.561 153.285C598.161 154.203 590.851 149.631 585.361 155.117C579.871 160.603 571.656 167.913 571.656 170.658C571.656 173.403 563.428 160.599 560.687 161.517C557.946 162.435 550.629 157.862 542.409 157.862C534.182 157.862 528.696 153.289 525.959 153.289C523.218 153.289 528.696 145.976 525.959 145.062C523.218 144.152 463.799 142.321 463.799 142.321C463.799 142.321 444.608 135.011 437.298 135.925C429.989 136.839 409.879 137.748 394.334 140.493C378.789 143.239 355.943 152.376 348.633 153.289C341.32 154.207 324.869 154.207 322.128 149.635C319.383 145.066 323.042 145.98 319.383 145.066C315.724 144.152 318.473 142.325 310.246 135.929C302.019 129.533 313.905 124.047 297.45 124.047C280.996 124.047 270.945 123.129 256.322 124.047C241.699 124.965 211.535 132.27 207.88 131.356C204.225 130.443 174.975 135.929 170.402 133.188C165.834 130.443 142.979 143.239 138.415 142.325C133.847 141.411 116.478 143.243 111.91 145.984C107.341 148.725 85.4006 154.207 92.7142 158.78C100.028 163.352 99.11 167.917 100.024 170.662C100.937 173.407 92.7142 179.799 92.7142 179.799C92.7142 179.799 90.8827 179.799 80.8321 176.144C70.7815 172.489 59.809 170.662 55.2365 173.403C50.664 176.144 42.4408 181.635 44.2681 185.289C46.0955 188.944 58.8913 197.172 60.7227 194.426C62.5542 191.681 67.1226 186.203 72.6048 187.117C78.091 188.035 86.3183 183.462 79.0047 192.603C71.6911 201.744 65.2912 206.313 60.7227 207.23C56.1543 208.14 45.1859 209.054 35.1312 209.972C25.0765 210.889 25.9862 206.317 16.8492 215.458C7.71232 224.599 4.05349 219.113 2.2261 229.168C0.398715 239.222 -1.42867 239.218 2.2261 241.963C5.88087 244.709 -5.0875 245.618 3.13979 248.359C11.363 251.105 21.4177 253.846 20.504 256.583C19.5863 259.328 29.645 252.932 24.1588 260.238C18.6726 267.543 15.0219 273.947 25.9862 266.638C36.9505 259.328 43.3504 264.806 52.4914 260.238C61.6324 255.669 70.7734 254.755 76.2555 251.101C81.7377 247.446 84.4828 241.963 92.7101 239.214C100.937 236.465 95.4512 240.132 96.3649 244.7C97.2786 249.269 96.3649 250.183 101.851 246.524C107.337 242.865 107.333 245.614 114.647 241.042C121.96 236.469 130.184 231.901 135.67 234.642C141.152 237.387 142.979 237.387 146.638 237.387C150.297 237.387 142.07 236.469 150.293 237.387C158.52 238.296 146.638 234.642 174.057 241.042C201.476 247.442 208.794 242.869 210.617 252.924C212.44 262.979 216.103 252.006 220.672 258.406C225.24 264.806 227.985 259.324 230.726 270.288C233.468 281.253 230.726 311.421 228.899 315.076C227.072 318.731 226.158 318.731 227.072 326.958C227.985 335.182 238.954 374.491 235.299 377.228C231.644 379.965 223.417 380.883 223.417 380.883L218.848 397.334C218.848 397.334 211.539 411.044 205.139 418.357C198.739 425.671 190.516 434.812 185.943 441.204C181.375 447.604 177.716 458.577 171.32 464.972C164.924 471.368 159.438 468.627 161.265 482.337C163.093 496.047 161.265 510.67 163.093 520.729C164.92 530.788 169.493 544.493 173.148 549.979C176.802 555.466 179.547 555.462 185.943 560.03C192.343 564.599 200.571 570.089 199.653 574.658C198.735 579.226 200.566 607.567 200.566 607.567C200.566 607.567 206.053 616.704 206.962 626.759C207.88 636.818 214.276 646.869 214.276 646.869L219.762 658.755C219.762 658.755 222.503 659.673 226.162 666.978C229.821 674.284 229.817 674.292 230.73 677.943C231.648 681.606 231.648 680.688 231.648 681.606C231.648 682.515 230.73 666.065 228.903 661.492C227.076 656.92 227.076 651.441 225.248 645.955C223.421 640.469 226.162 634.069 220.68 625.845C215.198 617.622 215.198 616.704 212.457 608.477C209.716 600.254 206.057 591.112 209.716 589.281C213.374 587.449 216.111 575.575 223.425 589.281C230.739 602.987 231.652 599.34 232.566 610.308C233.476 621.277 236.221 624.936 238.962 629.5C241.703 634.069 248.099 649.614 251.758 656.006C255.412 662.406 251.758 652.351 259.981 665.147C268.208 677.943 269.126 680.684 273.694 690.739C278.263 700.794 281.008 700.794 283.749 708.103C286.49 715.413 284.663 713.59 282.831 721.813C281 730.036 284.659 739.181 284.659 739.181C284.659 739.181 297.454 743.75 298.368 746.491C299.282 749.232 312.078 753.801 313.909 757.46C315.74 761.118 327.618 765.683 327.618 765.683C327.618 765.683 337.673 772.083 341.324 773.91C344.975 775.738 355.955 777.569 355.955 777.569C355.955 777.569 363.265 779.401 366.006 780.31C368.747 781.224 376.974 781.224 376.974 781.224C376.974 781.224 384.288 775.742 387.029 777.569C389.77 779.397 396.17 773.91 398.911 778.479C401.652 783.047 407.138 783.051 409.879 786.71C412.62 790.369 415.361 790.365 419.934 794.934C424.506 799.502 429.075 798.588 433.643 802.243C438.212 805.898 441.867 805.898 447.353 805.898C452.839 805.898 452.835 805.898 456.494 806.816C460.153 807.734 461.976 804.071 465.631 808.647C469.285 813.224 472.027 815.957 474.768 820.526C477.509 825.094 483.909 825.094 484.822 832.408C485.736 839.721 487.563 838.812 487.563 845.204C487.563 851.604 491.218 854.345 493.963 856.176C496.7 858 506.755 867.137 506.755 867.137L520.464 869.882L531.433 878.109L543.327 881.752V881.752Z" fill="#DBDBDB"/>
<path d="M836.273 32.6076L891.115 25.7528C891.115 25.7528 910.307 25.7528 919.907 18.898C929.507 12.0432 919.907 12.0432 948.698 6.56093C977.49 1.0787 969.266 -1.66648 984.348 1.07463C999.426 3.81981 1003.54 3.81981 1019.99 6.56093C1036.45 9.30204 1040.56 5.1924 1055.64 9.30204C1070.71 13.4117 1077.57 12.0432 1089.91 12.0432H1128.3C1147.5 12.0432 1165.32 1.07464 1172.18 7.92945C1179.03 14.7843 1183.14 12.0432 1206.45 14.7843C1229.76 17.5254 1239.36 12.0391 1248.95 14.7843C1258.55 17.5294 1275.01 13.4157 1294.2 14.7843C1313.39 16.1528 1322.99 13.4157 1329.85 13.4157C1336.7 13.4157 1343.55 3.81575 1353.15 12.0432C1362.75 20.2706 1375.09 9.30204 1376.46 20.2706C1377.83 31.2391 1395.65 23.0117 1377.83 31.2391C1360.01 39.4665 1362.75 38.0939 1350.41 49.0624C1338.07 60.0309 1358.63 69.6269 1332.58 79.2269C1306.53 88.8269 1302.42 73.7406 1295.56 90.1954C1288.71 106.65 1295.56 110.76 1294.2 118.987C1292.82 127.211 1290.08 128.583 1281.85 135.438C1273.63 142.293 1273.63 135.438 1254.44 139.552C1235.24 143.665 1221.53 147.779 1213.31 147.779C1205.08 147.779 1187.26 154.634 1181.77 157.375C1176.28 160.116 1191.37 164.23 1162.58 172.457C1133.78 180.685 1126.93 179.316 1118.7 190.281C1110.48 201.245 1113.22 202.626 1107.73 209.481C1102.25 216.335 1085.8 243.759 1077.57 236.904C1069.35 230.049 1065.23 231.418 1058.37 224.563C1051.52 217.708 1047.41 208.112 1043.29 202.626C1039.18 197.14 1037.81 183.43 1036.44 175.202C1035.07 166.975 1022.72 147.783 1036.44 150.524C1050.15 153.265 1058.37 151.897 1062.49 149.156C1066.6 146.415 1070.71 136.815 1070.71 136.815C1070.71 136.815 1069.35 121.732 1065.23 113.505C1061.11 105.278 1063.86 98.4228 1057.01 90.1995C1050.15 81.9721 1050.15 83.3446 1040.55 75.1172C1030.95 66.8898 1033.7 62.7761 1018.61 61.4076C1003.53 60.0391 999.418 55.9213 993.932 57.2939C988.446 58.6665 970.627 47.6939 989.818 46.3254C1009.01 44.9568 1026.84 47.6939 1026.84 47.6939C1026.84 47.6939 1051.51 36.7254 1043.29 35.3569C1035.07 33.9843 1055.63 21.6432 1036.44 25.7569C1017.25 29.8706 995.309 35.3568 989.822 36.7254C984.336 38.0939 970.627 39.4665 956.917 43.5802C943.208 47.6939 926.753 46.3254 918.53 55.9213C910.303 65.5172 918.53 66.8898 910.303 65.5172C902.079 64.1487 917.157 55.9213 897.966 65.5172C878.774 75.1132 884.256 73.7446 874.661 71.0035C865.061 68.2624 858.206 64.1487 858.206 64.1487C858.206 64.1487 870.551 62.7761 852.724 61.4076C834.897 60.0391 834.901 60.0391 828.046 51.8076C821.191 43.5761 825.305 43.5802 829.415 40.8391C833.524 38.098 836.273 32.6076 836.273 32.6076V32.6076Z" fill="#DBDBDB"/>
<path d="M806.11 94.3042C799.255 101.159 782.8 110.759 786.918 114.873C791.036 118.986 793.773 134.069 802 129.955C810.223 125.841 800.627 112.132 832.16 123.1C863.697 134.069 860.951 121.732 867.806 138.182C874.661 154.633 880.143 166.97 876.029 171.088C871.916 175.206 870.547 179.315 856.834 183.429C843.12 187.543 837.638 193.029 847.238 199.88C856.838 206.731 874.661 213.589 882.884 217.707C891.107 221.825 915.789 223.193 903.448 209.484C891.107 195.774 906.189 191.656 906.189 191.656C906.189 191.656 929.499 209.484 921.275 188.915C913.052 168.347 907.562 168.351 913.048 168.351C918.534 168.351 929.499 175.206 929.499 175.206L934.985 164.237L929.499 146.414L911.676 128.59C911.676 128.59 926.753 114.881 906.189 112.14C885.625 109.399 886.994 109.399 876.025 102.54C865.057 95.6808 863.688 92.9438 843.12 97.0575C822.552 101.171 815.701 103.912 815.701 103.912L806.11 94.3042V94.3042Z" fill="#DBDBDB"/>
<path d="M1459.54 352.379C1463.93 345.952 1473.7 329.377 1468.47 325.758C1463.24 322.142 1467.89 313.066 1460.51 309.219C1453.12 305.372 1442.08 300.88 1438.77 296.7C1435.46 292.52 1443.04 285.162 1438.77 281.263C1434.5 277.367 1446.97 255.717 1434.42 262.81C1427 272.888 1415.96 263.915 1417.54 272.888C1419.11 281.862 1414.19 293.59 1418.23 296.7C1422.27 299.81 1429 300.055 1427 307.5C1425 314.945 1421.15 313.855 1425.15 320.406C1429.15 326.957 1425.77 329.658 1429.11 330.395C1432.46 331.135 1432.88 336.155 1441.31 332.838C1449.73 329.52 1439.92 338.721 1441.31 343.463C1442.69 348.202 1451.04 341.144 1454.85 343.463C1458.66 345.782 1459.54 352.379 1459.54 352.379Z" fill="#DBDBDB"/>
<path d="M1512.37 807.76C1520.6 799.532 1542.54 780.34 1550.76 785.822C1558.99 791.305 1571.32 781.709 1580.92 789.936C1590.52 798.164 1601.49 807.76 1609.71 810.501C1617.94 813.242 1627.54 803.646 1635.76 807.76C1643.99 811.873 1672.78 787.195 1667.3 806.391C1661.82 825.587 1674.15 831.069 1659.07 832.442C1643.99 833.814 1627.54 844.783 1620.68 840.669C1613.82 836.555 1608.34 832.442 1597.37 837.928C1586.4 843.414 1591.89 843.41 1579.55 840.669C1567.21 837.928 1564.47 843.41 1561.73 839.297C1558.98 835.187 1550.76 836.555 1552.13 824.214C1553.5 811.873 1557.61 813.246 1549.38 813.246C1541.16 813.246 1534.3 814.618 1528.82 810.505C1523.33 806.391 1512.37 807.76 1512.37 807.76Z" fill="#DBDBDB"/>
</svg>
