<svg width="5233" height="2860" viewBox="0 0 5233 2860" fill="none" xmlns="http://www.w3.org/2000/svg">
<g filter="url(#filter0_d)">
<path d="M2300.5 708.633C2302.55 706.595 2309.13 700.577 2311.16 700.594C2313.2 700.615 2315.56 699.054 2317.04 699.78C2318.52 700.506 2322.11 700.853 2324.37 695.978C2326.62 691.102 2329.16 688.756 2330.25 689.4C2331.34 690.044 2329.88 681.501 2335.84 686.053C2341.81 690.605 2340.72 684.201 2341.83 682.789C2342.95 681.377 2341.91 676.631 2341.86 674.973C2341.8 673.314 2341.21 670.308 2340.15 667.616C2339.09 664.924 2338.5 661.916 2335.61 662.122C2332.71 662.329 2324.29 659.729 2324.29 659.729C2324.29 659.729 2321.42 657.886 2319.47 657.474C2317.52 657.062 2316.96 657.767 2315.79 657.52C2314.62 657.273 2311.45 660.72 2311.75 661.194C2312.06 661.674 2312.98 663.101 2310.14 664.972C2307.3 666.843 2304.4 667.051 2303.42 669.727C2302.45 672.403 2303.62 672.649 2302.12 673.981C2300.61 675.313 2297.97 674.334 2298.41 676.078C2298.86 677.822 2297.38 677.096 2298.28 680.58C2299.17 684.065 2300.87 685.658 2298.48 689.269C2296.08 692.88 2294.35 693.337 2294.24 695.783C2294.14 698.23 2291.63 698.524 2293.78 701.861C2295.92 705.194 2296.93 706.231 2298.71 707.436L2300.5 708.633Z" fill="white"/>
<path d="M3262.53 1912.85C3258.41 1927.96 3243.31 1949.92 3243.31 1949.92L3215.84 1963.65C3215.84 1963.65 3206.24 1971.89 3200.74 1973.26C3195.25 1974.63 3181.52 1981.5 3181.52 1981.5C3181.52 1981.5 3169.17 1978.75 3173.28 1991.11C3177.4 2003.46 3178.78 2018.57 3177.4 2022.69C3176.03 2026.81 3176.03 2035.05 3176.03 2046.04C3176.03 2057.02 3171.91 2070.74 3165.04 2073.49C3158.18 2076.23 3151.31 2078.98 3152.69 2088.6C3154.06 2098.21 3154.06 2127.04 3154.06 2127.04L3171.92 2154.5C3171.92 2154.5 3177.41 2150.39 3188.4 2150.39C3199.38 2150.39 3210.36 2140.78 3210.36 2140.78C3210.36 2140.78 3222.73 2143.52 3221.34 2128.43C3219.97 2113.32 3226.84 2095.47 3225.46 2091.35C3224.09 2087.23 3237.82 2069.38 3237.82 2065.26C3237.82 2061.14 3251.55 2041.93 3251.55 2035.06C3251.55 2028.18 3261.16 2017.21 3262.53 2008.98C3263.91 2000.75 3265.28 1981.52 3268.02 1976.03C3270.77 1970.54 3272.15 1965.04 3272.15 1959.55C3272.15 1954.06 3272.15 1943.07 3272.15 1943.07L3262.53 1912.85Z" fill="white"/>
<path d="M4337.57 2098.21C4333.46 2103.7 4330.71 2162.75 4327.97 2169.61C4325.22 2176.47 4319.73 2212.17 4322.48 2220.4C4325.24 2228.63 4329.34 2258.85 4326.6 2268.47C4323.86 2278.08 4327.97 2308.28 4321.1 2306.91C4314.24 2305.53 4311.5 2308.29 4311.5 2312.4C4311.5 2316.52 4321.1 2324.75 4321.1 2324.75C4321.1 2324.75 4337.59 2324.76 4344.45 2323.38C4351.31 2322 4365.04 2315.14 4376.03 2315.14C4387.02 2315.14 4393.88 2306.9 4403.48 2306.9C4413.1 2306.9 4433.7 2300.04 4439.19 2302.78C4444.68 2305.52 4452.91 2286.3 4462.53 2290.43C4472.14 2294.55 4492.74 2280.81 4502.35 2280.81C4511.95 2280.81 4516.08 2265.7 4527.06 2268.46C4538.05 2271.22 4558.64 2262.97 4568.26 2267.08C4577.85 2271.21 4592.97 2253.35 4599.83 2267.08C4606.69 2280.8 4627.3 2286.3 4627.3 2293.17C4627.3 2300.03 4625.91 2315.14 4625.91 2315.14L4642.39 2313.76C4642.39 2313.76 4668.47 2297.28 4672.6 2297.28C4676.73 2297.28 4686.33 2283.56 4686.33 2290.43C4686.33 2297.28 4678.08 2312.4 4675.34 2319.26C4672.6 2326.12 4678.08 2334.37 4678.08 2334.37C4678.08 2334.37 4691.82 2341.23 4686.33 2353.58C4680.83 2365.94 4687.69 2363.2 4686.33 2372.8C4684.95 2382.42 4686.33 2378.29 4691.8 2383.78C4697.28 2389.27 4706.93 2398.91 4715.15 2397.52C4723.38 2396.14 4726.13 2387.91 4733 2392.03C4739.87 2396.15 4753.59 2393.4 4757.71 2398.9C4761.84 2404.38 4731.63 2418.11 4783.8 2394.78C4835.98 2371.45 4841.45 2365.94 4848.32 2357.7C4855.19 2349.46 4863.44 2341.23 4868.92 2335.73C4874.4 2330.24 4870.31 2331.61 4886.77 2319.26C4903.25 2306.9 4903.25 2312.39 4918.36 2289.05C4933.48 2265.7 4944.44 2257.47 4947.2 2253.35C4949.95 2249.23 4955.43 2247.86 4956.8 2231.37C4958.18 2214.9 4969.16 2199.8 4969.16 2194.31C4969.16 2188.82 4973.27 2180.59 4971.9 2170.97C4970.53 2161.35 4977.4 2147.64 4969.16 2133.9C4960.92 2120.17 4973.27 2114.69 4960.92 2109.18C4948.56 2103.67 4940.32 2106.44 4937.58 2096.83C4934.83 2087.21 4923.84 2088.59 4919.72 2062.5C4915.61 2036.42 4899.13 2033.66 4899.13 2033.66C4899.13 2033.66 4882.65 2026.8 4886.77 2024.06C4890.89 2021.32 4892.27 2002.08 4890.9 1996.59C4889.52 1991.1 4889.52 1978.74 4885.41 1970.51C4881.29 1962.27 4878.54 1951.29 4874.42 1941.67C4870.31 1932.05 4863.44 1929.31 4860.69 1918.33C4857.94 1907.35 4853.82 1903.22 4852.46 1900.48C4851.07 1897.74 4848.32 1884.01 4845.59 1899.11C4842.84 1914.21 4837.34 1943.04 4837.34 1943.04C4837.34 1943.04 4826.36 1966.39 4822.24 1973.25C4818.12 1980.11 4814 1997.96 4807.14 1996.58C4800.28 1995.21 4796.14 2003.46 4790.67 2002.07C4785.19 2000.69 4776.94 2003.45 4772.82 1999.34C4768.7 1995.22 4757.71 1984.23 4752.22 1982.85C4746.73 1981.49 4742.61 1970.51 4738.49 1970.51C4734.36 1970.51 4727.5 1960.89 4728.88 1955.4C4730.25 1949.91 4731.62 1937.55 4733 1932.06C4734.36 1926.57 4742.61 1914.2 4742.61 1914.2C4742.61 1914.2 4742.61 1905.97 4735.74 1905.97C4728.87 1905.97 4727.5 1905.97 4712.4 1904.59C4697.29 1903.21 4693.19 1901.84 4687.68 1901.84C4682.17 1901.84 4693.18 1899.1 4678.07 1903.22C4662.96 1907.33 4656.11 1918.33 4646.49 1927.94C4636.9 1937.55 4645.13 1934.8 4636.9 1937.55C4628.67 1940.3 4630.03 1930.68 4624.53 1945.79C4619.04 1960.9 4627.29 1965 4623.15 1967.76C4619.01 1970.51 4590.21 1958.15 4590.21 1958.15C4590.21 1958.15 4597.07 1956.77 4591.58 1949.91C4586.08 1943.04 4580.6 1933.44 4572.37 1937.55C4564.14 1941.67 4557.25 1944.42 4551.77 1951.29C4546.29 1958.15 4546.27 1963.64 4542.15 1969.13C4538.04 1974.62 4527.06 1974.62 4525.68 1980.11C4524.3 1985.61 4524.31 1999.34 4520.19 2000.71C4516.08 2002.09 4514.7 1995.23 4510.59 1993.85C4506.47 1992.48 4507.84 1981.49 4505.1 1988.36C4502.36 1995.23 4499.61 1993.85 4495.49 2004.83C4491.36 2015.82 4489.99 2025.43 4485.88 2026.8C4481.76 2028.18 4485.88 2029.55 4473.51 2036.42C4461.17 2043.28 4458.41 2043.28 4440.57 2051.52C4422.73 2059.76 4426.85 2059.76 4414.49 2061.13C4402.14 2062.51 4399.38 2066.63 4391.14 2068C4382.9 2069.37 4377.42 2070.74 4369.17 2078.98C4360.93 2087.22 4354.08 2089.96 4348.59 2091.34C4343.1 2092.72 4337.57 2098.21 4337.57 2098.21V2098.21Z" fill="white"/>
<path d="M4418.57 1555.86C4413.09 1564.11 4395.24 1588.82 4388.38 1590.2C4381.51 1591.56 4374.64 1598.44 4369.15 1597.06C4363.66 1595.68 4351.3 1597.06 4347.19 1614.91C4343.07 1632.76 4336.2 1642.37 4332.07 1640.99C4327.94 1639.61 4338.93 1667.08 4315.6 1656.1C4292.27 1645.13 4300.5 1665.72 4297.75 1671.21C4295 1676.71 4301.87 1691.81 4303.24 1697.3C4304.63 1702.79 4308.73 1712.4 4314.23 1720.63C4319.73 1728.86 4323.84 1738.48 4333.45 1735.74C4343.06 1733.01 4373.26 1735.74 4373.26 1735.74C4373.26 1735.74 4384.26 1739.86 4391.11 1739.86C4397.97 1739.86 4399.35 1737.12 4403.46 1737.12C4407.58 1737.12 4415.82 1723.38 4414.45 1722.01C4413.08 1720.63 4408.97 1716.52 4417.2 1708.28C4425.42 1700.03 4435.04 1697.3 4436.42 1687.68C4437.8 1678.07 4433.68 1678.07 4437.8 1672.57C4441.91 1667.07 4451.52 1668.47 4448.78 1662.96C4446.04 1657.46 4451.52 1658.85 4446.03 1647.85C4440.54 1636.86 4433.67 1632.75 4439.16 1619.02C4444.65 1605.29 4450.16 1602.54 4448.78 1594.31C4447.4 1586.07 4455.64 1583.32 4446.03 1573.71C4436.43 1564.11 4432.31 1561.35 4425.44 1558.6L4418.57 1555.86V1555.86Z" fill="white"/>
<path d="M4687.68 1693.17C4693.18 1691.8 4712.4 1678.07 4713.78 1702.78C4715.16 1727.5 4716.51 1720.63 4724.76 1734.36C4733.02 1748.09 4738.48 1752.22 4748.09 1745.35C4757.7 1738.48 4768.68 1738.48 4771.43 1726.13C4774.18 1713.77 4774.18 1713.77 4782.41 1713.77C4790.65 1713.77 4793.4 1712.4 4797.54 1717.9C4801.65 1723.38 4804.38 1717.89 4822.24 1727.5C4840.1 1737.11 4855.19 1734.36 4866.18 1743.98C4877.18 1753.6 4882.66 1752.22 4897.76 1757.71C4912.85 1763.19 4905.99 1754.96 4919.72 1770.07C4933.45 1785.17 4927.98 1789.28 4934.83 1796.15C4941.69 1803.01 4947.19 1790.66 4944.44 1807.13C4941.69 1823.61 4922.47 1807.13 4951.31 1830.46C4980.14 1853.8 4984.26 1857.94 4993.86 1864.8C5003.48 1871.66 5010.34 1879.91 5002.12 1879.91C4993.89 1879.91 4967.78 1879.91 4965.05 1875.78C4962.31 1871.66 4949.94 1868.91 4941.7 1859.31C4933.47 1849.7 4915.62 1842.83 4911.51 1834.59C4907.38 1826.35 4901.89 1823.61 4895.02 1823.61C4888.16 1823.61 4881.3 1831.84 4871.68 1841.46C4862.06 1851.07 4866.2 1835.97 4853.83 1840.08C4841.47 1844.21 4827.75 1838.71 4820.88 1833.22C4814.01 1827.73 4815.4 1819.49 4804.42 1823.61C4793.44 1827.73 4786.57 1824.98 4790.69 1816.75C4794.8 1808.51 4792.05 1797.52 4792.05 1797.52C4792.05 1797.52 4796.18 1783.79 4786.57 1781.05C4776.97 1778.31 4776.96 1768.7 4767.35 1765.94C4757.73 1763.18 4742.64 1756.33 4742.64 1756.33C4742.64 1756.33 4741.26 1756.33 4737.14 1754.96C4733.02 1753.59 4733.02 1753.58 4722.04 1750.84C4711.05 1748.1 4702.81 1750.83 4697.33 1743.97C4691.82 1737.11 4694.57 1727.5 4694.57 1727.5C4694.57 1727.5 4716.54 1730.24 4694.57 1713.76L4672.61 1697.29C4672.61 1697.29 4675.34 1695.91 4673.98 1693.17C4672.59 1690.41 4687.68 1693.17 4687.68 1693.17Z" fill="white"/>
<path d="M4069.82 1579.18C4069.82 1579.18 4076.69 1586.05 4087.67 1584.67C4098.66 1583.3 4106.88 1606.64 4113.76 1614.88C4120.62 1623.12 4124.75 1627.23 4139.85 1636.85C4154.94 1646.46 4153.57 1628.61 4174.17 1657.44C4194.77 1686.28 4185.15 1668.43 4194.76 1686.27C4204.37 1704.14 4209.87 1713.74 4215.36 1717.87C4220.85 1722 4224.97 1732.96 4226.35 1737.09C4227.72 1741.2 4237.32 1753.56 4237.32 1757.68C4237.32 1761.8 4240.07 1772.78 4231.84 1782.39C4223.6 1792 4216.73 1793.38 4216.73 1793.38C4216.73 1793.38 4200.25 1785.14 4194.76 1776.9C4189.27 1768.67 4182.41 1761.8 4172.79 1745.33C4163.17 1728.86 4152.2 1711 4146.71 1702.76C4141.22 1694.52 4132.98 1686.27 4128.86 1678.04C4124.74 1669.81 4113.76 1645.09 4108.27 1642.34C4102.78 1639.59 4101.4 1631.36 4091.78 1621.74C4082.18 1612.13 4083.55 1603.9 4079.43 1598.41C4075.31 1592.92 4065.71 1580.54 4065.71 1580.54L4069.82 1579.18Z" fill="white"/>
<path d="M4676.54 902.401C4678.17 900.788 4682.97 895.391 4684.98 896.036C4686.59 896.052 4688.47 894.817 4689.64 895.391C4690.81 895.966 4690.11 894.737 4695.44 892.38C4697.22 888.52 4700.09 888.924 4700.09 887.172C4700.96 887.682 4700.68 887.763 4704.53 884.522C4709.68 880.188 4708.39 883.055 4709.27 881.937C4710.15 880.819 4709.33 877.061 4709.29 875.748C4709.24 874.434 4710.13 874.417 4709.29 872.285C4708.45 870.154 4706.67 867.501 4704.38 867.665C4702.08 867.828 4695.38 863.677 4695.38 863.677C4695.38 863.677 4693.1 862.218 4691.56 861.891C4690.02 861.565 4690.56 861.032 4689.64 860.837C4688.71 860.641 4685.21 864.461 4685.45 864.837C4685.69 865.217 4686.42 866.347 4684.17 867.828C4681.92 869.31 4679.63 869.474 4678.85 871.594C4678.08 873.713 4677.73 872.866 4676.54 873.921C4675.34 874.975 4674.53 875.242 4674.89 876.623C4675.24 878.004 4674.07 877.428 4674.78 880.188C4675.49 882.947 4676.83 884.209 4674.94 887.068C4673.04 889.928 4671.67 890.289 4671.59 892.226C4671.5 894.164 4669.51 894.397 4671.21 897.039C4672.91 899.678 4673.71 900.5 4675.12 901.453L4676.54 902.401Z" fill="white"/>
<path d="M2344 1009.41L2323.4 1036.86L2309.67 1050.59L2282.22 1065.69L2278.1 1078.05C2278.1 1078.05 2267.11 1089.04 2268.49 1095.9C2269.87 1102.77 2269.87 1115.13 2269.87 1115.13C2269.87 1115.13 2250.65 1132.98 2242.41 1138.47C2234.16 1143.96 2223.18 1156.31 2223.18 1156.31C2223.18 1156.31 2216.32 1164.56 2212.2 1167.3C2208.08 1170.05 2201.22 1178.28 2195.72 1186.52C2190.23 1194.76 2184.74 1200.25 2181.99 1204.36C2179.25 1208.48 2171.01 1218.1 2166.89 1233.2C2162.77 1248.3 2151.78 1266.15 2151.78 1266.15L2149.03 1273.02C2150.41 1296.36 2150.41 1300.48 2153.16 1308.72C2155.91 1316.96 2158.65 1314.2 2155.9 1332.06C2153.16 1349.9 2153.16 1356.77 2150.41 1365.01C2147.67 1373.25 2139.43 1388.34 2136.69 1395.22C2133.95 1402.09 2142.18 1414.43 2142.18 1414.43C2142.18 1414.43 2146.3 1432.29 2143.55 1436.41C2140.8 1440.53 2144.92 1448.77 2144.92 1448.77C2144.92 1448.77 2161.4 1458.37 2166.89 1463.87C2172.39 1469.37 2182 1477.6 2183.37 1481.72C2184.74 1485.84 2195.73 1505.06 2197.1 1509.18C2198.47 1513.3 2209.46 1528.4 2212.2 1532.52C2214.95 1536.64 2228.68 1551.75 2228.68 1551.75C2228.68 1551.75 2246.53 1565.47 2250.65 1570.96C2254.78 1576.46 2267.13 1579.2 2271.24 1583.32C2275.36 1587.43 2284.97 1586.05 2290.46 1590.18C2295.95 1594.31 2306.94 1587.43 2312.43 1590.18C2317.93 1592.94 2333.03 1587.44 2337.15 1584.69C2341.27 1581.95 2350.87 1572.34 2357.74 1576.45C2364.61 1580.56 2368.72 1576.45 2374.22 1577.83C2379.71 1579.2 2387.94 1572.34 2393.43 1572.34C2398.92 1572.34 2412.65 1566.84 2416.77 1566.84C2420.89 1566.84 2434.63 1558.6 2440.12 1558.6C2445.62 1558.6 2452.47 1553.12 2459.34 1555.86C2466.2 1558.6 2463.45 1550.37 2475.81 1554.49C2488.17 1558.6 2492.29 1554.49 2496.41 1558.6C2500.53 1562.72 2506.03 1558.61 2510.14 1564.1C2514.26 1569.58 2521.12 1573.7 2522.5 1579.2C2523.87 1584.69 2532.1 1590.19 2532.1 1590.19L2540.34 1591.56C2540.34 1591.56 2551.34 1583.32 2554.07 1588.82C2556.81 1594.31 2569.18 1592.94 2569.18 1592.94L2581.53 1606.67L2585.65 1612.16C2585.65 1612.16 2593.9 1634.13 2592.52 1642.36C2591.14 1650.6 2591.14 1668.45 2587.03 1672.57C2582.91 1676.69 2580.16 1694.54 2580.16 1694.54C2580.16 1694.54 2574.67 1700.03 2587.03 1711.01C2599.39 1722 2607.63 1731.61 2611.74 1737.09C2615.87 1742.59 2626.85 1757.7 2628.21 1767.31C2629.59 1776.91 2632.34 1782.4 2637.83 1794.76C2643.33 1807.12 2650.19 1808.49 2651.56 1822.23C2652.93 1835.97 2655.68 1835.96 2654.3 1845.56C2652.93 1855.18 2648.81 1856.55 2652.93 1863.41C2657.05 1870.28 2662.53 1882.64 2661.17 1886.76C2659.8 1890.88 2657.05 1908.73 2657.05 1908.73L2654.3 1916.97L2641.95 1940.32L2633.71 1952.66C2630.96 1962.27 2625.47 1971.89 2626.85 1985.62C2628.21 1999.35 2619.98 1999.34 2630.96 2013.07C2641.94 2026.79 2647.43 2041.91 2654.3 2054.27C2661.17 2066.62 2665.29 2078.98 2666.66 2087.21C2668.03 2095.46 2673.52 2098.21 2676.27 2109.19C2679.01 2120.17 2680.39 2125.66 2680.39 2132.53C2680.39 2139.39 2679.01 2157.24 2681.76 2161.36C2684.52 2165.48 2685.88 2177.84 2687.25 2183.33C2688.63 2188.83 2683.13 2190.2 2691.37 2199.82C2699.61 2209.43 2705.1 2214.91 2710.59 2221.78C2716.08 2228.65 2714.71 2225.9 2718.83 2235.51C2722.96 2245.13 2728.44 2250.62 2729.82 2258.85C2731.2 2267.08 2732.56 2287.68 2736.68 2297.3C2740.81 2306.91 2746.29 2316.52 2746.29 2316.52C2746.29 2316.52 2761.4 2326.13 2766.89 2324.76C2772.37 2323.39 2783.37 2311.04 2791.61 2315.15C2799.85 2319.27 2806.71 2315.15 2813.57 2315.15C2820.43 2315.15 2827.3 2306.91 2834.17 2306.91C2841.04 2306.91 2850.64 2295.92 2856.14 2298.67C2861.65 2301.43 2868.49 2295.92 2875.36 2289.05C2882.23 2282.2 2886.34 2276.71 2898.7 2265.72C2911.05 2254.74 2909.68 2254.73 2917.92 2247.87C2926.15 2241 2934.4 2225.89 2944.01 2223.15C2953.61 2220.4 2956.36 2210.8 2959.1 2203.93C2961.85 2197.06 2963.22 2192.95 2967.35 2187.45C2971.47 2181.95 2968.72 2188.84 2975.59 2170.98C2982.45 2153.12 2990.7 2146.27 2997.56 2142.15C3004.43 2138.02 3008.54 2129.79 3012.66 2128.41C3016.78 2127.04 3023.65 2132.53 3020.9 2120.17C3018.16 2107.82 3020.9 2089.97 3018.16 2085.85C3015.42 2081.74 3011.29 2095.46 3012.67 2074.86C3014.05 2054.26 3029.14 2033.67 3029.14 2033.67C3029.14 2033.67 3049.74 2007.58 3056.61 2003.47C3063.47 1999.35 3064.84 1995.23 3074.46 1989.73C3084.06 1984.25 3104.66 1970.52 3104.66 1963.65C3104.66 1956.78 3112.9 1938.93 3112.9 1934.81C3112.9 1930.69 3112.9 1926.57 3110.16 1903.23C3107.42 1879.88 3112.9 1885.38 3104.67 1863.41C3096.43 1841.45 3095.05 1813.98 3089.56 1807.12C3084.08 1800.26 3086.81 1782.4 3086.81 1776.91C3086.81 1771.43 3096.43 1757.69 3100.55 1752.2C3104.67 1746.71 3122.52 1724.73 3122.52 1724.73C3122.52 1724.73 3149.97 1693.16 3159.58 1678.06C3169.2 1662.95 3178.81 1649.23 3185.67 1643.74C3192.53 1638.25 3209.01 1625.88 3218.62 1612.15C3228.23 1598.43 3247.45 1572.34 3248.83 1568.21C3250.2 1564.1 3261.18 1550.37 3261.18 1550.37C3261.18 1550.37 3276.28 1532.51 3279.03 1522.91C3281.77 1513.29 3295.5 1459.75 3292.75 1462.49C3290.01 1465.24 3273.54 1467.98 3268.04 1469.35C3262.56 1470.73 3276.29 1476.22 3236.46 1473.48C3196.64 1470.74 3176.06 1477.59 3176.06 1477.59C3163.7 1474.84 3154.09 1488.57 3149.96 1469.35C3145.84 1450.13 3143.1 1439.15 3134.87 1425.42C3126.64 1411.69 3121.13 1406.2 3108.78 1388.34C3096.43 1370.5 3097.79 1378.73 3086.81 1365.01C3075.82 1351.29 3073.08 1355.39 3066.21 1337.55C3059.35 1319.7 3053.86 1326.57 3045.62 1301.85C3037.38 1277.13 3031.89 1274.38 3027.77 1260.66C3023.65 1246.93 3018.16 1242.8 3015.41 1230.45C3012.67 1218.09 2981.09 1154.94 2976.97 1150.81C2972.85 1146.7 2965.98 1124.72 2967.36 1128.85C2968.74 1132.96 2987.96 1146.69 2987.96 1146.69C2987.96 1146.69 2998.94 1142.57 3003.06 1142.57C3007.18 1142.57 3023.65 1157.68 3023.65 1163.16C3023.65 1168.65 3052.5 1194.75 3059.36 1213.97C3066.22 1233.19 3074.47 1246.92 3075.83 1252.42C3077.19 1257.91 3090.94 1279.88 3096.43 1288.12C3101.93 1296.36 3119.76 1312.83 3122.51 1321.07C3125.25 1329.31 3151.35 1356.77 3151.35 1374.62C3151.35 1392.47 3163.7 1415.81 3165.07 1421.3C3166.45 1426.79 3191.16 1433.66 3191.16 1433.66L3224.12 1425.42C3224.12 1425.42 3273.54 1393.83 3279.03 1393.83C3284.53 1393.83 3328.47 1373.24 3328.47 1373.24C3328.47 1373.24 3346.31 1356.77 3358.66 1347.16C3371.01 1337.55 3384.75 1319.71 3387.5 1311.46C3390.25 1303.21 3395.74 1301.85 3406.72 1289.49C3417.7 1277.12 3432.81 1264.77 3423.2 1256.53C3413.59 1248.29 3408.09 1251.04 3394.36 1237.31C3380.64 1223.58 3382.01 1226.33 3372.39 1208.48C3362.78 1190.63 3373.77 1170.03 3353.17 1190.63C3332.57 1211.23 3340.81 1216.72 3320.21 1220.85C3299.63 1224.96 3291.38 1238.69 3281.77 1224.96C3272.16 1211.23 3262.56 1219.47 3257.06 1198.87C3251.55 1178.27 3247.44 1176.9 3246.08 1168.67C3244.71 1160.44 3246.08 1160.43 3235.09 1139.83C3224.1 1119.23 3232.34 1087.65 3239.21 1105.5C3246.07 1123.35 3257.06 1126.09 3274.91 1138.45C3292.75 1150.81 3301 1160.43 3317.47 1161.8C3333.94 1163.16 3347.68 1161.8 3350.42 1164.54C3353.17 1167.28 3355.91 1163.17 3362.78 1165.91C3369.65 1168.65 3372.38 1161.8 3375.13 1172.77C3377.88 1183.75 3392.98 1185.13 3399.84 1191.99C3406.7 1198.86 3406.71 1196.12 3424.57 1198.86C3442.42 1201.6 3467.14 1201.61 3467.14 1201.61L3493.21 1200.23L3523.42 1202.97C3523.42 1202.97 3545.4 1215.33 3550.88 1215.33C3556.37 1215.33 3557.75 1230.44 3571.48 1238.67C3585.21 1246.91 3587.95 1248.28 3596.19 1257.89C3604.42 1267.51 3603.06 1271.62 3614.04 1281.23C3625.02 1290.84 3642.88 1279.87 3645.63 1275.75C3648.36 1271.63 3662.09 1264.77 3659.36 1275.75C3656.62 1286.74 3673.08 1282.61 3668.96 1308.71C3664.84 1334.8 3662.09 1327.92 3668.96 1345.78C3675.83 1363.63 3706.03 1418.55 3707.41 1435.02C3708.79 1451.5 3717.01 1446.01 3718.39 1461.12C3719.76 1476.23 3727.99 1481.71 3727.99 1492.69C3727.99 1503.68 3737.61 1506.42 3738.98 1514.66C3740.37 1522.91 3755.46 1516.03 3759.58 1514.66C3763.7 1513.29 3782.92 1495.44 3782.92 1495.44C3782.92 1495.44 3791.17 1492.7 3789.79 1478.96C3788.4 1465.22 3789.79 1467.98 3789.79 1447.39C3789.79 1426.79 3781.55 1426.79 3785.67 1406.2C3789.79 1385.62 3800.77 1373.25 3803.52 1363.64C3806.27 1354.03 3817.25 1337.55 3822.73 1336.18C3828.22 1334.8 3858.44 1319.71 3865.3 1310.09C3872.17 1300.47 3883.15 1289.49 3894.14 1278.51C3905.12 1267.53 3924.34 1253.8 3928.46 1257.92C3932.59 1262.03 3931.21 1260.66 3938.08 1260.66C3944.94 1260.66 3957.3 1266.16 3966.9 1267.53C3976.52 1268.9 3995.74 1292.24 3999.86 1304.6C4003.98 1316.96 4001.23 1314.21 4016.34 1332.06C4031.44 1349.91 4045.17 1338.92 4045.17 1360.89C4045.17 1382.87 4045.17 1381.49 4052.04 1389.73C4058.91 1397.97 4067.14 1374.62 4075.37 1377.38C4083.61 1380.13 4084.98 1374.63 4091.84 1396.6C4098.71 1418.56 4102.82 1418.57 4104.21 1440.54C4105.57 1462.5 4102.83 1441.91 4102.83 1459.75C4102.83 1477.61 4101.45 1478.98 4104.21 1495.45C4106.96 1511.92 4116.55 1517.43 4115.19 1520.17C4115.19 1520.17 4123.42 1496.83 4120.67 1480.35C4117.92 1463.87 4120.67 1440.54 4127.54 1433.68C4134.41 1426.82 4141.28 1419.95 4146.76 1437.8C4152.26 1455.64 4155 1441.91 4167.35 1462.51C4179.72 1483.11 4190.7 1478.98 4192.07 1488.59C4193.44 1498.21 4200.32 1499.59 4209.92 1507.81C4219.53 1516.06 4227.77 1506.45 4238.75 1498.21C4249.74 1489.97 4279.94 1459.76 4281.32 1447.4C4282.69 1435.05 4295.05 1437.79 4273.08 1406.22C4251.11 1374.65 4251.11 1363.65 4227.77 1344.43C4204.44 1325.21 4190.7 1323.84 4208.56 1299.12C4226.41 1274.4 4234.65 1257.93 4245.63 1264.8C4256.61 1271.67 4275.82 1270.28 4275.82 1297.75C4275.82 1325.22 4270.33 1355.42 4289.55 1322.46C4308.77 1289.51 4318.39 1270.29 4312.89 1275.79C4307.39 1281.29 4325.25 1264.8 4325.25 1264.8C4325.25 1264.8 4326.63 1252.45 4349.97 1246.96C4373.32 1241.47 4380.17 1238.71 4388.42 1234.6C4396.65 1230.47 4419.99 1203.01 4424.11 1190.66C4428.23 1178.3 4439.22 1156.33 4436.47 1146.72C4433.73 1137.12 4419.99 1090.43 4417.24 1091.8C4414.5 1093.18 4415.88 1093.18 4398.03 1073.96C4380.17 1054.74 4367.82 1041 4365.08 1032.76C4362.33 1024.52 4355.46 1023.15 4363.7 1012.17C4371.93 1001.19 4376.06 1002.56 4377.44 992.947C4378.81 983.333 4389.78 975.098 4369.19 981.967C4348.59 988.836 4363.7 984.718 4345.85 983.346C4328 981.973 4281.33 992.953 4304.67 964.124C4328.01 935.295 4334.86 917.446 4338.98 917.446C4343.11 917.446 4363.7 894.101 4365.07 916.068C4366.45 938.034 4374.68 932.538 4376.06 946.269C4377.44 960.001 4404.89 931.171 4404.89 931.171C4404.89 931.171 4414.5 933.916 4421.36 940.779C4428.22 947.642 4428.23 969.614 4428.23 969.614C4428.23 969.614 4422.74 962.746 4437.84 973.732C4452.95 984.718 4469.42 979.222 4469.42 1002.57C4469.42 1025.91 4469.42 1027.28 4479.03 1032.77C4488.64 1038.26 4498.24 1035.53 4506.5 1028.66C4514.75 1021.79 4528.46 997.077 4528.46 997.077C4528.46 997.077 4529.83 987.463 4507.86 973.732C4485.9 960.001 4472.17 950.399 4463.94 943.53C4455.71 936.662 4458.44 916.074 4466.67 907.826C4474.9 899.579 4479.03 895.468 4476.28 884.487C4473.54 873.507 4480.41 865.26 4501 866.632C4521.6 868.005 4525.71 865.266 4525.71 865.266C4525.71 865.266 4529.84 868.005 4529.84 859.77C4529.84 851.535 4555.92 813.086 4549.05 813.086C4542.18 813.086 4550.44 803.478 4546.31 788.374C4542.17 773.27 4560.04 749.931 4544.94 738.945C4529.84 727.959 4525.71 722.463 4516.11 705.992C4506.5 689.522 4507.86 686.771 4472.17 682.647C4436.48 678.523 4419.99 690.888 4411.75 679.908C4403.51 668.928 4399.4 696.378 4393.91 663.426C4388.42 630.473 4402.15 608.5 4402.15 608.5C4402.15 608.5 4424.12 594.775 4429.6 585.161C4435.09 575.548 4457.06 571.43 4474.92 578.299C4492.79 585.167 4518.85 583.789 4540.83 587.919C4562.79 592.03 4561.42 605.761 4572.41 587.919C4583.39 570.058 4572.41 561.828 4580.64 552.215C4588.88 542.601 4598.49 527.497 4605.35 537.105C4612.22 546.725 4625.96 556.326 4636.95 543.967C4647.93 531.615 4652.05 530.242 4652.05 530.242L4657.53 535.738C4657.53 535.738 4669.88 528.864 4669.88 541.216C4669.88 553.581 4682.25 567.312 4675.38 576.92C4668.51 586.528 4658.91 585.161 4658.91 608.5C4658.91 631.839 4658.91 627.728 4674 646.955C4689.11 666.171 4698.72 649.694 4701.46 670.294C4704.21 690.894 4706.95 686.777 4722.06 700.502C4737.18 714.227 4734.41 714.227 4745.4 722.469C4756.39 730.71 4761.88 738.951 4761.88 725.22C4761.88 711.488 4763.26 704.626 4761.88 692.267C4760.5 679.914 4772.87 670.294 4764.62 649.7C4756.36 629.107 4763.25 630.479 4746.77 615.375C4730.3 600.271 4719.31 618.126 4713.83 596.154C4708.35 574.181 4739.91 564.574 4748.15 561.828C4756.4 559.083 4768.73 542.607 4771.48 553.593C4774.22 564.58 4750.89 604.395 4790.71 561.828C4830.53 519.262 4812.68 537.117 4812.68 537.117C4812.68 537.117 4833.27 534.372 4837.39 537.117C4841.5 539.868 4852.5 524.758 4848.37 526.137C4844.23 527.515 4804.45 504.164 4804.45 504.164L4775.6 487.694C4775.6 487.694 4785.22 480.825 4792.08 482.204C4798.95 483.582 4800.33 468.472 4807.2 467.094C4814.07 465.715 4860.74 476.714 4870.36 482.204C4879.98 487.694 4914.28 489.066 4910.16 486.321C4906.04 483.576 4884.08 467.1 4882.7 461.604C4881.34 456.114 4833.28 445.127 4818.18 446.5C4803.07 447.866 4789.35 451.984 4776.99 447.866C4764.63 443.749 4746.79 432.763 4737.17 432.763C4727.56 432.763 4606.74 409.423 4601.25 410.796C4595.76 412.169 4587.52 438.253 4583.4 434.135C4579.28 430.017 4572.42 430.011 4553.19 424.521C4533.95 419.031 4507.88 414.908 4473.55 412.169C4439.22 409.43 4415.9 414.914 4406.29 403.927C4396.67 392.941 4376.09 397.065 4352.74 395.686C4329.4 394.32 4301.94 395.686 4289.58 395.686C4277.23 395.686 4248.4 394.32 4241.54 392.941C4234.67 391.562 4226.43 381.955 4218.2 380.588C4209.95 379.21 4211.32 376.471 4194.85 373.726C4178.38 370.981 4179.75 353.132 4174.26 368.23C4168.77 383.339 4171.51 379.216 4163.27 384.706C4155.04 390.196 4146.8 401.182 4141.3 401.182C4135.8 401.182 4113.85 402.555 4109.72 399.81C4105.59 397.065 4098.74 394.32 4085 394.32C4071.27 394.32 4071.27 395.686 4053.43 392.941C4035.58 390.196 4021.85 391.562 4005.37 383.333C3988.89 375.104 3988.89 369.602 3975.16 370.975C3961.43 372.347 3961.44 368.23 3942.21 368.23C3922.98 368.23 3899.66 379.216 3887.29 380.588C3874.95 381.961 3847.49 379.21 3837.87 375.092C3828.26 370.975 3825.51 361.367 3789.81 365.478C3754.11 369.602 3733.52 369.602 3740.38 358.616C3747.25 347.629 3755.49 336.649 3759.6 335.277C3763.73 333.904 3773.33 327.042 3766.46 324.297C3759.6 321.545 3752.74 317.434 3736.27 316.055C3719.8 314.677 3721.15 321.545 3696.45 318.8C3671.74 316.055 3710.18 309.193 3659.38 310.565C3608.58 311.944 3596.22 316.055 3590.73 316.055C3585.24 316.055 3578.37 305.075 3564.64 321.545C3550.92 338.016 3531.68 347.629 3504.23 349.002C3476.78 350.375 3475.4 346.257 3449.32 355.865C3423.24 365.472 3406.75 353.12 3412.24 375.086C3417.74 397.052 3424.6 405.294 3424.6 409.411C3424.6 413.529 3412.24 440.992 3397.15 424.515C3382.05 408.039 3354.57 343.506 3366.93 387.445C3379.29 431.378 3406.74 446.488 3380.66 453.35C3354.59 460.213 3357.31 450.605 3353.2 447.854C3349.08 445.109 3353.2 425.888 3351.82 414.901C3350.45 403.915 3347.71 397.052 3342.22 391.562C3336.73 386.072 3338.09 377.831 3327.11 375.086C3316.13 372.341 3325.74 366.845 3307.89 366.845C3290.04 366.845 3274.95 355.858 3279.06 380.576C3283.18 405.294 3287.29 388.817 3298.27 412.156C3309.25 435.495 3329.85 419.019 3314.75 435.495C3299.65 451.972 3259.84 446.482 3250.22 439.619C3240.61 432.756 3243.36 442.364 3225.5 430.005C3207.64 417.646 3213.15 408.033 3192.56 417.646C3171.97 427.26 3165.1 445.109 3156.86 438.24C3148.62 431.372 3129.4 447.848 3122.53 439.619C3115.66 431.39 3088.2 431.378 3082.72 439.619C3077.24 447.86 3060.75 446.482 3037.41 457.468C3014.07 468.454 3020.93 458.834 2992.1 482.179C2963.27 505.525 2946.78 524.74 2937.18 509.636C2927.57 494.538 2875.39 468.448 2895.99 464.324C2916.59 460.201 2926.19 451.972 2937.18 461.579C2948.17 471.187 2966.02 468.448 2968.75 461.579C2971.49 454.711 2983.86 447.848 2967.38 439.613C2950.9 431.378 2949.53 436.862 2923.45 427.254C2897.36 417.64 2923.45 420.391 2887.75 414.895C2852.04 409.399 2836.94 406.66 2827.33 403.915C2817.73 401.17 2804 403.915 2790.27 402.543C2776.55 401.17 2766.93 398.425 2754.57 399.798C2742.22 401.17 2735.35 398.425 2718.87 410.784C2702.39 423.143 2690.03 428.633 2679.05 438.24C2668.07 447.848 2639.24 467.076 2631 473.944C2622.76 480.813 2593.93 502.773 2591.18 511.015C2588.44 519.256 2593.93 526.118 2582.94 531.609C2571.95 537.099 2560.97 537.099 2552.73 538.471C2544.49 539.844 2552.73 526.112 2544.49 539.844C2536.25 553.575 2539 603.004 2545.86 596.135C2552.73 589.267 2548.61 567.306 2578.82 587.906C2609.02 608.506 2628.25 605.749 2626.87 624.971C2625.49 644.192 2647.46 642.82 2650.21 646.943C2652.95 651.055 2666.69 641.447 2666.69 641.447C2666.69 641.447 2696.89 622.226 2696.89 612.618C2696.89 603.01 2716.11 581.038 2716.11 581.038C2716.11 581.038 2702.38 574.175 2702.38 560.444C2702.38 546.712 2706.51 542.589 2709.24 528.857C2711.98 515.126 2694.14 528.864 2735.33 502.767C2776.53 476.671 2779.27 494.538 2779.27 494.538C2779.27 494.538 2784.75 500.028 2777.89 508.263C2771.03 516.499 2758.67 538.477 2755.92 541.216C2753.18 543.955 2768.28 565.934 2775.14 565.934C2782 565.934 2795.74 560.438 2803.98 561.81C2812.22 563.189 2825.94 557.699 2830.06 560.444C2834.18 563.189 2843.79 571.424 2836.92 578.293C2830.05 585.161 2814.95 593.39 2803.98 590.651C2793 587.913 2776.51 568.679 2786.12 596.142C2795.74 623.604 2784.75 630.467 2776.51 629.094C2768.28 627.722 2750.43 613.997 2753.17 634.591C2755.92 655.184 2735.33 668.91 2731.2 668.91C2727.08 668.91 2718.85 667.537 2718.85 667.537C2718.85 667.537 2706.49 666.159 2699.63 666.159C2692.76 666.159 2679.03 673.021 2674.91 678.517C2670.79 684.007 2665.3 679.896 2658.44 679.896C2651.58 679.896 2658.44 671.655 2644.71 668.91C2630.98 666.165 2622.74 663.42 2614.51 668.91C2606.27 674.4 2593.91 677.145 2588.42 673.027C2582.92 668.91 2591.17 659.29 2580.18 664.792C2569.18 670.294 2560.96 685.386 2556.84 686.765C2552.72 688.131 2569.2 686.765 2552.72 688.131C2536.24 689.51 2529.38 693.633 2521.14 696.372C2512.9 699.111 2523.89 715.594 2508.78 721.084C2493.68 726.574 2504.67 714.221 2489.56 726.574C2474.46 738.939 2471.71 749.919 2466.22 751.292C2460.73 752.67 2462.11 755.409 2449.75 756.782C2437.39 758.154 2438.77 759.527 2431.89 760.899C2425.02 762.272 2433.27 765.023 2418.17 762.272C2403.06 759.521 2392.08 765.023 2394.82 770.513C2397.57 776.003 2448.37 791.107 2409.93 789.734C2371.49 788.362 2383.84 795.225 2392.08 800.715C2400.31 806.205 2404.43 811.695 2408.55 813.073C2412.68 814.452 2419.53 830.928 2419.53 830.928C2419.53 830.928 2430.52 829.55 2423.66 839.164C2416.8 848.777 2426.4 851.522 2419.53 863.881C2412.67 876.24 2412.67 867.999 2407.18 870.744C2401.69 873.489 2393.45 883.103 2378.34 874.861C2363.23 866.62 2352.26 862.503 2334.41 861.136C2316.56 859.758 2328.91 857.019 2316.56 866.62C2304.2 876.24 2301.46 887.22 2302.84 899.573C2304.21 911.926 2305.58 928.408 2301.46 936.649C2297.33 944.891 2297.34 953.126 2300.08 965.485C2302.83 977.837 2311.07 983.34 2311.07 983.34C2311.07 983.34 2330.29 986.078 2334.41 987.457C2338.53 988.836 2346.77 984.712 2357.75 991.569C2368.73 998.437 2379.72 1001.19 2386.58 992.947C2393.45 984.706 2420.91 975.098 2429.15 966.863C2437.4 958.628 2442.88 955.883 2438.76 947.642C2434.64 939.4 2447 918.807 2453.87 914.689C2460.73 910.571 2475.83 906.448 2475.83 906.448L2492.31 881.736C2492.31 881.736 2506.04 866.626 2512.9 868.005C2519.76 869.383 2558.2 883.115 2555.47 865.266C2552.73 847.417 2558.21 841.921 2562.33 848.783C2566.45 855.646 2577.43 852.901 2577.43 852.901C2577.43 852.901 2582.92 850.162 2587.04 854.28C2591.16 858.391 2596.65 876.252 2604.89 880.364C2613.13 884.487 2619.99 888.605 2625.49 891.344C2630.98 894.083 2636.47 891.344 2647.46 900.958C2658.44 910.571 2669.42 916.068 2670.79 920.179C2672.18 924.297 2681.78 933.91 2681.78 933.91C2681.78 933.91 2691.39 936.655 2688.65 942.152C2685.9 947.648 2672.18 964.124 2665.31 966.863C2658.44 969.602 2640.6 964.112 2647.46 969.608C2654.31 975.098 2663.93 981.967 2668.05 977.843C2672.18 973.726 2698.25 946.263 2698.25 946.263C2698.25 946.263 2696.88 947.636 2698.25 939.394C2699.63 931.153 2698.25 921.552 2705.12 925.669C2711.98 929.793 2716.11 935.283 2718.85 929.793C2721.6 924.303 2724.34 927.048 2717.47 922.93C2710.61 918.813 2694.14 895.468 2685.89 894.095C2677.65 892.722 2657.05 878.985 2657.05 878.985C2657.05 878.985 2652.94 874.868 2643.33 863.887C2633.72 852.907 2630.98 855.646 2628.22 846.032C2625.46 836.419 2617.23 824.066 2632.34 826.811C2647.45 829.556 2657.05 839.164 2670.78 847.405C2684.52 855.646 2681.78 858.385 2694.13 866.626C2706.48 874.867 2707.87 883.109 2717.47 881.736C2727.08 880.364 2738.07 887.226 2738.07 899.585C2738.07 911.944 2740.81 925.669 2743.55 928.42C2746.3 931.171 2754.53 936.662 2757.28 942.152C2760.03 947.642 2765.52 961.373 2769.63 966.863C2773.76 972.353 2777.88 976.477 2781.99 983.346C2786.11 990.208 2787.48 981.967 2791.6 984.718C2795.72 987.463 2801.21 986.085 2801.21 980.594C2801.21 975.104 2802.58 965.491 2802.58 965.491C2802.58 965.491 2821.81 960.001 2816.32 957.249C2810.83 954.498 2794.34 938.028 2795.72 932.538C2797.1 927.048 2795.72 916.068 2802.58 917.44C2809.45 918.807 2816.32 931.165 2831.42 920.179C2846.52 909.193 2864.37 903.703 2858.88 920.179C2853.38 936.655 2860.26 939.394 2858.88 957.249C2857.51 975.104 2864.38 969.608 2873.99 979.222C2883.61 988.836 2890.46 990.214 2897.32 992.953C2904.19 995.692 2915.17 994.332 2926.16 995.704C2937.16 997.077 2944.01 991.581 2953.63 994.332C2963.23 997.077 2985.2 992.953 2989.32 995.704C2993.45 998.456 3009.92 990.214 3011.29 999.822C3012.66 1009.44 3018.16 998.449 3014.04 1020.42C3009.92 1042.38 3004.43 1057.49 3004.43 1057.49C2989.32 1086.32 2983.83 1093.19 2976.96 1094.56C2970.11 1095.94 2965.98 1100.05 2953.63 1098.68C2941.27 1097.3 2926.17 1098.68 2908.32 1094.56C2890.47 1090.45 2857.52 1098.68 2843.79 1090.44C2830.07 1082.2 2810.84 1089.07 2802.59 1079.46C2794.34 1069.85 2780.63 1071.22 2775.14 1065.73C2769.64 1060.24 2766.9 1045.14 2766.9 1067.11C2766.9 1089.07 2754.54 1090.45 2751.8 1101.43C2749.05 1112.42 2755.91 1106.92 2740.81 1105.55C2725.7 1104.17 2721.58 1112.41 2699.62 1095.94C2677.65 1079.47 2666.67 1079.46 2655.69 1072.6C2644.71 1065.73 2633.72 1084.95 2622.74 1062.99C2611.76 1041.03 2596.65 1058.86 2595.27 1041.02C2593.9 1023.16 2595.27 1024.55 2596.65 1013.56C2598.02 1002.57 2613.12 992.965 2606.26 988.848C2599.4 984.73 2604.88 977.862 2595.27 981.985C2585.67 986.109 2571.94 987.475 2560.95 991.593C2549.96 995.717 2585.66 991.593 2532.12 995.717C2478.57 999.84 2463.46 1005.32 2463.46 1005.32C2463.46 1005.32 2459.34 1002.58 2452.47 1008.07C2445.61 1013.56 2436 1021.8 2426.39 1017.68C2416.78 1013.56 2411.29 1014.93 2403.05 1016.31C2394.82 1017.69 2389.33 1009.45 2379.71 1016.31C2370.1 1023.17 2359.12 1025.92 2355 1023.17C2350.87 1020.39 2344 1009.41 2344 1009.41Z" fill="white"/>
<path d="M4546.96 1118.23C4546.96 1118.23 4551.45 1111.33 4548.63 1102.09C4545.81 1092.85 4563.42 1082.37 4569.01 1075.25C4574.61 1068.16 4577.3 1064.01 4582.73 1049.63C4588.15 1035.25 4573.93 1039.03 4594.05 1017.12C4614.18 995.199 4601.23 1006.08 4614.17 995.205C4627.13 984.337 4639.59 985.262 4642.08 979.94C4644.57 974.618 4647.24 962.421 4650.37 960.634C4653.48 958.858 4661.98 948.796 4665.32 948.193C4668.65 947.59 4677.11 943.621 4686.16 949.294C4695.21 954.967 4697.39 960.673 4697.39 960.673C4697.39 960.673 4693.28 976.037 4687.47 981.959C4681.67 987.881 4685.45 1001.87 4673.62 1012.55C4656.23 1015.7 4640.78 1028.17 4634.97 1034.09C4629.16 1040.02 4623.77 1048.3 4617.75 1053.05C4611.74 1057.79 4593.45 1070.84 4592.07 1075.96C4590.7 1081.08 4584.26 1083.47 4577.98 1093.14C4571.69 1102.79 4564.82 1102.82 4561.02 1107.16C4557.22 1111.51 4548.7 1121.57 4548.7 1121.57L4546.96 1118.23Z" fill="white"/>
<path d="M1399.38 2650.17C1389.77 2644.68 1369.18 2635.07 1362.31 2629.58C1355.45 2624.09 1334.86 2593.87 1334.86 2593.87L1319.75 2565.03C1319.75 2565.03 1301.91 2543.07 1306.02 2534.83C1310.14 2526.59 1318.38 2521.1 1318.38 2516.98C1318.38 2512.87 1326.62 2501.87 1319.75 2497.76C1312.89 2493.64 1312.89 2492.27 1308.76 2479.91C1304.65 2467.56 1304.65 2456.56 1299.16 2453.82C1293.67 2451.08 1289.54 2433.23 1284.05 2431.86C1278.56 2430.48 1273.07 2420.87 1273.07 2420.87L1264.83 2309.65C1264.83 2309.65 1262.07 2258.86 1259.34 2247.87C1256.6 2236.87 1263.45 2213.55 1256.58 2192.95C1249.72 2172.35 1257.96 2147.64 1253.84 2139.4C1249.72 2131.16 1256.58 2107.83 1252.47 2085.86C1248.35 2063.89 1268.94 2036.43 1252.47 2028.2C1235.99 2019.96 1248.35 2007.6 1234.62 2007.6C1220.89 2007.6 1211.28 2000.73 1198.92 1991.12C1186.56 1981.51 1163.22 1963.66 1156.36 1956.79C1149.49 1949.93 1127.52 1932.08 1120.66 1926.59C1113.8 1921.1 1106.93 1897.75 1101.44 1890.88C1095.95 1884.03 1093.2 1863.43 1084.96 1851.07C1076.72 1838.72 1065.74 1818.13 1062.99 1814C1060.24 1809.88 1030.04 1774.19 1030.04 1774.19L1032.78 1752.22C1032.78 1752.22 1053.38 1739.86 1050.63 1735.74C1047.89 1731.63 1052.01 1727.5 1042.39 1719.27C1032.77 1711.04 1034.15 1695.92 1042.39 1689.06C1050.63 1682.19 1062.98 1660.22 1062.98 1660.22L1083.58 1625.9C1083.58 1625.9 1100.06 1608.04 1100.06 1595.69C1100.06 1583.33 1123.4 1575.1 1109.67 1564.11C1095.94 1553.13 1102.81 1543.51 1098.68 1535.27C1094.56 1527.03 1097.31 1521.55 1109.67 1513.3C1122.03 1505.06 1143.99 1474.86 1143.99 1474.86C1143.99 1474.86 1160.47 1470.74 1164.59 1470.74C1168.7 1470.74 1175.57 1426.79 1187.93 1455.63C1200.29 1484.46 1204.41 1469.36 1200.29 1489.95C1196.17 1510.55 1205.78 1506.44 1211.27 1500.94C1216.76 1495.45 1208.52 1505.06 1219.5 1480.34C1230.49 1455.62 1226.37 1447.39 1233.23 1454.26C1240.1 1461.13 1242.84 1462.5 1255.2 1466.62C1267.55 1470.74 1271.68 1469.36 1275.79 1477.6C1279.9 1485.84 1278.54 1474.85 1301.88 1478.98C1325.21 1483.1 1358.17 1470.74 1354.05 1484.46C1349.93 1498.19 1341.69 1483.09 1360.91 1498.19C1380.13 1513.3 1382.88 1516.04 1393.86 1518.79C1404.84 1521.55 1414.46 1520.17 1430.94 1536.64C1447.42 1553.12 1451.53 1554.49 1455.65 1562.72C1459.77 1570.95 1466.63 1565.47 1473.5 1573.71C1480.37 1581.94 1489.97 1581.95 1499.58 1581.95C1509.19 1581.95 1499.58 1573.71 1514.68 1584.7C1529.79 1595.69 1540.77 1597.05 1547.64 1619.02C1554.5 1640.99 1568.23 1639.62 1557.24 1661.59C1546.26 1683.56 1524.3 1693.17 1533.91 1691.8C1543.51 1690.42 1561.37 1682.18 1566.86 1683.56C1572.35 1684.92 1575.09 1679.44 1583.33 1683.56C1591.57 1687.68 1592.95 1678.07 1591.57 1687.68C1590.2 1697.28 1590.2 1687.68 1590.2 1697.29C1590.2 1706.9 1587.45 1687.68 1603.93 1691.8C1620.4 1695.92 1610.79 1683.55 1630.01 1701.41C1649.23 1719.26 1649.24 1713.77 1656.09 1723.38C1662.96 1732.98 1669.82 1717.9 1673.95 1722.01C1678.07 1726.12 1690.42 1723.37 1702.78 1726.12C1715.14 1728.88 1706.9 1717.89 1726.13 1730.24C1745.34 1742.59 1764.57 1738.48 1768.69 1749.46C1772.8 1760.45 1783.8 1756.33 1789.28 1763.19C1794.76 1770.06 1797.51 1760.44 1803.01 1770.06C1808.5 1779.66 1824.98 1776.92 1822.23 1786.53C1819.48 1796.15 1826.34 1790.65 1823.6 1804.38C1820.85 1818.1 1811.24 1840.09 1803.01 1845.57C1794.78 1851.05 1794.78 1857.93 1789.28 1864.79C1783.78 1871.65 1785.16 1857.93 1778.29 1877.15C1771.42 1896.37 1772.8 1899.12 1767.31 1916.97C1761.82 1934.81 1765.94 1916.97 1761.82 1934.81C1757.71 1952.66 1760.45 1963.65 1756.33 1984.25C1752.22 2004.85 1753.59 2004.84 1750.84 2019.95C1748.1 2035.05 1757.71 2013.09 1745.35 2044.66C1733 2076.25 1731.62 2074.86 1727.51 2088.6C1723.38 2102.34 1728.88 2091.34 1713.77 2099.58C1698.67 2107.83 1706.91 2105.07 1689.06 2110.57C1671.22 2116.06 1649.24 2121.56 1642.38 2122.93C1635.52 2124.3 1608.06 2132.54 1616.3 2149.01C1624.54 2165.48 1624.54 2168.24 1616.3 2188.84C1608.06 2209.44 1595.7 2216.3 1595.7 2225.9C1595.7 2235.51 1590.21 2245.11 1588.84 2251.98C1587.46 2258.85 1601.19 2245.11 1584.72 2265.71C1568.25 2286.31 1566.88 2280.82 1561.38 2293.18C1555.89 2305.53 1561.38 2295.92 1555.89 2305.53C1550.4 2315.14 1536.67 2319.26 1536.67 2319.26C1536.67 2319.26 1538.04 2326.12 1532.55 2323.38C1527.06 2320.63 1528.43 2324.75 1507.83 2319.26C1487.23 2313.76 1484.49 2300.05 1481.75 2309.65C1479 2319.26 1483.12 2324.76 1495.48 2334.37C1507.83 2343.98 1528.43 2346.72 1522.93 2356.34C1517.44 2365.96 1517.44 2365.95 1513.32 2371.44C1509.2 2376.94 1518.81 2372.81 1509.2 2376.94C1499.59 2381.06 1494.1 2398.91 1489.98 2398.91C1485.86 2398.91 1483.11 2405.77 1477.62 2403.03C1472.13 2400.28 1458.41 2390.67 1455.66 2396.16C1452.9 2401.65 1447.41 2389.29 1448.79 2408.51C1450.16 2427.73 1452.91 2438.72 1446.04 2442.84C1439.17 2446.97 1422.7 2442.84 1422.7 2442.84L1419.95 2435.97L1410.35 2438.72C1410.35 2438.72 1406.23 2455.2 1413.09 2457.94C1419.95 2460.69 1418.58 2463.43 1425.44 2471.67C1432.31 2479.91 1428.19 2495.01 1428.19 2495.01C1428.19 2495.01 1428.19 2499.14 1421.33 2506C1414.47 2512.86 1411.72 2518.36 1410.35 2522.47C1408.97 2526.59 1400.73 2544.45 1413.09 2543.07C1425.44 2541.69 1435.06 2534.83 1435.06 2556.8C1435.06 2578.77 1440.55 2573.28 1433.69 2588.38C1426.82 2603.48 1421.33 2604.86 1419.96 2618.58C1418.59 2632.31 1421.34 2633.69 1424.08 2641.93C1426.83 2650.17 1433.7 2646.04 1426.83 2650.17C1419.98 2654.29 1399.38 2650.17 1399.38 2650.17V2650.17Z" fill="white"/>
<path d="M1045.15 1532.53L1035.54 1518.8C1035.54 1518.8 1031.42 1510.55 1024.55 1509.19C1017.69 1507.82 1002.58 1489.96 1002.58 1489.96C1002.58 1489.96 995.72 1484.47 995.72 1474.87C995.72 1465.26 990.224 1450.16 994.341 1433.68C998.459 1417.2 999.837 1396.61 998.465 1391.11C997.086 1385.62 1005.33 1384.25 995.72 1378.75C986.113 1373.26 966.886 1371.89 954.527 1371.89C942.175 1371.89 927.065 1376.01 924.32 1377.38C921.575 1378.75 939.424 1336.19 942.169 1329.33C944.914 1322.47 957.272 1292.25 957.272 1288.14C957.272 1284.02 961.389 1282.65 953.155 1277.16C944.92 1271.68 931.189 1268.92 922.948 1273.04C914.713 1277.16 916.085 1267.55 909.223 1284.02C902.36 1300.49 895.492 1318.35 887.251 1321.1C879.01 1323.84 862.54 1332.08 862.54 1332.08C862.54 1332.08 841.947 1330.71 835.078 1329.34C828.21 1327.96 799.381 1312.86 793.891 1303.25C788.402 1293.64 785.657 1273.04 785.657 1263.44C785.657 1253.82 800.754 1224.99 799.381 1218.13C798.009 1211.26 814.491 1183.8 813.112 1179.68C811.734 1175.55 815.857 1161.83 819.975 1156.34C824.092 1150.85 844.692 1143.98 850.182 1138.49C855.672 1133 865.285 1126.14 874.892 1123.39C884.5 1120.63 892.747 1117.89 899.609 1117.89C906.472 1117.89 924.32 1102.79 927.065 1117.89C929.81 1133 942.175 1127.5 949.037 1128.88C955.9 1130.25 957.278 1137.12 968.258 1119.27C979.238 1101.42 990.224 1095.92 990.224 1100.04C990.224 1104.16 1008.07 1098.67 1010.82 1102.79C1013.56 1106.91 1019.06 1100.04 1028.67 1108.28C1038.27 1116.52 1052 1117.9 1050.63 1122.01C1049.26 1126.12 1056.12 1126.12 1056.12 1130.25C1056.12 1134.37 1061.62 1120.63 1061.62 1145.35C1061.62 1170.06 1068.48 1185.17 1068.48 1185.17C1068.48 1185.17 1078.09 1205.77 1082.2 1201.64C1086.32 1197.52 1094.56 1186.55 1094.56 1186.55C1094.56 1186.55 1108.29 1178.3 1098.68 1149.47C1089.07 1120.64 1095.94 1112.4 1093.19 1102.79C1090.45 1093.17 1090.44 1087.68 1106.92 1075.32C1123.39 1062.97 1163.21 1035.51 1172.82 1030.02C1182.43 1024.53 1204.39 1009.42 1204.39 1009.42C1204.39 1009.42 1212.63 1005.31 1214.01 994.319C1215.38 983.333 1241.46 964.111 1242.84 958.621C1244.22 953.131 1262.07 939.406 1262.07 939.406C1262.07 939.406 1281.28 928.414 1279.91 921.557C1278.54 914.694 1304.63 902.342 1308.74 902.342C1312.86 902.342 1334.83 909.198 1334.83 896.839C1334.83 884.487 1334.83 881.736 1348.56 870.755C1362.3 859.775 1380.14 843.293 1387.01 843.293C1393.87 843.293 1417.21 830.946 1426.82 828.195C1436.43 825.444 1466.64 811.712 1439.18 828.195C1411.72 844.677 1429.57 835.058 1424.08 848.789C1418.59 862.52 1414.46 880.369 1440.55 859.769C1466.64 839.169 1465.26 835.051 1474.88 833.685C1484.49 832.313 1477.62 837.803 1498.21 830.934C1518.81 824.065 1520.19 821.326 1520.19 821.326C1520.19 821.326 1529.8 813.085 1524.3 808.974C1518.81 804.85 1529.8 799.36 1509.2 807.595C1488.6 815.83 1489.98 817.209 1476.25 813.085C1462.52 808.961 1441.92 810.334 1457.03 796.603C1472.13 782.871 1491.35 778.754 1478.99 773.264C1466.64 767.773 1435.06 774.642 1430.94 776.009C1426.82 777.381 1417.21 774.636 1408.97 776.009C1400.73 777.381 1403.48 765.035 1408.97 762.283C1414.46 759.532 1432.32 751.291 1454.28 745.801C1476.25 740.311 1529.8 738.938 1542.15 738.938C1554.5 738.938 1570.98 741.689 1580.59 734.821C1590.21 727.952 1609.43 716.978 1612.17 711.476C1614.92 705.973 1625.9 697.75 1625.9 697.75C1625.9 697.75 1638.26 685.392 1631.39 679.902C1624.53 674.411 1617.66 662.053 1612.17 664.798C1606.68 667.543 1610.81 684.025 1599.82 666.17C1588.83 648.327 1590.21 645.576 1584.72 641.459C1579.23 637.341 1573.73 640.08 1577.85 620.865C1581.98 601.649 1580.6 593.402 1580.6 593.402C1580.6 593.402 1584.72 576.932 1580.6 575.559C1576.48 574.181 1573.74 570.069 1566.87 574.181C1560.01 578.298 1521.56 597.526 1513.33 601.643C1505.09 605.761 1494.1 585.167 1498.22 575.559C1502.34 565.939 1499.59 571.436 1494.1 557.71C1488.61 543.985 1466.65 541.228 1458.41 541.228C1450.16 541.228 1430.95 528.869 1425.45 537.11C1419.96 545.352 1391.14 571.429 1385.63 574.181C1380.13 576.932 1371.91 550.842 1367.79 593.402C1363.67 635.975 1382.89 648.327 1360.93 651.072C1338.96 653.817 1319.74 666.17 1319.74 666.17C1319.74 666.17 1301.89 667.549 1301.89 678.529C1301.89 689.509 1295.03 715.599 1286.78 718.344C1278.54 721.089 1257.95 716.978 1251.09 708.737C1244.23 700.495 1252.46 670.294 1252.46 670.294L1264.82 657.935C1264.82 657.935 1176.95 644.21 1178.32 638.714C1179.69 633.224 1152.23 623.616 1149.49 615.375C1146.74 607.133 1145.36 589.284 1148.11 582.422C1150.87 575.559 1187.93 542.606 1207.15 535.744C1226.37 528.881 1259.32 513.777 1268.94 511.026C1278.55 508.275 1295.02 509.654 1300.52 502.791C1306.01 495.928 1307.38 483.57 1307.38 483.57C1307.38 483.57 1304.63 464.342 1310.12 467.087C1315.61 469.832 1325.23 473.956 1326.6 478.073C1327.97 482.191 1327.98 491.805 1337.58 480.812C1347.19 469.82 1359.56 465.709 1370.54 460.225C1381.52 454.741 1397.99 456.107 1407.61 450.617C1417.23 445.127 1433.7 439.631 1435.07 425.899C1436.44 412.168 1430.95 416.292 1424.08 414.913C1417.22 413.547 1426.83 416.292 1403.49 427.272C1380.15 438.252 1387.01 430.017 1370.54 438.252C1354.06 446.487 1352.68 447.866 1351.32 441.003C1349.94 434.134 1354.06 423.154 1354.06 423.154C1354.06 423.154 1355.44 421.776 1345.83 419.037C1336.21 416.298 1336.21 420.409 1334.84 408.057C1333.47 395.698 1341.7 377.849 1327.98 383.339C1314.25 388.829 1301.89 379.221 1292.28 406.678C1282.67 434.134 1249.71 462.976 1241.47 456.107C1233.23 449.238 1231.87 447.866 1225 447.866C1218.13 447.866 1208.52 439.631 1196.16 438.258C1183.81 436.886 1146.73 436.886 1137.13 438.258C1127.52 439.637 1116.54 432.768 1108.29 441.009C1100.04 449.251 1087.7 460.231 1087.7 464.354C1087.7 468.478 1075.34 449.244 1071.22 450.623C1067.11 452.002 1056.12 445.133 1043.77 445.133C1031.41 445.133 1023.17 438.264 1019.06 438.264C1014.94 438.264 1023.17 427.278 1019.06 425.905C1014.94 424.539 925.687 421.788 925.687 421.788C925.687 421.788 896.858 410.808 885.878 412.18C874.899 413.553 844.692 414.919 821.341 419.043C797.991 423.166 763.672 436.892 752.692 438.264C741.707 439.643 716.996 439.643 712.878 432.774C708.755 425.912 714.251 427.284 708.755 425.912C703.259 424.539 707.388 421.794 695.03 412.186C682.671 402.579 700.526 394.337 675.809 394.337C651.092 394.337 635.995 392.959 614.029 394.337C592.063 395.716 546.753 406.69 541.263 405.318C535.773 403.945 491.835 412.186 484.966 408.069C478.104 403.945 443.774 423.166 436.917 421.794C430.055 420.421 403.965 423.173 397.103 427.29C390.241 431.408 357.283 439.643 368.269 446.512C379.255 453.38 377.876 460.237 379.249 464.36C380.621 468.484 368.269 478.086 368.269 478.086C368.269 478.086 365.518 478.086 350.42 472.596C335.323 467.105 318.841 464.36 311.972 468.478C305.104 472.596 292.752 480.843 295.496 486.333C298.241 491.823 317.462 504.182 320.213 500.058C322.964 495.935 329.827 487.706 338.062 489.078C346.303 490.457 358.661 483.588 347.675 497.319C336.689 511.051 327.076 517.913 320.213 519.292C313.351 520.658 296.875 522.031 281.772 523.409C266.668 524.788 268.035 517.919 254.31 531.651C240.585 545.382 235.089 537.141 232.344 552.245C229.599 567.348 226.854 567.342 232.344 571.466C237.834 575.59 221.358 576.956 233.716 581.074C246.069 585.197 261.172 589.315 259.8 593.426C258.421 597.55 273.531 587.942 265.29 598.917C257.049 609.891 251.565 619.511 268.035 608.53C284.504 597.55 294.118 605.779 307.849 598.917C321.58 592.054 335.311 590.681 343.546 585.191C351.781 579.701 355.904 571.466 368.263 567.336C380.621 563.207 372.38 568.715 373.753 575.578C375.125 582.44 373.753 583.813 381.994 578.316C390.235 572.82 390.228 576.95 401.214 570.081C412.2 563.213 424.553 556.35 432.794 560.468C441.029 564.591 443.774 564.591 449.27 564.591C454.766 564.591 442.407 563.213 454.76 564.591C467.118 565.958 449.27 560.468 490.456 570.081C531.643 579.695 542.635 572.826 545.374 587.93C548.113 603.034 553.615 586.552 560.478 596.165C567.34 605.779 571.464 597.544 575.581 614.014C579.698 630.485 575.581 675.802 572.836 681.292C570.091 686.782 568.719 686.782 570.091 699.141C571.464 711.494 587.939 770.543 582.449 774.654C576.96 778.766 564.601 780.144 564.601 780.144L557.739 804.856C557.739 804.856 546.759 825.45 537.145 836.436C527.532 847.423 515.179 861.154 508.311 870.755C501.448 880.369 495.952 896.852 486.345 906.459C476.738 916.067 468.497 911.949 471.242 932.543C473.987 953.137 471.242 975.104 473.987 990.214C476.732 1005.32 483.6 1025.91 489.09 1034.15C494.58 1042.39 498.704 1042.39 508.311 1049.25C517.924 1056.11 530.283 1064.36 528.904 1071.22C527.526 1078.09 530.277 1120.66 530.277 1120.66C530.277 1120.66 538.518 1134.38 539.884 1149.49C541.263 1164.6 550.87 1179.7 550.87 1179.7L559.111 1197.55C559.111 1197.55 563.229 1198.93 568.725 1209.9C574.221 1220.88 574.215 1220.89 575.587 1226.37C576.966 1231.88 576.966 1230.5 576.966 1231.88C576.966 1233.24 575.587 1208.53 572.842 1201.66C570.097 1194.79 570.097 1186.56 567.352 1178.32C564.607 1170.08 568.725 1160.47 560.49 1148.11C552.255 1135.76 552.255 1134.38 548.137 1122.02C544.02 1109.67 538.524 1095.94 544.02 1093.19C549.516 1090.44 553.627 1072.6 564.613 1093.19C575.599 1113.78 576.972 1108.3 578.344 1124.78C579.711 1141.25 583.834 1146.75 587.952 1153.6C592.069 1160.47 601.676 1183.82 607.173 1193.42C612.662 1203.03 607.173 1187.93 619.525 1207.15C631.883 1226.37 633.262 1230.49 640.124 1245.59C646.987 1260.7 651.11 1260.7 655.228 1271.68C659.345 1282.66 656.6 1279.92 653.849 1292.27C651.098 1304.63 656.594 1318.36 656.594 1318.36C656.594 1318.36 675.815 1325.23 677.188 1329.34C678.56 1333.46 697.781 1340.32 700.532 1345.82C703.283 1351.32 721.125 1358.17 721.125 1358.17C721.125 1358.17 736.229 1367.79 741.713 1370.53C747.196 1373.28 763.691 1376.03 763.691 1376.03C763.691 1376.03 774.671 1378.78 778.788 1380.14C782.905 1381.52 795.264 1381.52 795.264 1381.52C795.264 1381.52 806.25 1373.28 810.367 1376.03C814.485 1378.77 824.098 1370.53 828.216 1377.39C832.333 1384.26 840.574 1384.26 844.692 1389.76C848.809 1395.25 852.927 1395.25 859.795 1402.11C866.664 1408.97 873.526 1407.6 880.388 1413.09C887.251 1418.58 892.741 1418.58 900.982 1418.58C909.223 1418.58 909.217 1418.58 914.713 1419.96C920.209 1421.34 922.948 1415.84 928.438 1422.71C933.928 1429.59 938.045 1433.69 942.163 1440.55C946.28 1447.42 955.893 1447.42 957.266 1458.4C958.638 1469.39 961.383 1468.02 961.383 1477.62C961.383 1487.24 966.873 1491.36 970.997 1494.11C975.108 1496.85 990.212 1510.57 990.212 1510.57L1010.81 1514.69L1027.28 1527.05L1045.15 1532.53V1532.53Z" fill="white"/>
<path d="M1485.19 256.982L1567.57 246.685C1567.57 246.685 1596.4 246.685 1610.82 236.388C1625.24 226.091 1610.82 226.091 1654.07 217.856C1697.31 209.62 1684.96 205.497 1707.62 209.614C1730.27 213.738 1736.45 213.738 1761.16 217.856C1785.87 221.973 1792.05 215.8 1814.7 221.973C1837.35 228.146 1847.65 226.091 1866.19 226.091H1923.85C1952.69 226.091 1979.46 209.614 1989.76 219.911C2000.05 230.208 2006.23 226.091 2041.25 230.208C2076.26 234.326 2090.67 226.085 2105.09 230.208C2119.5 234.332 2144.23 228.152 2173.05 230.208C2201.88 232.264 2216.3 228.152 2226.6 228.152C2236.9 228.152 2247.19 213.732 2261.61 226.091C2276.03 238.449 2294.56 221.973 2296.61 238.449C2298.67 254.926 2325.45 242.567 2298.68 254.926C2271.9 267.285 2276.02 265.223 2257.48 281.699C2238.95 298.176 2269.84 312.59 2230.71 327.011C2191.58 341.431 2185.4 318.77 2175.1 343.487C2164.81 368.205 2175.1 374.378 2173.05 386.737C2170.99 399.09 2166.87 401.151 2154.51 411.448C2142.16 421.745 2142.16 411.448 2113.32 417.628C2084.49 423.807 2063.9 429.987 2051.54 429.987C2039.19 429.987 2012.41 440.284 2004.17 444.401C1995.93 448.519 2018.59 454.698 1975.34 467.057C1932.08 479.416 1921.79 477.36 1909.43 493.83C1897.08 510.301 1901.19 512.375 1892.96 522.672C1884.72 532.969 1860.01 574.163 1847.65 563.866C1835.3 553.569 1829.11 555.624 1818.81 545.327C1808.52 535.03 1802.34 520.616 1796.16 512.375C1789.98 504.133 1787.92 483.539 1785.86 471.181C1783.81 458.822 1765.26 429.993 1785.86 434.11C1806.45 438.228 1818.81 436.172 1824.99 432.055C1831.17 427.937 1837.35 413.516 1837.35 413.516C1837.35 413.516 1835.3 390.861 1829.11 378.502C1822.92 366.143 1827.05 355.846 1816.76 343.493C1806.46 331.134 1806.46 333.196 1792.04 320.837C1777.62 308.479 1781.74 302.299 1759.09 300.243C1736.43 298.188 1730.25 292.002 1722.01 294.064C1713.77 296.126 1687.01 279.643 1715.83 277.588C1744.66 275.532 1771.44 279.643 1771.44 279.643C1771.44 279.643 1808.51 263.167 1796.16 261.111C1783.81 259.049 1814.69 240.511 1785.86 246.691C1757.03 252.87 1724.08 261.111 1715.84 263.167C1707.6 265.223 1687.01 267.285 1666.41 273.464C1645.82 279.643 1621.1 277.588 1608.75 292.002C1596.39 306.417 1608.75 308.479 1596.39 306.417C1584.04 304.361 1606.69 292.002 1577.86 306.417C1549.03 320.831 1557.27 318.776 1542.85 314.658C1528.43 310.54 1518.14 304.361 1518.14 304.361C1518.14 304.361 1536.68 302.299 1509.9 300.243C1483.12 298.188 1483.13 298.188 1472.83 285.823C1462.53 273.458 1468.71 273.464 1474.89 269.346C1481.06 265.229 1485.19 256.982 1485.19 256.982V256.982Z" fill="white"/>
<path d="M1439.88 349.659C1429.59 359.956 1404.87 374.377 1411.05 380.556C1417.24 386.736 1421.35 409.391 1433.71 403.212C1446.06 397.033 1431.65 376.439 1479.01 392.915C1526.39 409.391 1522.26 390.859 1532.56 415.571C1542.86 440.282 1551.09 458.814 1544.91 465C1538.73 471.185 1536.68 477.359 1516.08 483.538C1495.48 489.718 1487.24 497.959 1501.66 508.25C1516.08 518.541 1542.86 528.844 1555.21 535.029C1567.56 541.215 1604.64 543.27 1586.1 522.676C1567.56 502.082 1590.22 495.897 1590.22 495.897C1590.22 495.897 1625.23 522.676 1612.88 491.779C1600.52 460.882 1592.28 460.888 1600.52 460.888C1608.76 460.888 1625.23 471.185 1625.23 471.185L1633.47 454.709L1625.23 427.936L1598.46 401.162C1598.46 401.162 1621.11 380.568 1590.22 376.451C1559.33 372.333 1561.38 372.333 1544.9 362.03C1528.43 351.727 1526.37 347.616 1495.48 353.795C1464.58 359.974 1454.29 364.092 1454.29 364.092L1439.88 349.659V349.659Z" fill="white"/>
<path d="M2421.42 737.326C2428.01 727.671 2442.68 702.773 2434.83 697.338C2426.97 691.906 2433.96 678.272 2422.87 672.493C2411.77 666.714 2395.19 659.967 2390.22 653.688C2385.25 647.409 2396.64 636.356 2390.22 630.499C2383.81 624.646 2402.53 592.126 2383.69 602.779C2372.54 617.919 2355.95 604.44 2358.32 617.919C2360.69 631.399 2353.29 649.016 2359.36 653.688C2365.43 658.36 2375.54 658.727 2372.54 669.911C2369.53 681.095 2363.75 679.457 2369.76 689.298C2375.77 699.138 2370.68 703.195 2375.71 704.302C2380.74 705.414 2381.37 712.954 2394.03 707.972C2406.69 702.989 2391.95 716.81 2394.03 723.932C2396.11 731.051 2408.65 720.449 2414.37 723.932C2420.09 727.416 2421.42 737.326 2421.42 737.326Z" fill="white"/>
</g>
<defs>
<filter id="filter0_d" x="119" y="98" width="4996.78" height="2664" filterUnits="userSpaceOnUse" color-interpolation-filters="sRGB">
<feFlood flood-opacity="0" result="BackgroundImageFix"/>
<feColorMatrix in="SourceAlpha" type="matrix" values="0 0 0 0 0 0 0 0 0 0 0 0 0 0 0 0 0 0 127 0"/>
<feOffset/>
<feGaussianBlur stdDeviation="55"/>
<feColorMatrix type="matrix" values="0 0 0 0 0 0 0 0 0 0 0 0 0 0 0 0 0 0 0.13 0"/>
<feBlend mode="normal" in2="BackgroundImageFix" result="effect1_dropShadow"/>
<feBlend mode="normal" in="SourceGraphic" in2="effect1_dropShadow" result="shape"/>
</filter>
</defs>
</svg>
