<svg width="175" height="57" viewBox="0 0 175 57" fill="none" xmlns="http://www.w3.org/2000/svg">
<path d="M0.2 0.215315C1.1 1.11532 2.1 2.01531 2.9 3.01531C3.7 4.01531 4.7 4.81532 5.5 5.81532C6.4 7.01532 7.6 7.91531 8.4 9.01531C9.4 10.2153 10.5 11.1153 11.3 11.9153C12.5 10.7153 13.6 9.71532 14.5 8.41532C15.3 7.51532 16.2 6.71532 16.8 5.81532C17.8 4.81532 19 3.71532 19.9 2.71532C20.7 1.81532 21.4 1.01531 22.3 0.115315V22.7153H18.8V9.81531C18.5 10.2153 18.3 10.3153 18.2 10.6153C18.1 10.7153 17.9 11.0153 17.8 11.1153C16.3 12.6153 14.7 14.3153 13.3 15.8153C12.8 16.4153 12.1 17.1153 11.6 17.7153C11.3 17.6153 11.2 17.6153 11.1 17.8153C10.8 17.4153 10.6 17.2153 10.3 16.8153C8.9 15.3153 7.4 13.6153 5.8 12.1153C5.2 11.5153 4.5 10.7153 3.9 10.0153C3.9 9.91531 3.8 9.71532 3.6 9.61532V22.5153H0C0.2 15.2153 0.2 7.61532 0.2 0.215315ZM97.1 55.9153V34.6153L97.4 34.3153H105.9C106.5 34.3153 107.2 34.6153 107.8 34.6153C108.4 34.6153 109.1 34.9153 109.6 35.0153C110.9 35.5153 112 36.0153 113.1 37.1153C114.4 38.3153 115.2 39.7153 115.8 41.3153C115.9 41.8153 115.9 42.3153 116.2 42.8153C116.6 44.0153 116.5 45.1153 116.5 46.3153C116.5 48.6153 115.7 50.7153 114.4 52.6153C113.9 53.2153 113.2 53.9153 112.5 54.4153C111.6 55.0153 110.7 55.6153 109.7 55.9153C109.1 56.2153 108.3 56.2153 107.6 56.3153C106.1 56.7153 104.5 56.4153 102.9 56.4153H98.3C97.6 56.3153 97.2 56.3153 97.1 55.9153V55.9153ZM100.8 53.0153H104C105 53.0153 106.1 53.1153 107.1 52.7153C107.7 52.6153 108.4 52.6153 108.9 52.2153C110.1 51.6153 111 50.5153 111.6 49.5153C111.6 48.9153 112 48.2153 112.2 47.6153C112.5 46.8153 112.1 46.1153 112.6 45.3153V44.9153C112.3 44.6153 112.5 44.4153 112.5 44.1153C112.5 43.6153 112.4 43.1153 112.2 42.6153C111.8 40.9153 111.2 40.0153 110.3 39.1153C109.3 38.1153 108 37.7153 106.6 37.6153C104.7 37.5153 102.8 37.6153 100.8 37.6153V53.0153ZM62.6 22.7153H58.9V0.515314H67.5C68.9 0.515314 70.3 0.915315 71.6 1.71532C72.9 2.31532 73.8 3.81532 74.2 5.31532C74.6 6.81532 74.5 7.21532 74.2 8.91532C74.1 10.1153 73.4 11.0153 72.9 11.8153C72.4 12.4153 71.6 12.8153 70.8 13.1153C70.4 13.2153 69.9 13.4153 69.4 13.5153C69.5 13.8153 69.7 14.1153 69.9 14.4153C70.7 15.3153 71.4 16.1153 72.2 17.0153C72.6 17.5153 73 17.9153 73.4 18.4153C73.8 18.9153 74.2 19.3153 74.6 19.8153C75.2 20.7153 76 21.5153 76.8 22.2153C76.9 22.3153 77.1 22.6153 77.2 22.7153L77.1 22.8153H73.1C72.2 21.9153 71.3 20.9153 70.4 19.9153C69.5 18.9153 68.6 17.8153 67.7 16.8153C66.8 15.8153 66 14.7153 65.3 13.9153H62.7C62.6 16.6153 62.6 19.7153 62.6 22.7153V22.7153ZM62.6 10.6153H67.5C68.3 10.6153 69 10.3153 69.6 9.71531L70.2 9.11531C70.7 8.21531 70.6 7.31531 70.6 6.51531C70.6 6.01531 70.5 5.71532 70.1 5.31532L69.5 4.71531C69.1 4.21531 68.5 3.91532 67.8 3.91532C66.1 3.81532 64.5 3.91532 62.7 3.91532C62.6 6.11532 62.6 8.21532 62.6 10.6153V10.6153ZM49.2 56.4153C48.2 55.4153 47 54.5153 46 53.6153C44.3 52.1153 42.8 50.3153 41.1 48.7153C38.7 46.5153 36.5 44.2153 34 41.9153V56.1153H30.4V33.9153H30.5C33.2 36.6153 35.9 39.3153 38.7 41.8153C40.5 43.3153 42 45.0153 43.8 46.7153C44.3 47.2153 45 47.6153 45.5 48.1153V34.1153H49.1C49.2 41.7153 49.2 49.1153 49.2 56.4153V56.4153ZM89.7 12.5153V22.4153L89.4 22.7153H85.9V0.515314H89.6V10.1153C90 9.71532 90.2 9.51531 90.5 9.11531C92 7.61531 93.6 6.01532 95 4.41532C95.8 3.51532 96.5 2.71531 97.3 2.01531C97.7 1.51531 98.1 1.11531 98.5 0.615315H103.2C102 1.81531 101 2.91532 100 3.91532C98.3 5.71532 96.7 7.41531 95 9.21531C94.4 9.81531 93.8 10.5153 93.3 11.1153C93.3 11.2153 93.3 11.2153 93.4 11.2153C94.4 12.2153 95.3 13.3153 96.3 14.3153C97.6 15.8153 98.9 17.2153 100.1 18.7153C100.6 19.3153 101.3 20.0153 101.8 20.5153C102.3 21.1153 102.8 21.7153 103.3 22.4153C102.5 22.5153 101.8 22.4153 101.1 22.5153H98.9L97.6 21.2153C96.6 20.2153 95.5 19.0153 94.7 17.9153L94.6 17.8153C93.4 16.6153 92.4 15.5153 91.3 14.3153C90.7 13.9153 90.3 13.2153 89.7 12.5153V12.5153ZM112.6 0.615315H126.1V3.91532H116.4V9.31531H125.2V12.4153L124.9 12.7153H116.3V19.6153H126V22.9153H112.5C112.6 15.3153 112.6 8.01531 112.6 0.615315V0.615315ZM137.9 34.3153V37.5153H128.4V42.9153H137V46.0153C135.6 46.1153 134.2 46.0153 132.8 46.0153H128.4V52.9153H137.9V56.2153H124.6V34.3153H137.9V34.3153ZM40.4 0.315315C40.9 1.61532 41.6 2.91531 42.1 4.11531C42.2 4.51531 42.5 4.71531 42.6 5.11531C43.6 7.21531 44.7 9.31532 45.5 11.4153C45.9 12.2153 46.3 12.9153 46.7 13.8153C47 14.7153 47.5 15.5153 47.9 16.2153C48.7 18.0153 49.4 19.9153 50.5 21.6153C50.6 21.9153 50.6 22.2153 50.8 22.6153H47.3C46.4 21.8153 46.4 20.5153 45.6 19.8153H35.1C34.7 20.6153 34.5 21.3153 34.1 22.2153L34 22.6153H30.3C30.6 22.1153 30.4 22.3153 31.1 20.9153C31.7 19.5153 32.4 18.2153 33 16.8153C33.8 15.3153 34.4 13.6153 35.2 12.1153C36 10.3153 36.9 8.51531 37.8 6.71531C38.6 5.01531 39.6 3.01532 40.1 1.71532C40.1 1.51532 40.2 0.815315 40.4 0.315315C40.3 0.315315 40.4 0.315315 40.4 0.315315V0.315315ZM44.2 16.5153C42.9 13.7153 41.8 10.9153 40.4 7.91532C39.1 10.8153 37.8 13.7153 36.6 16.5153H44.2ZM72.1 39.5153C71.6 38.9153 70.8 38.6153 70 38.2153C69.4 37.8153 68.7 37.6153 68.1 37.4153C67.2 37.3153 66.3 36.9153 65.4 37.1153C64.6 37.2153 63.9 37.2153 63.1 37.7153C62.2 38.3153 61.7 39.4153 62.1 40.4153C62.1 40.5153 62.1 40.8153 62.2 40.9153C63.1 42.2153 64.6 42.6153 66 43.1153C67.3 43.6153 68.7 44.0153 70 44.6153C71.3 45.2153 72.4 46.1153 72.9 47.5153C73.2 48.0153 73.2 48.5153 73.3 49.0153C73.4 49.6153 73.4 50.4153 73.3 51.1153C73.2 52.1153 72.9 53.0153 72.1 53.8153C70.9 55.1153 69.7 55.7153 68 56.1153C66.8 56.4153 65.7 56.2153 64.5 56.2153C63 56.3153 61.6 55.8153 60.1 55.3153C59.6 55.0153 59.1 54.8153 58.6 54.4153V50.7153C59.1 51.0153 59.8 51.2153 60.3 51.6153C62 52.6153 62.5 52.6153 64.3 53.0153C64.8 53.1153 65.3 53.3153 65.7 53.1153C66.5 53.0153 67.4 52.8153 68 52.6153C68.8 52.3153 69.3 51.7153 69.7 50.8153C69.7 50.3153 69.6 49.5153 69.4 48.9153C68.5 47.7153 67.3 47.2153 66.1 46.8153C65.2 46.5153 64.2 46.2153 63.3 45.8153C62.7 45.5153 62 45.3153 61.5 45.0153C60.9 44.7153 60.3 44.4153 59.8 43.8153C59.4 43.5153 59.2 43.2153 58.9 42.8153C58.6 42.4153 58.5 42.0153 58.4 41.6153C57.9 39.7153 58 37.8153 59.3 36.0153C60.1 35.1153 61.1 34.6153 62.2 34.2153C63.1 33.8153 64 33.7153 64.9 33.7153H65.7C67.9 33.6153 68.5 34.0153 70.6 34.6153C70.9 34.7153 71 34.9153 71.2 35.0153C71.5 35.1153 71.6 35.1153 72 35.3153V39.0153C72.2 39.4153 72.2 39.4153 72.1 39.5153V39.5153ZM134.4 3.91532V0.615315H152.7C152.8 1.11531 152.7 1.61531 152.7 2.11531V3.81532H145.4V22.6153H141.7V3.81532C139.3 3.91532 136.8 3.91532 134.4 3.91532V3.91532ZM19.2 56.3153H15.5V34.3153H19.2V56.3153ZM82 34.3153H85.6C85.7 35.3153 85.9 52.2153 85.7 56.2153H82.1C81.9 55.4153 81.9 35.2153 82 34.3153V34.3153ZM173 5.81532C172.5 5.21532 171.7 4.91531 170.9 4.51531C170.3 4.11531 169.6 3.91532 169 3.71532C168.1 3.61532 167.2 3.21532 166.3 3.41532C165.5 3.51532 164.8 3.51531 164 4.01531C163.1 4.61531 162.6 5.71531 163 6.71531C163 6.81531 163 7.11531 163.1 7.21531C164 8.51531 165.5 8.91532 166.9 9.41532C168.2 9.91532 169.6 10.3153 170.9 10.9153C172.2 11.5153 173.3 12.4153 173.8 13.8153C174.1 14.3153 174.1 14.8153 174.2 15.3153C174.3 15.9153 174.3 16.7153 174.2 17.4153C174.1 18.4153 173.8 19.3153 173 20.1153C171.8 21.4153 170.6 22.0153 168.9 22.4153C167.7 22.7153 166.6 22.5153 165.4 22.5153C163.9 22.6153 162.5 22.1153 161 21.6153C160.5 21.3153 160 21.1153 159.5 20.7153V17.0153C160 17.3153 160.7 17.5153 161.2 17.9153C162.9 18.9153 163.4 18.9153 165.2 19.3153C165.7 19.4153 166.2 19.6153 166.6 19.4153C167.4 19.3153 168.3 19.1153 168.9 18.9153C169.7 18.6153 170.2 18.0153 170.6 17.1153C170.6 16.6153 170.5 15.8153 170.3 15.2153C169.4 14.0153 168.2 13.5153 167 13.1153C166.1 12.8153 165.1 12.5153 164.2 12.1153C163.6 11.8153 162.9 11.6153 162.4 11.3153C161.8 11.0153 161.2 10.7153 160.7 10.1153C160.3 9.81532 160.1 9.51531 159.8 9.11531C159.5 8.71531 159.4 8.31532 159.3 7.91532C158.8 6.01532 158.9 4.11532 160.2 2.31532C161 1.41532 162 0.915314 163.1 0.515314C164 0.115314 164.9 0.0153143 165.8 0.0153143H166.6C168.8 -0.0846857 169.4 0.315316 171.5 0.915316C171.8 1.01532 171.9 1.21532 172.1 1.31532C172.4 1.41532 172.5 1.41531 172.9 1.61531V5.31532C173.1 5.71532 173.1 5.71532 173 5.81532V5.81532ZM150.8 56.3153H147.1V34.1153H155.7C157.1 34.1153 158.5 34.5153 159.8 35.3153C161.1 35.9153 162 37.4153 162.4 38.9153C162.8 40.4153 162.7 40.8153 162.4 42.5153C162.3 43.7153 161.6 44.6153 161.1 45.4153C160.6 46.0153 159.8 46.4153 159 46.7153C158.6 46.8153 158.1 47.0153 157.6 47.1153C157.7 47.4153 157.9 47.7153 158.1 48.0153C158.9 48.9153 159.6 49.7153 160.4 50.6153C160.8 51.1153 161.2 51.5153 161.6 52.0153C162 52.5153 162.4 52.9153 162.8 53.4153C163.4 54.3153 164.2 55.1153 165 55.8153C165.1 55.9153 165.3 56.2153 165.4 56.3153L165.3 56.4153H161.3C160.4 55.5153 159.5 54.5153 158.6 53.5153C157.7 52.5153 156.8 51.4153 155.9 50.4153C155 49.4153 154.2 48.3153 153.5 47.5153H150.9C150.8 50.2153 150.8 53.2153 150.8 56.3153V56.3153ZM150.8 44.1153H155.7C156.5 44.1153 157.2 43.8153 157.8 43.2153L158.4 42.6153C158.9 41.7153 158.8 40.8153 158.8 40.0153C158.8 39.5153 158.7 39.2153 158.3 38.8153L157.7 38.2153C157.3 37.7153 156.7 37.4153 156 37.4153C154.3 37.3153 152.7 37.4153 150.9 37.4153C150.8 39.7153 150.8 41.8153 150.8 44.1153V44.1153Z" fill="black"/>
</svg>
