<svg width="195" height="56" viewBox="0 0 195 56" fill="none" xmlns="http://www.w3.org/2000/svg">
<path d="M31.7368 0.710564C30.2763 1.89477 30 2.96056 30 7.77635C30 14.6448 30.75 15.3948 37.6974 15.3948C44.6053 15.3948 45.3947 14.5264 45.3947 7.2632V2.68425L44.0526 1.34214L42.7105 3.77686e-05H37.6579C33.4342 3.77686e-05 32.4079 0.118459 31.7368 0.710564Z" fill="#929292"/>
<path d="M0.986842 8.48679C0.0394737 9.39468 0 9.63153 0 14.9999V20.6052L1.14474 21.7499L2.28947 22.8947H7.61842H12.9474L13.9737 24.1184C14.9605 25.2631 15 25.4999 15 30.4736V35.6052L16.1842 36.7894L17.3684 37.9736L22.8947 37.8157C30.3553 37.6578 30.1579 37.8552 30.3158 30.3947L30.4737 24.8684L29.2895 23.6842L28.1053 22.4999H23.0526C18.3158 22.4999 17.9605 22.4605 16.7368 21.5131L15.4737 20.5263L15.3158 14.9605C15.1974 9.43416 15.1974 9.39468 14.0921 8.44732C13.0263 7.53942 12.7105 7.49995 7.46053 7.49995C2.13158 7.49995 1.89474 7.53942 0.986842 8.48679Z" fill="#929292"/>
<path d="M71.0526 21.0396C71.0526 21.5922 71.4079 22.0659 71.9605 22.3027C72.75 22.658 72.8289 23.0133 72.9474 26.1317L73.0658 29.6054H70.2632H67.5V31.9738V34.3422H70.2632H73.0263V39.8685V45.3948H75.3947C79.4605 45.3948 79.3421 45.7896 79.3421 32.7633C79.3421 19.4211 79.6184 20.1317 74.4079 20.1317C71.1711 20.1317 71.0526 20.1711 71.0526 21.0396Z" fill="#929292"/>
<path d="M107.368 21.2763C107.368 22.1842 107.566 22.4606 108.276 22.579L109.145 22.6974L109.263 38.9606L109.342 55.2632H111.513C113.171 55.2632 113.882 55.0658 114.474 54.4737C115.224 53.7237 115.263 53.1711 115.263 45.5921V37.5H117.829H120.395V35.329V33.1579H117.829H115.263V27.3158C115.263 20.0527 115.303 20.1316 110.605 20.1316H107.368V21.2763Z" fill="#929292"/>
<path d="M146.842 21.5132C146.842 22.2237 147.039 22.5001 147.592 22.5001C147.987 22.5001 148.46 22.7764 148.579 23.1316C148.697 23.4869 148.816 28.5395 148.816 34.3816V45.0001H151.145C154.816 45.0001 154.737 45.2369 154.737 32.6448C154.737 26.0922 154.579 21.7501 154.342 21.2764C153.987 20.6053 153.474 20.5264 150.395 20.5264C146.882 20.5264 146.842 20.5264 146.842 21.5132Z" fill="#929292"/>
<path d="M129.079 22.4211C129.079 22.7764 129.474 23.2895 129.987 23.4869C131.368 24.1185 131.368 26.7237 129.987 29.2895C128.526 31.9343 125.487 35.2895 123.316 36.5527C122.368 37.1053 121.579 37.658 121.579 37.7369C121.579 38.0527 124.5 41.8422 124.776 41.8422C125.25 41.8422 130.105 37.9343 131.842 36.158C132.789 35.1711 133.776 34.3422 134.053 34.3422C134.289 34.3422 135.355 35.3685 136.381 36.5922C137.368 37.8553 138.947 39.4737 139.816 40.1448L141.395 41.4474L143.329 39.7501C144.355 38.8422 145.224 37.8948 145.224 37.6974C145.224 37.4606 144.158 36.4737 142.895 35.408C141.631 34.3816 139.776 32.4474 138.789 31.1448C137.013 28.7764 136.974 28.6974 136.974 25.6974C136.974 23.8422 136.776 22.4606 136.5 22.1843C136.184 21.8685 134.724 21.7106 132.553 21.7106C129.513 21.7106 129.079 21.7895 129.079 22.4211Z" fill="#929292"/>
<path d="M48.1579 24.6711V26.8421H51.5132H54.8684L54.6316 27.9079C53.8026 31.7763 50.4868 36.079 47.0526 37.8553L45.75 38.5263L47.2105 40.3816C48 41.4079 48.7895 42.2368 48.9474 42.2368C49.6184 42.2368 54 39.0395 55.6579 37.3421C56.6053 36.3553 57.5921 35.5263 57.8289 35.5263C58.0263 35.5263 59.4474 36.9474 60.9474 38.7237C63.3158 41.4868 65.2895 43.1447 65.6447 42.5921C65.6842 42.5132 66.4342 41.5658 67.2632 40.5395C68.0921 39.5132 68.7237 38.5658 68.6447 38.5263C68.5658 38.4474 67.9737 38.1316 67.3026 37.7763C63.8684 36.0395 61.1447 32.25 60.5526 28.5L60.2763 26.8421H63.9079H67.5V24.6711V22.5H57.8289H48.1579V24.6711Z" fill="#929292"/>
<path d="M85.658 24.8684V27.2368H89.0527H92.487L92.2896 30.4737C92.1317 33.1579 91.8949 34.1842 90.8291 36.2368C89.408 39.0395 87.0396 41.8026 85.0264 43.0658C84.2764 43.5 83.6843 44.0132 83.6843 44.2105C83.6843 44.3684 84.4738 45.3947 85.3817 46.4211L87.1185 48.3158L88.737 47.0132C89.6449 46.3026 91.5396 44.4868 92.9212 42.9474L95.487 40.1447L99.1975 43.9342C101.211 46.0263 103.105 47.7632 103.421 47.7632C103.737 47.7632 104.724 47.0526 105.632 46.1447L107.29 44.5263L104.369 41.7632C100.461 38.0526 98.8027 34.6974 98.6054 30.2763L98.487 27.2368H101.921H105.395V24.8684V22.5H95.5264H85.658V24.8684Z" fill="#929292"/>
<path d="M162.632 23.4079C162.632 23.9605 162.987 24.4342 163.539 24.671C164.368 25.0658 164.408 25.3026 164.526 30C164.605 34.0658 164.724 35.0131 165.276 35.4079C165.789 35.8026 169.026 35.921 178.224 35.921C189.711 35.921 190.579 35.8815 191.211 35.171C191.763 34.5394 191.842 33.6315 191.763 28.5789L191.645 22.6973L177.158 22.5789L162.632 22.5V23.4079ZM185.526 29.0131V31.1842L178.342 31.1052L171.118 30.9868L171 28.8947L170.882 26.8421H178.184H185.526V29.0131Z" fill="#929292"/>
<path d="M161.447 40.2632V42.6316H168.75H176.053V45.1974V47.7632H179.013H181.974V45.1974V42.6316H188.487H195V40.2632V37.8948H178.224H161.447V40.2632Z" fill="#929292"/>
<path d="M50.9211 43.7764C50.9211 44.2895 51.2369 44.6053 51.829 44.6843C52.658 44.8027 52.6975 45.0001 52.8159 48.7501C52.8948 52.1448 53.0527 52.8159 53.7632 53.5659L54.5922 54.4738H67.3817H80.1317V52.1053V49.7369L69.7896 49.658L59.408 49.5395L59.2106 46.3816L59.0132 43.2238L54.9869 43.1053C51.158 42.9869 50.9211 43.0659 50.9211 43.7764Z" fill="#929292"/>
<path d="M126.71 43.7763C126.71 44.2895 127.026 44.6052 127.618 44.6842C128.447 44.8026 128.487 45.0395 128.684 48.8684C128.96 54.8684 127.895 54.4737 143.329 54.4737H155.921V52.1052V49.7368L145.579 49.6579L135.197 49.5395L135 46.3816L134.803 43.2237L130.776 43.1052C126.947 42.9868 126.71 43.0658 126.71 43.7763Z" fill="#929292"/>
<path d="M163.816 45.3553C163.816 45.7501 164.171 46.1843 164.605 46.3027C165.316 46.5001 165.395 46.8553 165.395 49.5395C165.395 52.1843 165.513 52.658 166.381 53.4869L167.329 54.4738H180H192.631V52.5001V50.5264H182.645C175.421 50.5264 172.539 50.408 172.184 50.0527C171.908 49.7764 171.71 48.5527 171.71 47.329C171.71 44.6448 171.671 44.6053 167.131 44.6053C164.131 44.6053 163.816 44.6843 163.816 45.3553Z" fill="#929292"/>
</svg>
