<svg width="195" height="64" viewBox="0 0 195 64" fill="none" xmlns="http://www.w3.org/2000/svg">
<path d="M0.223784 0.240921C1.23081 1.24795 2.34973 2.25498 3.24487 3.3739C4.14001 4.49282 5.25893 5.38796 6.15407 6.50688C7.1611 7.84959 8.5038 8.85661 9.39894 10.0874C10.5179 11.4301 11.7487 12.4372 12.6438 13.3323C13.9865 11.9896 15.2173 10.8707 16.2244 9.41608C17.1195 8.40905 18.1265 7.51391 18.7979 6.50688C19.9168 5.38796 21.2595 4.15715 22.2665 3.03822C23.1617 2.03119 23.9449 1.13606 24.9519 0.129028V25.4166H21.0357V10.9826C20.7 11.4301 20.4763 11.542 20.3644 11.8777C20.2525 11.9896 20.0287 12.3253 19.9168 12.4372C18.2384 14.1155 16.4481 16.0177 14.8817 17.6961C14.3222 18.3674 13.5389 19.1507 12.9795 19.822C12.6438 19.7102 12.5319 19.7101 12.42 19.9339C12.0843 19.4864 11.8606 19.2626 11.5249 18.815C9.9584 17.1366 8.28002 15.2345 6.48974 13.5561C5.81839 12.8847 5.03515 11.9896 4.36379 11.2063C4.36379 11.0945 4.2519 10.8707 4.02812 10.7588V25.1929H0C0.223784 17.0247 0.223784 8.52094 0.223784 0.240921ZM108.647 62.5648V38.7318L108.983 38.3961H118.494C119.165 38.3961 119.948 38.7318 120.62 38.7318C121.291 38.7318 122.074 39.0675 122.634 39.1794C124.088 39.7388 125.319 40.2983 126.55 41.5291C128.005 42.8718 128.9 44.4383 129.571 46.2286C129.683 46.788 129.683 47.3475 130.019 47.907C130.466 49.2497 130.354 50.4805 130.354 51.8232C130.354 54.3967 129.459 56.7464 128.005 58.8724C127.445 59.5438 126.662 60.327 125.879 60.8865C124.872 61.5578 123.865 62.2292 122.746 62.5648C122.074 62.9005 121.179 62.9005 120.396 63.0124C118.718 63.46 116.927 63.1243 115.137 63.1243H109.99C109.207 63.0124 108.759 63.0124 108.647 62.5648V62.5648ZM112.787 59.32H116.368C117.487 59.32 118.718 59.4319 119.836 58.9843C120.508 58.8724 121.291 58.8724 121.851 58.4248C123.193 57.7535 124.2 56.5227 124.872 55.4037C124.872 54.7324 125.319 53.9491 125.543 53.2778C125.879 52.3827 125.431 51.5994 125.991 50.7043V50.2567C125.655 49.921 125.879 49.6972 125.879 49.3616C125.879 48.8021 125.767 48.2426 125.543 47.6832C125.095 45.781 124.424 44.774 123.417 43.767C122.298 42.648 120.843 42.2005 119.277 42.0886C117.151 41.9767 115.025 42.0886 112.787 42.0886V59.32ZM70.0445 25.4166H65.9045V0.576596H75.5272C77.0937 0.576596 78.6602 1.02417 80.1148 1.9193C81.5694 2.59066 82.5764 4.26904 83.024 5.94742C83.4715 7.6258 83.3596 8.07337 83.024 9.97554C82.9121 11.3182 82.1288 12.3253 81.5694 13.2204C81.0099 13.8918 80.1148 14.3393 79.2196 14.675C78.7721 14.7869 78.2126 15.0107 77.6531 15.1226C77.765 15.4582 77.9888 15.7939 78.2126 16.1296C79.1077 17.1366 79.891 18.0318 80.7861 19.0388C81.2337 19.5983 81.6812 20.0458 82.1288 20.6053C82.5764 21.1647 83.024 21.6123 83.4715 22.1718C84.1429 23.1788 85.038 24.0739 85.9331 24.8572C86.045 24.9691 86.2688 25.3048 86.3807 25.4166L86.2688 25.5285H81.7931C80.7861 24.5215 79.7791 23.4026 78.7721 22.2837C77.765 21.1647 76.758 19.9339 75.751 18.815C74.7439 17.6961 73.8488 16.4653 73.0656 15.5701H70.1564C70.0445 18.5912 70.0445 22.0599 70.0445 25.4166V25.4166ZM70.0445 11.8777H75.5272C76.4223 11.8777 77.2056 11.542 77.8769 10.8707L78.5483 10.1993C79.1077 9.19229 78.9958 8.18526 78.9958 7.29012C78.9958 6.73066 78.8839 6.39499 78.4364 5.94742L77.765 5.27607C77.3175 4.71661 76.6461 4.38093 75.8629 4.38093C73.9607 4.26904 72.1704 4.38093 70.1564 4.38093C70.0445 6.84256 70.0445 9.19229 70.0445 11.8777V11.8777ZM55.0509 63.1243C53.932 62.0054 52.5893 60.9983 51.4704 59.9913C49.5682 58.3129 47.8898 56.2989 45.9877 54.5086C43.3023 52.047 40.8406 49.4735 38.0433 46.8999V62.7886H34.0152V37.9486H34.1271C37.1482 40.9697 40.1693 43.9907 43.3023 46.788C45.3163 48.4664 46.9947 50.3686 49.0088 52.2708C49.5682 52.8302 50.3515 53.2778 50.9109 53.8373V38.1724H54.939C55.0509 46.6762 55.0509 54.9562 55.0509 63.1243V63.1243ZM100.367 14.0037V25.081L100.032 25.4166H96.1153V0.576596H100.255V11.3182C100.703 10.8707 100.927 10.6469 101.262 10.1993C102.941 8.52094 104.731 6.73066 106.298 4.94039C107.193 3.93336 107.976 3.03822 108.871 2.25498C109.319 1.69552 109.766 1.24795 110.214 0.688489H115.473C114.13 2.03119 113.011 3.26201 111.892 4.38093C109.99 6.39499 108.2 8.29715 106.298 10.3112C105.626 10.9826 104.955 11.7658 104.395 12.4372C104.395 12.5491 104.395 12.5491 104.507 12.5491C105.626 13.668 106.633 14.8988 107.752 16.0177C109.207 17.6961 110.661 19.2626 112.004 20.941C112.563 21.6123 113.347 22.3956 113.906 22.955C114.466 23.6264 115.025 24.2977 115.585 25.081C114.689 25.1929 113.906 25.081 113.123 25.1929H110.661L109.207 23.7383C108.088 22.6193 106.857 21.2766 105.962 20.0458L105.85 19.9339C104.507 18.5912 103.388 17.3604 102.158 16.0177C101.486 15.5701 101.039 14.7869 100.367 14.0037V14.0037ZM125.991 0.688489H141.096V4.38093H130.242V10.4231H140.089V13.8918L139.753 14.2274H130.131V21.948H140.984V25.6404H125.879C125.991 17.1366 125.991 8.96851 125.991 0.688489V0.688489ZM154.299 38.3961V41.9767H143.669V48.0189H153.292V51.4875C151.726 51.5994 150.159 51.4875 148.593 51.4875H143.669V59.2081H154.299V62.9005H139.418V38.3961H154.299V38.3961ZM45.2044 0.352813C45.7639 1.80741 46.5471 3.26201 47.1066 4.60471C47.2185 5.05228 47.5542 5.27607 47.666 5.72363C48.785 8.07337 50.0158 10.4231 50.9109 12.7728C51.3585 13.668 51.8061 14.4512 52.2536 15.4582C52.5893 16.4653 53.1488 17.3604 53.5963 18.1437C54.4915 20.1577 55.2747 22.2837 56.5055 24.1858C56.6174 24.5215 56.6174 24.8572 56.8412 25.3048H52.925C51.9179 24.4096 51.9179 22.955 51.0228 22.1718H39.2741C38.8266 23.0669 38.6028 23.8502 38.1552 24.8572L38.0433 25.3048H33.9033C34.239 24.7453 34.0152 24.9691 34.7985 23.4026C35.4698 21.8361 36.253 20.3815 36.9244 18.815C37.8195 17.1366 38.4909 15.2345 39.386 13.5561C40.2812 11.542 41.2882 9.52797 42.2952 7.51391C43.1904 5.61174 44.3093 3.3739 44.8687 1.9193C44.8687 1.69552 44.9806 0.912274 45.2044 0.352813C45.0925 0.352813 45.2044 0.352813 45.2044 0.352813V0.352813ZM49.4563 18.4793C48.0017 15.3464 46.7709 12.2134 45.2044 8.85662C43.7498 12.1015 42.2952 15.3464 40.9525 18.4793H49.4563ZM80.6742 44.2145C80.1148 43.5432 79.2196 43.2075 78.3245 42.7599C77.6531 42.3124 76.8699 42.0886 76.1985 41.8648C75.1915 41.7529 74.1845 41.3053 73.1774 41.5291C72.2823 41.641 71.4991 41.641 70.6039 42.2005C69.5969 42.8718 69.0374 44.1026 69.485 45.2216C69.485 45.3335 69.485 45.6691 69.5969 45.781C70.6039 47.2356 72.2823 47.6832 73.8488 48.2426C75.3034 48.8021 76.8699 49.2497 78.3245 49.921C79.7791 50.5924 81.0099 51.5994 81.5694 53.1659C81.905 53.7254 81.905 54.2848 82.0169 54.8443C82.1288 55.5156 82.1288 56.4108 82.0169 57.194C81.905 58.3129 81.5694 59.32 80.6742 60.2151C79.3315 61.6697 77.9888 62.3411 76.0866 62.7886C74.7439 63.1243 73.5131 62.9005 72.1704 62.9005C70.492 63.0124 68.9256 62.4529 67.2472 61.8935C66.6877 61.5578 66.1283 61.334 65.5688 60.8865V56.7464C66.1283 57.0821 66.9115 57.3059 67.471 57.7535C69.3731 58.8724 69.9326 58.8724 71.9466 59.32C72.5061 59.4319 73.0656 59.6556 73.5131 59.4319C74.4083 59.32 75.4153 59.0962 76.0866 58.8724C76.9818 58.5367 77.5412 57.8654 77.9888 56.8583C77.9888 56.2989 77.8769 55.4037 77.6531 54.7324C76.6461 53.3897 75.3034 52.8302 73.9607 52.3827C72.9537 52.047 71.8347 51.7113 70.8277 51.2637C70.1564 50.9281 69.3731 50.7043 68.8137 50.3686C68.1423 50.0329 67.471 49.6972 66.9115 49.0259C66.4639 48.6902 66.2401 48.3545 65.9045 47.907C65.5688 47.4594 65.4569 47.0118 65.345 46.5643C64.7855 44.4383 64.8974 42.3124 66.352 40.2983C67.2472 39.2913 68.3661 38.7318 69.5969 38.2842C70.6039 37.8367 71.611 37.7248 72.618 37.7248H73.5131C75.9748 37.6129 76.6461 38.0605 78.9958 38.7318C79.3315 38.8437 79.4434 39.0675 79.6672 39.1794C80.0029 39.2913 80.1148 39.2913 80.5623 39.5151V43.6551C80.7861 44.1026 80.7861 44.1026 80.6742 44.2145V44.2145ZM150.383 4.38093V0.688489H170.859C170.971 1.24795 170.859 1.80741 170.859 2.36687V4.26904H162.691V25.3048H158.551V4.26904C155.866 4.38093 153.068 4.38093 150.383 4.38093V4.38093ZM21.4833 63.0124H17.3433V38.3961H21.4833V63.0124ZM91.7515 38.3961H95.7797C95.8916 39.5151 96.1153 58.4248 95.8916 62.9005H91.8634C91.6397 62.0054 91.6397 39.4032 91.7515 38.3961V38.3961ZM193.573 6.50688C193.014 5.83553 192.119 5.49985 191.224 5.05228C190.552 4.60471 189.769 4.38093 189.098 4.15715C188.091 4.04525 187.084 3.59769 186.077 3.82147C185.181 3.93336 184.398 3.93336 183.503 4.49282C182.496 5.16417 181.937 6.39499 182.384 7.51391C182.384 7.6258 182.384 7.96148 182.496 8.07337C183.503 9.52797 185.181 9.97554 186.748 10.535C188.203 11.0945 189.769 11.542 191.224 12.2134C192.678 12.8847 193.909 13.8918 194.469 15.4582C194.804 16.0177 194.804 16.5772 194.916 17.1366C195.028 17.808 195.028 18.7031 194.916 19.4864C194.804 20.6053 194.469 21.6123 193.573 22.5075C192.231 23.9621 190.888 24.6334 188.986 25.081C187.643 25.4167 186.412 25.1929 185.07 25.1929C183.391 25.3048 181.825 24.7453 180.146 24.1858C179.587 23.8502 179.027 23.6264 178.468 23.1788V19.0388C179.027 19.3745 179.811 19.5983 180.37 20.0458C182.272 21.1647 182.832 21.1647 184.846 21.6123C185.405 21.7242 185.965 21.948 186.412 21.7242C187.307 21.6123 188.314 21.3885 188.986 21.1647C189.881 20.8291 190.44 20.1577 190.888 19.1507C190.888 18.5912 190.776 17.6961 190.552 17.0247C189.545 15.682 188.203 15.1226 186.86 14.675C185.853 14.3393 184.734 14.0037 183.727 13.5561C183.056 13.2204 182.272 12.9966 181.713 12.6609C181.041 12.3253 180.37 11.9896 179.811 11.3182C179.363 10.9826 179.139 10.6469 178.804 10.1993C178.468 9.75175 178.356 9.30418 178.244 8.85662C177.685 6.73066 177.797 4.60471 179.251 2.59066C180.146 1.58363 181.265 1.02416 182.496 0.576596C183.503 0.129028 184.51 0.0171355 185.517 0.0171355H186.412C188.874 -0.0947566 189.545 0.352814 191.895 1.02417C192.231 1.13606 192.343 1.35984 192.566 1.47173C192.902 1.58363 193.014 1.58363 193.461 1.80741V5.94742C193.685 6.39499 193.685 6.39499 193.573 6.50688V6.50688ZM168.733 63.0124H164.593V38.1724H174.216C175.783 38.1724 177.349 38.6199 178.804 39.5151C180.258 40.1864 181.265 41.8648 181.713 43.5432C182.16 45.2216 182.048 45.6691 181.713 47.5713C181.601 48.914 180.818 49.921 180.258 50.8162C179.699 51.4875 178.804 51.9351 177.908 52.2708C177.461 52.3827 176.901 52.6064 176.342 52.7183C176.454 53.054 176.678 53.3897 176.901 53.7254C177.797 54.7324 178.58 55.6275 179.475 56.6346C179.923 57.194 180.37 57.6416 180.818 58.201C181.265 58.7605 181.713 59.2081 182.16 59.7675C182.832 60.7746 183.727 61.6697 184.622 62.4529C184.734 62.5648 184.958 62.9005 185.07 63.0124L184.958 63.1243H180.482C179.475 62.1173 178.468 60.9984 177.461 59.8794C176.454 58.7605 175.447 57.5297 174.44 56.4108C173.433 55.2918 172.538 54.061 171.754 53.1659H168.845C168.733 56.187 168.733 59.5437 168.733 63.0124V63.0124ZM168.733 49.3616H174.216C175.111 49.3616 175.894 49.0259 176.566 48.3545L177.237 47.6832C177.797 46.6762 177.685 45.6691 177.685 44.774C177.685 44.2145 177.573 43.8789 177.125 43.4313L176.454 42.7599C176.006 42.2005 175.335 41.8648 174.552 41.8648C172.65 41.7529 170.859 41.8648 168.845 41.8648C168.733 44.4383 168.733 46.788 168.733 49.3616V49.3616Z" fill="#929292"/>
</svg>
