<svg width="195" height="46" viewBox="0 0 195 46" fill="none" xmlns="http://www.w3.org/2000/svg">
<path d="M28.3075 33.2152L20.1825 36.7577V36.4002C18.6225 36.7902 16.8675 37.0177 15.2425 37.1152C7.5725 37.0502 1.5275 33.0202 1.43 28.2752V26.5202C3.9325 30.1602 9.0675 32.6302 15.2425 32.5327C17.3225 32.6302 19.4675 32.3052 21.255 31.8177L21.97 30.0627C19.8575 30.7127 17.5175 31.1352 15.2425 31.1352C7.5725 31.1352 1.5275 27.1377 1.43 22.2952V20.8652C3.9325 24.2452 9.0675 26.6827 15.2425 26.5202C18.0375 26.6827 20.735 26.0977 23.0425 25.0902L23.4 23.3352C21.1575 24.5052 18.265 25.1877 15.275 25.0902C7.605 25.1877 1.56 21.1902 1.4625 16.2502V14.8202C3.965 18.2652 9.1 20.7352 15.275 20.8327C18.785 20.7352 22.1 19.7927 24.83 18.3627L25.1875 16.2502C22.7175 18.0702 19.11 19.2727 15.275 19.4352C7.605 19.2727 1.56 15.2427 1.4625 10.2377C1.5275 5.46016 7.605 1.46267 15.275 1.39767C19.825 1.46267 24.0825 3.05517 26.585 5.65517L26.845 6.07767H28.6325L28.3725 5.65517C25.87 2.24267 20.8325 0.000169428 15.275 0.000169428C6.76 -0.0323306 0 4.61517 0 10.2052V10.5627V28.6002C0.2925 34.0602 6.89 38.5127 15.21 38.5127C20.7025 38.5452 25.675 36.3677 28.3075 33.2152Z" fill="#263238"/>
<path d="M24.9924 45.6626L27.8524 33.5076L19.6299 37.0826L24.6349 16.0226H15.0149L17.5174 5.65515H48.2299L45.7274 16.0226H35.7174L33.5724 21.7427L44.6549 17.0951L24.9924 45.6626ZM29.9974 31.0376L28.5674 38.1876L40.3649 20.3451L30.7124 24.6351L35.0024 14.6251H44.6549L46.4424 7.11765H18.5574L16.7699 14.6251H26.4224L21.7749 34.6126L29.9974 31.0376Z" fill="#FABF2C"/>
<path d="M68.6075 12.6102V12.6427C68.64 13.7802 68.2825 14.6577 67.5675 15.3077C66.8525 15.9577 65.8775 16.2827 64.61 16.2827C63.3425 16.2827 62.3025 15.8602 61.5225 15.0477C60.7425 14.2352 60.3525 13.1627 60.3525 11.8627V9.75016C60.3525 8.45016 60.7425 7.37767 61.49 6.56517C62.27 5.75267 63.2775 5.33017 64.5125 5.33017C65.8125 5.33017 66.82 5.65517 67.5675 6.27267C68.315 6.92267 68.6725 7.80016 68.64 8.93766V8.97016H66.56C66.56 8.28766 66.3975 7.76767 66.0725 7.44267C65.7475 7.11767 65.2275 6.95517 64.545 6.95517C63.895 6.95517 63.4075 7.21517 63.05 7.73517C62.6925 8.25517 62.4975 8.90517 62.4975 9.71767V11.8627C62.4975 12.6752 62.6925 13.3577 63.05 13.8777C63.44 14.3977 63.96 14.6577 64.6425 14.6577C65.2925 14.6577 65.7475 14.4952 66.0725 14.1702C66.3975 13.8452 66.56 13.3252 66.56 12.6427H68.6075V12.6102ZM80.3725 11.7652C80.3725 13.0652 79.95 14.1702 79.1375 15.0152C78.325 15.8602 77.2525 16.2827 75.92 16.2827C74.5875 16.2827 73.5475 15.8602 72.7025 15.0152C71.89 14.1702 71.4675 13.0652 71.4675 11.7652V9.84767C71.4675 8.54767 71.89 7.47517 72.7025 6.59767C73.515 5.75267 74.5875 5.29767 75.8875 5.29767C77.22 5.29767 78.2925 5.72017 79.105 6.59767C79.95 7.44267 80.34 8.54767 80.34 9.84767V11.7652H80.3725ZM78.2275 9.81517C78.2275 8.97017 78.0325 8.32017 77.61 7.76767C77.1875 7.24767 76.635 6.95517 75.8875 6.95517C75.1725 6.95517 74.5875 7.21517 74.1975 7.76767C73.8075 8.28767 73.58 8.97017 73.58 9.81517V11.7327C73.58 12.5777 73.775 13.2602 74.1975 13.8127C74.5875 14.3327 75.1725 14.6252 75.8875 14.6252C76.635 14.6252 77.1875 14.3652 77.61 13.8127C78.0325 13.2927 78.2275 12.5777 78.2275 11.7327V9.81517ZM85.8975 16.1202H83.7525V5.46017H85.8975V16.1202ZM98.215 16.1202H96.07L91.78 8.93766H91.7475V16.1202H89.6025V5.46017H91.7475L96.0375 12.6427H96.07V5.46017H98.215V16.1202ZM108.973 7.11767H105.918V16.1202H103.773V7.11767H100.783V5.46017H108.973V7.11767ZM117.813 11.4402H113.848V14.4952H118.56V16.1202H111.735V5.46017H118.56V7.11767H113.88V9.78266H117.845V11.4402H117.813ZM123.76 14.4952H128.538V16.1202H121.615V5.46017H123.76V14.4952ZM137.638 11.4402H133.673V14.4952H138.385V16.1202H131.56V5.46017H138.385V7.11767H133.705V9.78266H137.67V11.4402H137.638ZM149.63 14.6902C149.305 15.1127 148.818 15.5027 148.135 15.8277C147.485 16.1527 146.64 16.3152 145.6 16.3152C144.3 16.3152 143.26 15.9252 142.448 15.1127C141.635 14.3002 141.213 13.2602 141.213 11.9602V9.71767C141.213 8.41767 141.603 7.37767 142.415 6.56517C143.195 5.75267 144.235 5.33017 145.47 5.33017C146.77 5.33017 147.778 5.65517 148.46 6.27267C149.143 6.89017 149.5 7.70267 149.468 8.74267V8.77516H147.453C147.453 8.22266 147.29 7.76767 146.965 7.44267C146.64 7.11767 146.153 6.95517 145.535 6.95517C144.885 6.95517 144.365 7.21517 143.943 7.70267C143.553 8.22267 143.358 8.87267 143.358 9.65267V11.8952C143.358 12.7077 143.553 13.3577 143.975 13.8777C144.398 14.3977 144.95 14.6252 145.633 14.6252C146.153 14.6252 146.543 14.5602 146.835 14.4627C147.128 14.3652 147.355 14.2352 147.518 14.0727V11.9927H145.47V10.4977H149.663V14.6902H149.63ZM155.155 11.8627V16.1202H153.01V5.46017H156.715C157.918 5.46017 158.893 5.75267 159.575 6.30517C160.258 6.85767 160.615 7.63766 160.615 8.61266C160.615 9.16516 160.485 9.62017 160.193 10.0427C159.9 10.4327 159.478 10.7577 158.925 11.0177C159.543 11.2127 159.998 11.5052 160.29 11.9602C160.55 12.3827 160.713 12.9352 160.713 13.5852V14.3652C160.713 14.6577 160.745 14.9827 160.843 15.3077C160.908 15.6327 161.07 15.8602 161.265 16.0227V16.1852H159.055C158.86 16.0227 158.73 15.7627 158.665 15.4052C158.6 15.0477 158.568 14.6902 158.568 14.3652V13.6177C158.568 13.0977 158.438 12.6752 158.145 12.3827C157.853 12.0902 157.43 11.9277 156.91 11.9277H155.155V11.8627ZM155.155 10.2377H156.683C157.268 10.2377 157.723 10.1077 158.015 9.84767C158.308 9.58767 158.47 9.23017 158.47 8.71017C158.47 8.22267 158.308 7.83267 158.015 7.54017C157.723 7.24767 157.3 7.11767 156.715 7.11767H155.155V10.2377ZM169.683 13.8452H166.238L165.523 16.1527H163.28L166.888 5.49267H169.065L172.64 16.1527H170.398L169.683 13.8452ZM166.758 12.1552H169.163L167.993 8.38517H167.96L166.758 12.1552ZM177.385 12.2527V16.1202H175.24V5.46017H179.335C180.57 5.46017 181.513 5.78517 182.228 6.40267C182.943 7.02017 183.268 7.86517 183.268 8.87267C183.268 9.88017 182.91 10.7252 182.228 11.3427C181.513 11.9602 180.57 12.2852 179.335 12.2852H177.385V12.2527ZM177.385 10.6277H179.335C179.92 10.6277 180.375 10.4652 180.7 10.1402C180.993 9.81517 181.155 9.39267 181.155 8.90517C181.155 8.38517 180.993 7.96266 180.7 7.63766C180.408 7.31266 179.953 7.15016 179.335 7.15016H177.385V10.6277ZM195 16.1202H192.855V11.7002H188.5V16.1202H186.355V5.46017H188.5V10.0427H192.855V5.46017H195V16.1202Z" fill="#263238"/>
<path d="M64.2524 33.5402H62.9199V26.5202H60.5149V25.3827H66.6574V26.5202H64.2524V33.5402ZM73.1899 33.5402H71.8574V29.7377C71.8574 29.2502 71.7599 28.8927 71.5649 28.6652C71.3699 28.4377 71.0774 28.3077 70.6549 28.3077C70.1024 28.3077 69.7124 28.4702 69.4524 28.7952C69.1924 29.1202 69.0624 29.6727 69.0624 30.4527V33.5077H67.7624V24.8302H69.0624V27.0402C69.0624 27.3977 69.0299 27.7552 68.9974 28.1777H69.0949C69.2574 27.8852 69.5174 27.6577 69.8424 27.4952C70.1674 27.3327 70.5249 27.2352 70.9474 27.2352C72.4424 27.2352 73.1899 27.9827 73.1899 29.5102V33.5402ZM77.7074 33.6377C76.7324 33.6377 75.9849 33.3452 75.4649 32.7927C74.9124 32.2402 74.6524 31.4602 74.6524 30.4852C74.6524 29.4777 74.9124 28.6977 75.3999 28.1127C75.8874 27.5277 76.6024 27.2352 77.4799 27.2352C78.2924 27.2352 78.9424 27.4952 79.3974 27.9827C79.8849 28.4702 80.1124 29.1527 80.1124 30.0302V30.7452H75.9849C76.0174 31.3302 76.1799 31.8177 76.4724 32.1102C76.7649 32.4352 77.2199 32.5977 77.7724 32.5977C78.1299 32.5977 78.4874 32.5652 78.7799 32.5002C79.1049 32.4352 79.4299 32.3052 79.7874 32.1427V33.2152C79.4624 33.3777 79.1374 33.4752 78.8124 33.5402C78.5199 33.6052 78.1299 33.6377 77.7074 33.6377ZM77.4799 28.2427C77.0574 28.2427 76.7324 28.3727 76.4724 28.6327C76.2124 28.8927 76.0824 29.2827 76.0174 29.8027H78.8124C78.8124 29.2827 78.6824 28.8927 78.4549 28.6327C78.2274 28.3727 77.9024 28.2427 77.4799 28.2427ZM87.6524 28.3402H86.1574V33.5402H84.8249V28.3402H83.8174V27.7227L84.8249 27.3327V26.9427C84.8249 26.2277 84.9874 25.6752 85.3449 25.3177C85.7024 24.9602 86.2224 24.7977 86.9049 24.7977C87.3599 24.7977 87.8149 24.8627 88.2699 25.0252L87.9124 26.0327C87.5874 25.9352 87.2949 25.8702 86.9699 25.8702C86.6774 25.8702 86.4499 25.9677 86.3199 26.1302C86.1899 26.3252 86.1249 26.5852 86.1249 26.9427V27.3327H87.6199V28.3402H87.6524ZM93.0799 33.5402L92.8849 32.7277H92.8199C92.6249 33.0202 92.3649 33.2477 92.0399 33.4102C91.7149 33.5727 91.3249 33.6702 90.9024 33.6702C90.1549 33.6702 89.6024 33.4752 89.2124 33.1177C88.8224 32.7602 88.6599 32.1752 88.6599 31.4277V27.3652H89.9924V31.1677C89.9924 31.6552 90.0899 31.9802 90.2849 32.2402C90.4799 32.4677 90.7724 32.5977 91.1949 32.5977C91.7474 32.5977 92.1374 32.4352 92.3974 32.1102C92.6574 31.7852 92.7874 31.2327 92.7874 30.4527V27.3652H94.1199V33.5402H93.0799ZM98.2799 32.5652C98.6049 32.5652 98.9299 32.5002 99.2549 32.4027V33.3777C99.1249 33.4427 98.9299 33.5077 98.7024 33.5402C98.4749 33.5727 98.2474 33.6052 97.9874 33.6052C96.7524 33.6052 96.1349 32.9552 96.1349 31.6552V28.3402H95.2899V27.7552L96.1999 27.2677L96.6549 25.9677H97.4674V27.3327H99.2224V28.3402H97.4674V31.6552C97.4674 31.9802 97.5324 32.2077 97.6949 32.3702C97.7924 32.5002 98.0199 32.5652 98.2799 32.5652ZM104.812 33.5402L104.617 32.7277H104.552C104.357 33.0202 104.097 33.2477 103.772 33.4102C103.447 33.5727 103.057 33.6702 102.635 33.6702C101.887 33.6702 101.335 33.4752 100.945 33.1177C100.587 32.7602 100.392 32.1752 100.392 31.4277V27.3652H101.725V31.1677C101.725 31.6552 101.822 31.9802 102.017 32.2402C102.212 32.4677 102.505 32.5977 102.927 32.5977C103.48 32.5977 103.87 32.4352 104.13 32.1102C104.39 31.7852 104.52 31.2327 104.52 30.4527V27.3652H105.852V33.5402H104.812ZM110.857 27.2352C111.117 27.2352 111.345 27.2677 111.507 27.3002L111.377 28.5352C111.182 28.5027 110.987 28.4702 110.792 28.4702C110.272 28.4702 109.85 28.6327 109.525 28.9902C109.2 29.3477 109.037 29.7702 109.037 30.3227V33.5402H107.737V27.3652H108.777L108.94 28.4377H109.005C109.2 28.0802 109.492 27.7877 109.817 27.5602C110.11 27.3652 110.467 27.2352 110.857 27.2352ZM115.115 33.6377C114.14 33.6377 113.392 33.3452 112.872 32.7927C112.32 32.2402 112.06 31.4602 112.06 30.4852C112.06 29.4777 112.32 28.6977 112.807 28.1127C113.295 27.5277 114.01 27.2352 114.887 27.2352C115.7 27.2352 116.35 27.4952 116.805 27.9827C117.292 28.4702 117.52 29.1527 117.52 30.0302V30.7452H113.392C113.425 31.3302 113.587 31.8177 113.88 32.1102C114.172 32.4352 114.627 32.5977 115.18 32.5977C115.537 32.5977 115.895 32.5652 116.187 32.5002C116.512 32.4352 116.837 32.3052 117.195 32.1427V33.2152C116.87 33.3777 116.545 33.4752 116.22 33.5402C115.895 33.6052 115.537 33.6377 115.115 33.6377ZM114.887 28.2427C114.465 28.2427 114.14 28.3727 113.88 28.6327C113.62 28.8927 113.49 29.2827 113.425 29.8027H116.22C116.22 29.2827 116.09 28.8927 115.862 28.6327C115.602 28.3727 115.277 28.2427 114.887 28.2427ZM127.432 30.4202C127.432 31.4277 127.172 32.2077 126.652 32.7927C126.132 33.3452 125.417 33.6377 124.507 33.6377C123.922 33.6377 123.435 33.5077 122.98 33.2477C122.525 32.9877 122.2 32.5977 121.972 32.1102C121.745 31.6227 121.615 31.0702 121.615 30.4202C121.615 29.4127 121.875 28.6327 122.395 28.0802C122.915 27.5277 123.63 27.2352 124.572 27.2352C125.45 27.2352 126.165 27.5277 126.685 28.1127C127.205 28.6977 127.432 29.4452 127.432 30.4202ZM122.947 30.4202C122.947 31.8502 123.467 32.5652 124.54 32.5652C125.58 32.5652 126.1 31.8502 126.1 30.4202C126.1 29.0227 125.58 28.3077 124.54 28.3077C123.987 28.3077 123.597 28.5027 123.337 28.8602C123.077 29.2177 122.947 29.7377 122.947 30.4202ZM132.047 28.3402H130.552V33.5402H129.22V28.3402H128.212V27.7227L129.22 27.3327V26.9427C129.22 26.2277 129.382 25.6752 129.74 25.3177C130.097 24.9602 130.617 24.7977 131.3 24.7977C131.755 24.7977 132.21 24.8627 132.665 25.0252L132.307 26.0327C131.982 25.9352 131.69 25.8702 131.365 25.8702C131.072 25.8702 130.845 25.9677 130.715 26.1302C130.585 26.2927 130.52 26.5852 130.52 26.9427V27.3327H132.015V28.3402H132.047ZM141.277 33.5402H139.945V29.7377C139.945 29.2502 139.847 28.9252 139.685 28.6652C139.522 28.4377 139.23 28.3077 138.84 28.3077C138.32 28.3077 137.962 28.4702 137.735 28.7952C137.507 29.1202 137.377 29.6727 137.377 30.4527V33.5402H136.077V27.3652H137.117L137.312 28.1777H137.377C137.54 27.8852 137.8 27.6577 138.125 27.4952C138.45 27.3327 138.807 27.2677 139.197 27.2677C140.14 27.2677 140.79 27.5927 141.082 28.2427H141.18C141.375 27.9502 141.635 27.6902 141.96 27.5277C142.285 27.3652 142.675 27.2677 143.097 27.2677C143.845 27.2677 144.365 27.4627 144.722 27.8202C145.047 28.1777 145.242 28.7627 145.242 29.5102V33.5402H143.942V29.7377C143.942 29.2502 143.845 28.9252 143.682 28.6652C143.487 28.4377 143.227 28.3077 142.837 28.3077C142.317 28.3077 141.96 28.4702 141.732 28.7952C141.505 29.1202 141.375 29.6077 141.375 30.2577V33.5402H141.277ZM152.457 30.4202C152.457 31.4277 152.197 32.2077 151.677 32.7927C151.157 33.3452 150.442 33.6377 149.532 33.6377C148.947 33.6377 148.46 33.5077 148.005 33.2477C147.55 32.9877 147.225 32.5977 146.997 32.1102C146.77 31.6227 146.64 31.0702 146.64 30.4202C146.64 29.4127 146.9 28.6327 147.42 28.0802C147.94 27.5277 148.655 27.2352 149.597 27.2352C150.475 27.2352 151.19 27.5277 151.71 28.1127C152.197 28.6977 152.457 29.4452 152.457 30.4202ZM147.972 30.4202C147.972 31.8502 148.492 32.5652 149.565 32.5652C150.605 32.5652 151.125 31.8502 151.125 30.4202C151.125 29.0227 150.605 28.3077 149.565 28.3077C149.012 28.3077 148.622 28.5027 148.362 28.8602C148.102 29.2177 147.972 29.7377 147.972 30.4202ZM159.412 33.5402H158.08V29.7377C158.08 29.2502 157.982 28.8927 157.787 28.6652C157.592 28.4377 157.3 28.3077 156.877 28.3077C156.325 28.3077 155.902 28.4702 155.675 28.7952C155.447 29.1202 155.285 29.6727 155.285 30.4527V33.5402H153.985V27.3652H155.025L155.22 28.1777H155.285C155.48 27.8852 155.74 27.6577 156.065 27.4952C156.39 27.3327 156.78 27.2677 157.202 27.2677C158.697 27.2677 159.412 28.0152 159.412 29.5427V33.5402ZM163.93 33.6377C162.955 33.6377 162.207 33.3452 161.687 32.7927C161.135 32.2402 160.875 31.4602 160.875 30.4852C160.875 29.4777 161.135 28.6977 161.622 28.1127C162.11 27.5277 162.825 27.2352 163.702 27.2352C164.515 27.2352 165.165 27.4952 165.62 27.9827C166.107 28.4702 166.335 29.1527 166.335 30.0302V30.7452H162.207C162.24 31.3302 162.402 31.8177 162.695 32.1102C162.987 32.4352 163.442 32.5977 163.995 32.5977C164.352 32.5977 164.71 32.5652 165.002 32.5002C165.295 32.4352 165.652 32.3052 166.01 32.1427V33.2152C165.685 33.3777 165.36 33.4752 165.035 33.5402C164.71 33.6052 164.352 33.6377 163.93 33.6377ZM163.67 28.2427C163.247 28.2427 162.922 28.3727 162.662 28.6327C162.402 28.8927 162.272 29.2827 162.207 29.8027H165.002C165.002 29.2827 164.872 28.8927 164.645 28.6327C164.417 28.3727 164.092 28.2427 163.67 28.2427ZM166.66 27.3652H168.09L169.357 30.8752C169.552 31.3627 169.682 31.8502 169.747 32.2727H169.78C169.812 32.0777 169.877 31.8177 169.975 31.5252C170.072 31.2327 170.527 29.8352 171.405 27.3652H172.835L170.202 34.3527C169.715 35.6202 168.935 36.2702 167.797 36.2702C167.505 36.2702 167.212 36.2377 166.952 36.1727V35.1327C167.147 35.1652 167.375 35.1977 167.635 35.1977C168.252 35.1977 168.707 34.8402 168.967 34.0927L169.195 33.5077L166.66 27.3652Z" fill="#263238"/>
</svg>
