<?xml version="1.0" standalone="no"?>
<!DOCTYPE svg PUBLIC "-//W3C//DTD SVG 20010904//EN"
 "http://www.w3.org/TR/2001/REC-SVG-20010904/DTD/svg10.dtd">
<svg version="1.0" xmlns="http://www.w3.org/2000/svg"
 width="522.000000pt" height="191.000000pt" viewBox="0 0 522.000000 191.000000"
 preserveAspectRatio="xMidYMid meet">
<metadata>
Created by potrace 1.15, written by Peter Selinger 2001-2017
</metadata>
<g transform="translate(0.000000,191.000000) scale(0.100000,-0.100000)"
fill="#000000" stroke="none">
<path d="M1870 1335 l0 -575 139 0 140 0 3 238 c3 200 6 242 20 268 33 60 117
69 158 17 19 -24 20 -40 20 -259 0 -128 3 -239 6 -248 5 -14 28 -16 146 -16
l140 0 -4 298 -3 297 -29 62 c-33 73 -64 104 -131 134 -94 42 -223 24 -293
-41 -11 -11 -24 -20 -27 -20 -3 0 -5 95 -5 210 l0 210 -140 0 -140 0 0 -575z"/>
<path d="M4740 1559 c-80 -193 -147 -355 -148 -360 -3 -6 61 -8 164 -7 l167 3
143 345 c79 190 146 351 149 358 3 9 -33 12 -163 12 l-167 0 -145 -351z"/>
<path d="M1230 1570 c-204 -35 -347 -256 -313 -480 30 -189 167 -331 337 -347
83 -7 156 11 212 53 l44 34 0 -35 0 -35 135 0 135 0 -2 398 -3 397 -132 3
-133 3 0 -36 c0 -19 -3 -35 -6 -35 -3 0 -22 13 -42 29 -59 46 -149 66 -232 51z
m201 -273 c51 -34 79 -82 79 -134 0 -157 -170 -225 -281 -114 -81 81 -48 223
61 264 38 14 108 6 141 -16z"/>
<path d="M3055 1570 c-112 -19 -176 -52 -249 -129 -73 -80 -99 -146 -104 -266
-3 -84 0 -109 18 -157 62 -167 192 -263 371 -275 229 -16 414 128 451 352 47
280 -202 522 -487 475z m154 -277 c14 -11 36 -35 49 -53 44 -65 18 -176 -51
-219 -41 -25 -115 -28 -156 -6 -116 59 -116 224 -1 283 53 28 117 25 159 -5z"/>
<path d="M3947 1569 c-90 -13 -176 -60 -240 -129 -80 -86 -101 -146 -102 -285
0 -103 2 -114 32 -177 85 -179 280 -270 485 -227 310 66 431 449 219 691 -86
97 -248 149 -394 127z m162 -276 c94 -70 95 -205 2 -269 -41 -28 -115 -33
-159 -10 -88 46 -114 162 -56 245 41 58 155 76 213 34z"/>
<path d="M3 1548 c3 -7 80 -188 172 -403 l166 -390 -59 -140 c-33 -77 -57
-143 -55 -147 8 -14 279 -9 290 5 6 6 57 125 113 262 78 190 269 650 337 813
4 9 -28 12 -141 12 l-146 0 -20 -42 c-11 -24 -52 -124 -90 -223 -39 -99 -75
-183 -79 -188 -4 -4 -43 84 -86 195 -43 112 -84 215 -92 231 l-14 27 -150 0
c-117 0 -150 -3 -146 -12z"/>
<path d="M4615 1108 c-112 -40 -161 -166 -104 -269 32 -58 87 -89 158 -89 166
0 249 195 132 311 -52 52 -121 70 -186 47z"/>
<path d="M2313 675 c-87 -38 -61 -165 34 -165 40 0 93 45 93 80 0 33 -26 75
-55 88 -32 15 -32 15 -72 -3z"/>
<path d="M2033 659 c-51 -25 -79 -68 -94 -143 -11 -53 -14 -56 -41 -56 l-29 0
3 -62 c3 -60 4 -63 30 -66 l27 -3 3 -157 3 -157 80 0 c57 0 80 4 81 13 1 6 2
77 3 156 l1 145 53 3 52 3 3 63 3 62 -56 0 c-51 0 -55 2 -55 23 0 41 24 62 70
61 l41 -1 -3 66 -3 66 -65 3 c-50 2 -75 -2 -107 -19z"/>
<path d="M2760 470 c-37 -7 -80 -29 -80 -42 0 -5 -4 -8 -10 -8 -5 0 -10 9 -10
20 0 18 -7 20 -80 20 l-80 0 2 -222 3 -223 77 -3 76 -3 4 139 c3 121 6 143 22
161 22 25 44 27 72 7 17 -13 20 -31 24 -158 l5 -143 78 -1 77 -2 0 174 c0 153
-2 179 -19 212 -30 58 -90 84 -161 72z"/>
<path d="M3161 468 c-58 -10 -110 -52 -141 -114 -33 -65 -34 -169 -2 -230 26
-51 79 -98 127 -114 47 -16 118 -6 155 20 34 25 42 25 38 2 -3 -15 6 -17 77
-17 l80 0 1 223 1 222 -78 0 c-64 0 -79 -3 -79 -15 0 -19 -19 -19 -39 -1 -24
22 -90 33 -140 24z m150 -167 c31 -31 37 -67 17 -104 -18 -34 -40 -46 -85 -47
-34 0 -46 5 -68 32 -76 90 53 202 136 119z"/>
<path d="M3821 469 c-18 -4 -46 -17 -62 -28 -29 -21 -29 -21 -29 -1 0 18 -6
20 -80 20 l-80 0 0 -226 0 -225 78 3 77 3 5 143 c4 127 7 145 24 158 25 18 47
18 72 0 17 -13 20 -31 24 -158 l5 -143 75 0 75 0 3 145 c4 196 -1 223 -47 269
-41 41 -80 52 -140 40z"/>
<path d="M4180 443 c-159 -83 -159 -332 -1 -412 70 -36 181 -39 215 -6 19 20
15 142 -5 136 -8 -3 -34 -6 -59 -9 -80 -7 -130 60 -96 126 25 48 91 64 157 37
14 -5 16 3 14 65 -2 39 -6 74 -10 78 -3 4 -41 8 -83 10 -69 3 -83 1 -132 -25z"/>
<path d="M4575 451 c-94 -45 -130 -105 -130 -216 0 -65 4 -87 23 -120 56 -96
176 -136 300 -100 52 16 129 76 118 93 -3 5 -33 19 -66 31 -55 20 -62 21 -82
7 -48 -34 -138 -8 -138 39 0 13 24 15 156 15 l157 0 -6 60 c-6 75 -39 135 -95
175 -38 26 -54 30 -120 33 -60 2 -86 -2 -117 -17z"/>
<path d="M2270 236 l0 -224 78 2 77 1 3 223 2 222 -80 0 -80 0 0 -224z"/>
</g>
</svg>
