<svg width="195" height="70" viewBox="0 0 195 70" fill="none" xmlns="http://www.w3.org/2000/svg">
<path d="M69.3131 47.2708L47.2707 0L0 22.0423L22.0423 69.3131L69.3131 47.2708Z" fill="#DE1400"/>
<path d="M9.75317 40.541H36.087L40.7035 33.7137V21.5221H44.2472C48.311 21.5221 51.2045 23.993 51.2045 28.3494C51.2045 33.096 47.9859 35.1767 44.1821 35.1767H41.3862V40.5735H45.4176C52.1798 40.5735 57.8042 35.2417 57.8042 28.3819C57.8042 21.5221 52.1798 16.1904 45.4176 16.1904H34.3639V35.2092H21.0995L33.9412 16.1904H14.4347L10.826 21.5547H22.6275" fill="white"/>
<path d="M59.9175 15.8653H65.4118L70.1259 25.6836C71.3613 28.2844 72.3041 30.8853 72.8243 32.6409C72.6292 30.7227 72.4667 27.6017 72.4342 25.8786L72.3041 15.8653H77.0182V40.4435H71.849L67.6226 31.0479C66.2896 27.9593 64.7616 24.5132 64.3064 22.9852C64.5015 25.0008 64.534 27.8943 64.5665 29.9425L64.6966 40.4435H59.9175V15.8653Z" fill="#080E14"/>
<path d="M92.9486 35.6318L94.8017 38.4603C92.6885 40.1509 90.5103 40.9636 87.9744 40.9636C82.7727 40.9636 79.4241 37.2899 79.4241 31.6005C79.4241 28.3494 80.0743 26.2037 81.6998 24.4156C83.1628 22.7576 84.9834 21.9773 87.3892 21.9773C89.4699 21.9773 91.4531 22.6925 92.6235 23.8954C94.2815 25.586 95.0293 28.0243 95.0293 31.8281C95.0293 32.2182 95.0293 32.3483 95.0293 32.9335H84.5608V33.0635C84.5608 35.8594 85.9262 37.4525 88.3971 37.4525C89.9901 37.4199 91.5181 36.8347 92.9486 35.6318ZM84.5933 29.4548H90.0876V29.2272C90.0876 27.8943 89.9576 27.179 89.5349 26.4963C89.0798 25.7811 88.3971 25.4234 87.4543 25.4234C85.6662 25.4234 84.6258 26.8539 84.6258 29.3573L84.5933 29.4548Z" fill="#080E14"/>
<path d="M107.416 22.3025L106.213 25.456H103.157V34.6891C103.157 36.9974 103.58 37.6151 105.205 37.6151C105.628 37.6151 106.05 37.485 106.896 37.2574L107.513 40.0859C106.148 40.6711 104.913 40.8987 103.645 40.8987C101.239 40.8987 99.3207 39.8258 98.768 38.2328C98.4754 37.4525 98.4429 37.0949 98.4429 35.4368V25.456H96.6548V22.3675H98.4429C98.4429 20.6119 98.4429 19.409 98.6054 18.0435L103.417 16.8406C103.222 18.4987 103.124 20.4493 103.124 22.3025H107.416Z" fill="#080E14"/>
<path d="M119.997 27.6342V40.476H114.828V15.8978H119.997V27.1141L127.02 15.8978H133.099L125.232 27.2766L133.977 40.476H127.475L119.997 27.6342Z" fill="#080E14"/>
<path d="M148.932 35.3718C148.575 36.5096 147.989 37.485 147.242 38.3953C146.559 39.1755 145.746 39.7932 144.771 40.2484C143.86 40.7035 142.658 40.9311 141.26 40.9311C140.024 40.9311 138.919 40.7035 137.911 40.2484C136.903 39.7932 136.058 39.1755 135.343 38.3628C134.627 37.5175 134.075 36.5421 133.685 35.3718C133.294 34.2339 133.099 32.9334 133.099 31.5355C133.099 30.1375 133.294 28.8371 133.685 27.6667C134.075 26.4963 134.595 25.4885 135.343 24.6757C136.058 23.8304 136.903 23.1802 137.911 22.7576C138.919 22.3024 140.024 22.0748 141.26 22.0748C143.828 22.0748 145.876 22.9851 147.404 24.8057C148.152 25.651 148.672 26.5938 148.997 27.6342C149.322 28.6745 149.485 29.9424 149.485 31.4054C149.485 32.9334 149.322 34.2664 148.932 35.3718ZM143.373 26.5613C142.885 25.9111 142.202 25.586 141.325 25.586C140.772 25.586 140.252 25.7485 139.829 26.0737C139.406 26.3988 139.081 26.8539 138.886 27.4066C138.724 27.8618 138.594 28.447 138.496 29.0972C138.431 29.7474 138.366 30.5276 138.366 31.4054C138.366 33.4536 138.561 34.9491 138.984 35.9244C139.179 36.4121 139.537 36.8022 139.992 37.0298C140.447 37.2899 140.934 37.3874 141.39 37.3874C142.43 37.3874 143.21 36.9323 143.633 35.9569C144.088 35.0141 144.316 33.4536 144.316 31.3079C144.348 28.9671 144.023 27.3741 143.373 26.5613Z" fill="#080E14"/>
<path d="M159.303 26.1387C158.23 26.1387 157.287 26.6589 156.41 27.6667V40.5085H151.63V28.382C151.63 27.1466 151.565 26.0737 151.435 25.1959C151.305 24.2856 151.175 23.6029 150.98 23.0827L155.239 21.9448C155.662 22.6926 155.922 23.5379 155.987 24.5457C156.507 23.863 157.125 23.2453 157.84 22.7251C158.555 22.2049 159.336 21.9448 160.246 21.9448C160.603 21.9448 160.896 21.9773 161.124 22.0098C161.351 22.0749 161.644 22.1724 162.001 22.3349L160.701 26.5288C160.246 26.2688 159.791 26.1387 159.303 26.1387Z" fill="#080E14"/>
<path d="M166.781 33.1611C166.781 34.559 167.106 35.5994 167.788 36.3471C168.471 37.0949 169.414 37.4525 170.649 37.4525C172.275 37.4525 173.803 36.8673 175.266 35.6644L177.119 38.4928C175.038 40.1834 172.763 41.0287 170.259 41.0287C168.926 41.0287 167.723 40.8011 166.683 40.3459C165.643 39.8908 164.732 39.2731 163.985 38.4278C163.237 37.615 162.652 36.6397 162.262 35.4693C161.839 34.2989 161.644 33.031 161.644 31.6005C161.644 29.975 161.839 28.577 162.164 27.4392C162.522 26.3013 163.107 25.2934 163.887 24.3831C164.667 23.5704 165.48 22.9527 166.423 22.53C167.333 22.1399 168.406 21.9448 169.641 21.9448C170.714 21.9448 171.722 22.1074 172.632 22.4325C173.543 22.7901 174.323 23.2453 174.908 23.863C175.753 24.7408 176.371 25.7811 176.761 27.0815C177.151 28.3495 177.347 29.975 177.347 31.8931V32.9985H166.813L166.781 33.1611ZM172.21 27.6667C172.112 27.2766 171.982 26.919 171.755 26.5939C171.267 25.9111 170.584 25.5535 169.641 25.5535C168.731 25.5535 168.048 25.8786 167.528 26.5288C167.041 27.1791 166.781 28.1219 166.781 29.3898V29.4548H172.34V29.2272C172.34 28.577 172.275 28.0243 172.21 27.6667Z" fill="#080E14"/>
<path d="M191.034 40.5085C190.578 40.1183 190.221 39.6957 189.961 39.2405C189.766 39.4356 189.603 39.5982 189.441 39.7607C189.246 39.9233 189.083 40.0533 188.888 40.1834C187.978 40.8661 186.775 41.1912 185.247 41.1912C183.199 41.1912 181.638 40.7035 180.565 39.7282C179.525 38.7529 179.005 37.3224 179.005 35.5018C179.005 33.3561 179.72 31.7631 181.183 30.7552C182.613 29.7474 184.824 29.2272 187.783 29.2272H188.335C188.563 29.2272 188.758 29.2272 188.855 29.2597V28.5445C188.855 27.5367 188.725 26.8864 188.433 26.4638C188.173 26.0737 187.588 25.8786 186.71 25.8786C185.962 25.8786 185.149 26.0412 184.271 26.3988C183.394 26.7564 182.483 27.2441 181.475 27.9268L179.46 24.5131C179.915 24.2205 180.37 23.9605 180.793 23.7329C181.215 23.5053 181.736 23.2777 182.386 23.0176C183.296 22.66 184.109 22.3674 184.922 22.2049C185.702 22.0423 186.515 21.9773 187.36 21.9773C188.888 21.9773 190.156 22.2374 191.131 22.7901C192.107 23.3427 192.757 24.123 193.114 25.1308C193.244 25.3909 193.309 25.651 193.374 25.9436C193.407 26.2362 193.439 26.6264 193.439 27.1465V28.3819L193.309 34.494C193.309 35.0141 193.309 35.4368 193.342 35.7944C193.374 36.152 193.439 36.5096 193.537 36.8022C193.667 37.1273 193.83 37.3874 194.057 37.68C194.285 37.9401 194.577 38.2327 195 38.5578L192.464 41.4513C192.009 41.1912 191.489 40.8661 191.034 40.5085ZM185.149 33.1285C184.499 33.4861 184.174 34.2014 184.174 35.3067C184.174 35.9895 184.336 36.5422 184.759 36.9973C185.149 37.4199 185.637 37.615 186.255 37.615C187.197 37.615 188.01 37.2249 188.725 36.4121L188.79 32.5758H188.595C186.937 32.5758 185.767 32.7384 185.149 33.1285Z" fill="#080E14"/>
</svg>
